G04 #@! TF.FileFunction,Legend,Top*
%FSLAX46Y46*%
G04 Gerber Fmt 4.6, Leading zero omitted, Abs format (unit mm)*
G04 Created by KiCad (PCBNEW 4.0.2+dfsg1-2~bpo8+1-stable) date jue 22 dic 2016 23:09:18 COT*
%MOMM*%
G01*
G04 APERTURE LIST*
%ADD10C,0.100000*%
%ADD11C,0.150000*%
G04 APERTURE END LIST*
D10*
D11*
X81000000Y-56025000D02*
X83000000Y-56025000D01*
X83000000Y-53975000D02*
X81000000Y-53975000D01*
X83000000Y-63975000D02*
X81000000Y-63975000D01*
X81000000Y-66025000D02*
X83000000Y-66025000D01*
X108000000Y-71025000D02*
X110000000Y-71025000D01*
X110000000Y-68975000D02*
X108000000Y-68975000D01*
X93000000Y-71025000D02*
X95000000Y-71025000D01*
X95000000Y-68975000D02*
X93000000Y-68975000D01*
X90238000Y-62921000D02*
X91762000Y-62921000D01*
X92143000Y-62794000D02*
X89857000Y-62794000D01*
X89603000Y-62667000D02*
X92397000Y-62667000D01*
X92651000Y-62540000D02*
X89349000Y-62540000D01*
X89222000Y-62413000D02*
X92778000Y-62413000D01*
X87698000Y-63302000D02*
X94302000Y-63302000D01*
X94302000Y-63302000D02*
X94302000Y-57460000D01*
X94302000Y-57460000D02*
X93540000Y-56698000D01*
X93540000Y-56698000D02*
X88460000Y-56698000D01*
X88460000Y-56698000D02*
X87698000Y-57460000D01*
X87698000Y-57460000D02*
X87698000Y-63302000D01*
X91000000Y-57841000D02*
X91000000Y-58603000D01*
X90619000Y-58222000D02*
X91381000Y-58222000D01*
X94048000Y-60000000D02*
G75*
G03X94048000Y-60000000I-3048000J0D01*
G01*
X65400820Y-56149360D02*
X65400820Y-63850640D01*
X64400060Y-56149360D02*
X64400060Y-63850640D01*
X64400060Y-63850640D02*
X73599940Y-63850640D01*
X73599940Y-63850640D02*
X73599940Y-56149360D01*
X73599940Y-56149360D02*
X64400060Y-56149360D01*
X201603334Y-64419999D02*
X201603334Y-61879999D01*
X198783334Y-61599999D02*
X200333334Y-61599999D01*
X198783334Y-61599999D02*
X198783334Y-64699999D01*
X198783334Y-64699999D02*
X200333334Y-64699999D01*
X211813334Y-63009999D02*
X211813334Y-60469999D01*
X208993334Y-60189999D02*
X210543334Y-60189999D01*
X208993334Y-60189999D02*
X208993334Y-63289999D01*
X208993334Y-63289999D02*
X210543334Y-63289999D01*
X201603334Y-72619999D02*
X201603334Y-70079999D01*
X198783334Y-69799999D02*
X200333334Y-69799999D01*
X198783334Y-69799999D02*
X198783334Y-72899999D01*
X198783334Y-72899999D02*
X200333334Y-72899999D01*
X201603334Y-80819999D02*
X201603334Y-78279999D01*
X198783334Y-77999999D02*
X200333334Y-77999999D01*
X198783334Y-77999999D02*
X198783334Y-81099999D01*
X198783334Y-81099999D02*
X200333334Y-81099999D01*
X229973334Y-47419999D02*
X229973334Y-44879999D01*
X227153334Y-44599999D02*
X228703334Y-44599999D01*
X227153334Y-44599999D02*
X227153334Y-47699999D01*
X227153334Y-47699999D02*
X228703334Y-47699999D01*
X211813334Y-71209999D02*
X211813334Y-68669999D01*
X208993334Y-68389999D02*
X210543334Y-68389999D01*
X208993334Y-68389999D02*
X208993334Y-71489999D01*
X208993334Y-71489999D02*
X210543334Y-71489999D01*
X94270000Y-45270000D02*
X94270000Y-42730000D01*
X91450000Y-42450000D02*
X93000000Y-42450000D01*
X91450000Y-42450000D02*
X91450000Y-45550000D01*
X91450000Y-45550000D02*
X93000000Y-45550000D01*
X222023334Y-55619999D02*
X222023334Y-53079999D01*
X219203334Y-52799999D02*
X220753334Y-52799999D01*
X219203334Y-52799999D02*
X219203334Y-55899999D01*
X219203334Y-55899999D02*
X220753334Y-55899999D01*
X98270000Y-45270000D02*
X98270000Y-42730000D01*
X95450000Y-42450000D02*
X97000000Y-42450000D01*
X95450000Y-42450000D02*
X95450000Y-45550000D01*
X95450000Y-45550000D02*
X97000000Y-45550000D01*
X232233334Y-55619999D02*
X232233334Y-53079999D01*
X229413334Y-52799999D02*
X230963334Y-52799999D01*
X229413334Y-52799999D02*
X229413334Y-55899999D01*
X229413334Y-55899999D02*
X230963334Y-55899999D01*
X222023334Y-63819999D02*
X222023334Y-61279999D01*
X219203334Y-60999999D02*
X220753334Y-60999999D01*
X219203334Y-60999999D02*
X219203334Y-64099999D01*
X219203334Y-64099999D02*
X220753334Y-64099999D01*
X240183334Y-47419999D02*
X240183334Y-44879999D01*
X237363334Y-44599999D02*
X238913334Y-44599999D01*
X237363334Y-44599999D02*
X237363334Y-47699999D01*
X237363334Y-47699999D02*
X238913334Y-47699999D01*
X211813334Y-79409999D02*
X211813334Y-76869999D01*
X208993334Y-76589999D02*
X210543334Y-76589999D01*
X208993334Y-76589999D02*
X208993334Y-79689999D01*
X208993334Y-79689999D02*
X210543334Y-79689999D01*
X250393334Y-47419999D02*
X250393334Y-44879999D01*
X247573334Y-44599999D02*
X249123334Y-44599999D01*
X247573334Y-44599999D02*
X247573334Y-47699999D01*
X247573334Y-47699999D02*
X249123334Y-47699999D01*
X232233334Y-63819999D02*
X232233334Y-61279999D01*
X229413334Y-60999999D02*
X230963334Y-60999999D01*
X229413334Y-60999999D02*
X229413334Y-64099999D01*
X229413334Y-64099999D02*
X230963334Y-64099999D01*
X222023334Y-72019999D02*
X222023334Y-69479999D01*
X219203334Y-69199999D02*
X220753334Y-69199999D01*
X219203334Y-69199999D02*
X219203334Y-72299999D01*
X219203334Y-72299999D02*
X220753334Y-72299999D01*
X242443334Y-55619999D02*
X242443334Y-53079999D01*
X239623334Y-52799999D02*
X241173334Y-52799999D01*
X239623334Y-52799999D02*
X239623334Y-55899999D01*
X239623334Y-55899999D02*
X241173334Y-55899999D01*
X211813334Y-87609999D02*
X211813334Y-85069999D01*
X208993334Y-84789999D02*
X210543334Y-84789999D01*
X208993334Y-84789999D02*
X208993334Y-87889999D01*
X208993334Y-87889999D02*
X210543334Y-87889999D01*
X232233334Y-72019999D02*
X232233334Y-69479999D01*
X229413334Y-69199999D02*
X230963334Y-69199999D01*
X229413334Y-69199999D02*
X229413334Y-72299999D01*
X229413334Y-72299999D02*
X230963334Y-72299999D01*
X222023334Y-80219999D02*
X222023334Y-77679999D01*
X219203334Y-77399999D02*
X220753334Y-77399999D01*
X219203334Y-77399999D02*
X219203334Y-80499999D01*
X219203334Y-80499999D02*
X220753334Y-80499999D01*
X260603334Y-47419999D02*
X260603334Y-44879999D01*
X257783334Y-44599999D02*
X259333334Y-44599999D01*
X257783334Y-44599999D02*
X257783334Y-47699999D01*
X257783334Y-47699999D02*
X259333334Y-47699999D01*
X242443334Y-63819999D02*
X242443334Y-61279999D01*
X239623334Y-60999999D02*
X241173334Y-60999999D01*
X239623334Y-60999999D02*
X239623334Y-64099999D01*
X239623334Y-64099999D02*
X241173334Y-64099999D01*
X252653334Y-55619999D02*
X252653334Y-53079999D01*
X249833334Y-52799999D02*
X251383334Y-52799999D01*
X249833334Y-52799999D02*
X249833334Y-55899999D01*
X249833334Y-55899999D02*
X251383334Y-55899999D01*
X232233334Y-80219999D02*
X232233334Y-77679999D01*
X229413334Y-77399999D02*
X230963334Y-77399999D01*
X229413334Y-77399999D02*
X229413334Y-80499999D01*
X229413334Y-80499999D02*
X230963334Y-80499999D01*
X222023334Y-88419999D02*
X222023334Y-85879999D01*
X219203334Y-85599999D02*
X220753334Y-85599999D01*
X219203334Y-85599999D02*
X219203334Y-88699999D01*
X219203334Y-88699999D02*
X220753334Y-88699999D01*
X242443334Y-72019999D02*
X242443334Y-69479999D01*
X239623334Y-69199999D02*
X241173334Y-69199999D01*
X239623334Y-69199999D02*
X239623334Y-72299999D01*
X239623334Y-72299999D02*
X241173334Y-72299999D01*
X270813334Y-47419999D02*
X270813334Y-44879999D01*
X267993334Y-44599999D02*
X269543334Y-44599999D01*
X267993334Y-44599999D02*
X267993334Y-47699999D01*
X267993334Y-47699999D02*
X269543334Y-47699999D01*
X252653334Y-63819999D02*
X252653334Y-61279999D01*
X249833334Y-60999999D02*
X251383334Y-60999999D01*
X249833334Y-60999999D02*
X249833334Y-64099999D01*
X249833334Y-64099999D02*
X251383334Y-64099999D01*
X262863334Y-55619999D02*
X262863334Y-53079999D01*
X260043334Y-52799999D02*
X261593334Y-52799999D01*
X260043334Y-52799999D02*
X260043334Y-55899999D01*
X260043334Y-55899999D02*
X261593334Y-55899999D01*
X232233334Y-88419999D02*
X232233334Y-85879999D01*
X229413334Y-85599999D02*
X230963334Y-85599999D01*
X229413334Y-85599999D02*
X229413334Y-88699999D01*
X229413334Y-88699999D02*
X230963334Y-88699999D01*
X207713334Y-54809999D02*
X207713334Y-52269999D01*
X204893334Y-51989999D02*
X206443334Y-51989999D01*
X204893334Y-51989999D02*
X204893334Y-55089999D01*
X204893334Y-55089999D02*
X206443334Y-55089999D01*
X242443334Y-80219999D02*
X242443334Y-77679999D01*
X239623334Y-77399999D02*
X241173334Y-77399999D01*
X239623334Y-77399999D02*
X239623334Y-80499999D01*
X239623334Y-80499999D02*
X241173334Y-80499999D01*
X252653334Y-72019999D02*
X252653334Y-69479999D01*
X249833334Y-69199999D02*
X251383334Y-69199999D01*
X249833334Y-69199999D02*
X249833334Y-72299999D01*
X249833334Y-72299999D02*
X251383334Y-72299999D01*
X262863334Y-63819999D02*
X262863334Y-61279999D01*
X260043334Y-60999999D02*
X261593334Y-60999999D01*
X260043334Y-60999999D02*
X260043334Y-64099999D01*
X260043334Y-64099999D02*
X261593334Y-64099999D01*
X242443334Y-88419999D02*
X242443334Y-85879999D01*
X239623334Y-85599999D02*
X241173334Y-85599999D01*
X239623334Y-85599999D02*
X239623334Y-88699999D01*
X239623334Y-88699999D02*
X241173334Y-88699999D01*
X252653334Y-80219999D02*
X252653334Y-77679999D01*
X249833334Y-77399999D02*
X251383334Y-77399999D01*
X249833334Y-77399999D02*
X249833334Y-80499999D01*
X249833334Y-80499999D02*
X251383334Y-80499999D01*
X110000000Y-54075000D02*
X108000000Y-54075000D01*
X108000000Y-51925000D02*
X110000000Y-51925000D01*
X110000000Y-64075000D02*
X108000000Y-64075000D01*
X108000000Y-61925000D02*
X110000000Y-61925000D01*
X118000000Y-72075000D02*
X116000000Y-72075000D01*
X116000000Y-69925000D02*
X118000000Y-69925000D01*
X83700000Y-57400000D02*
X83700000Y-61700000D01*
X80300000Y-62650000D02*
X80300000Y-57400000D01*
X81833334Y-57657143D02*
X81785715Y-57704762D01*
X81642858Y-57752381D01*
X81547620Y-57752381D01*
X81404762Y-57704762D01*
X81309524Y-57609524D01*
X81261905Y-57514286D01*
X81214286Y-57323810D01*
X81214286Y-57180952D01*
X81261905Y-56990476D01*
X81309524Y-56895238D01*
X81404762Y-56800000D01*
X81547620Y-56752381D01*
X81642858Y-56752381D01*
X81785715Y-56800000D01*
X81833334Y-56847619D01*
X82785715Y-57752381D02*
X82214286Y-57752381D01*
X82500000Y-57752381D02*
X82500000Y-56752381D01*
X82404762Y-56895238D01*
X82309524Y-56990476D01*
X82214286Y-57038095D01*
X81833334Y-63057143D02*
X81785715Y-63104762D01*
X81642858Y-63152381D01*
X81547620Y-63152381D01*
X81404762Y-63104762D01*
X81309524Y-63009524D01*
X81261905Y-62914286D01*
X81214286Y-62723810D01*
X81214286Y-62580952D01*
X81261905Y-62390476D01*
X81309524Y-62295238D01*
X81404762Y-62200000D01*
X81547620Y-62152381D01*
X81642858Y-62152381D01*
X81785715Y-62200000D01*
X81833334Y-62247619D01*
X82214286Y-62247619D02*
X82261905Y-62200000D01*
X82357143Y-62152381D01*
X82595239Y-62152381D01*
X82690477Y-62200000D01*
X82738096Y-62247619D01*
X82785715Y-62342857D01*
X82785715Y-62438095D01*
X82738096Y-62580952D01*
X82166667Y-63152381D01*
X82785715Y-63152381D01*
X108833334Y-72657143D02*
X108785715Y-72704762D01*
X108642858Y-72752381D01*
X108547620Y-72752381D01*
X108404762Y-72704762D01*
X108309524Y-72609524D01*
X108261905Y-72514286D01*
X108214286Y-72323810D01*
X108214286Y-72180952D01*
X108261905Y-71990476D01*
X108309524Y-71895238D01*
X108404762Y-71800000D01*
X108547620Y-71752381D01*
X108642858Y-71752381D01*
X108785715Y-71800000D01*
X108833334Y-71847619D01*
X109166667Y-71752381D02*
X109785715Y-71752381D01*
X109452381Y-72133333D01*
X109595239Y-72133333D01*
X109690477Y-72180952D01*
X109738096Y-72228571D01*
X109785715Y-72323810D01*
X109785715Y-72561905D01*
X109738096Y-72657143D01*
X109690477Y-72704762D01*
X109595239Y-72752381D01*
X109309524Y-72752381D01*
X109214286Y-72704762D01*
X109166667Y-72657143D01*
X93833334Y-72657143D02*
X93785715Y-72704762D01*
X93642858Y-72752381D01*
X93547620Y-72752381D01*
X93404762Y-72704762D01*
X93309524Y-72609524D01*
X93261905Y-72514286D01*
X93214286Y-72323810D01*
X93214286Y-72180952D01*
X93261905Y-71990476D01*
X93309524Y-71895238D01*
X93404762Y-71800000D01*
X93547620Y-71752381D01*
X93642858Y-71752381D01*
X93785715Y-71800000D01*
X93833334Y-71847619D01*
X94690477Y-72085714D02*
X94690477Y-72752381D01*
X94452381Y-71704762D02*
X94214286Y-72419048D01*
X94833334Y-72419048D01*
X86912143Y-60166666D02*
X86959762Y-60214285D01*
X87007381Y-60357142D01*
X87007381Y-60452380D01*
X86959762Y-60595238D01*
X86864524Y-60690476D01*
X86769286Y-60738095D01*
X86578810Y-60785714D01*
X86435952Y-60785714D01*
X86245476Y-60738095D01*
X86150238Y-60690476D01*
X86055000Y-60595238D01*
X86007381Y-60452380D01*
X86007381Y-60357142D01*
X86055000Y-60214285D01*
X86102619Y-60166666D01*
X86007381Y-59261904D02*
X86007381Y-59738095D01*
X86483571Y-59785714D01*
X86435952Y-59738095D01*
X86388333Y-59642857D01*
X86388333Y-59404761D01*
X86435952Y-59309523D01*
X86483571Y-59261904D01*
X86578810Y-59214285D01*
X86816905Y-59214285D01*
X86912143Y-59261904D01*
X86959762Y-59309523D01*
X87007381Y-59404761D01*
X87007381Y-59642857D01*
X86959762Y-59738095D01*
X86912143Y-59785714D01*
X68261905Y-67353561D02*
X68261905Y-66353561D01*
X68642858Y-66353561D01*
X68738096Y-66401180D01*
X68785715Y-66448799D01*
X68833334Y-66544037D01*
X68833334Y-66686894D01*
X68785715Y-66782132D01*
X68738096Y-66829751D01*
X68642858Y-66877370D01*
X68261905Y-66877370D01*
X69785715Y-67353561D02*
X69214286Y-67353561D01*
X69500000Y-67353561D02*
X69500000Y-66353561D01*
X69404762Y-66496418D01*
X69309524Y-66591656D01*
X69214286Y-66639275D01*
X199595239Y-58502380D02*
X199595239Y-57502380D01*
X199976192Y-57502380D01*
X200071430Y-57549999D01*
X200119049Y-57597618D01*
X200166668Y-57692856D01*
X200166668Y-57835713D01*
X200119049Y-57930951D01*
X200071430Y-57978570D01*
X199976192Y-58026189D01*
X199595239Y-58026189D01*
X200547620Y-57597618D02*
X200595239Y-57549999D01*
X200690477Y-57502380D01*
X200928573Y-57502380D01*
X201023811Y-57549999D01*
X201071430Y-57597618D01*
X201119049Y-57692856D01*
X201119049Y-57788094D01*
X201071430Y-57930951D01*
X200500001Y-58502380D01*
X201119049Y-58502380D01*
X209805239Y-57092380D02*
X209805239Y-56092380D01*
X210186192Y-56092380D01*
X210281430Y-56139999D01*
X210329049Y-56187618D01*
X210376668Y-56282856D01*
X210376668Y-56425713D01*
X210329049Y-56520951D01*
X210281430Y-56568570D01*
X210186192Y-56616189D01*
X209805239Y-56616189D01*
X210710001Y-56092380D02*
X211329049Y-56092380D01*
X210995715Y-56473332D01*
X211138573Y-56473332D01*
X211233811Y-56520951D01*
X211281430Y-56568570D01*
X211329049Y-56663809D01*
X211329049Y-56901904D01*
X211281430Y-56997142D01*
X211233811Y-57044761D01*
X211138573Y-57092380D01*
X210852858Y-57092380D01*
X210757620Y-57044761D01*
X210710001Y-56997142D01*
X199595239Y-66702380D02*
X199595239Y-65702380D01*
X199976192Y-65702380D01*
X200071430Y-65749999D01*
X200119049Y-65797618D01*
X200166668Y-65892856D01*
X200166668Y-66035713D01*
X200119049Y-66130951D01*
X200071430Y-66178570D01*
X199976192Y-66226189D01*
X199595239Y-66226189D01*
X201023811Y-66035713D02*
X201023811Y-66702380D01*
X200785715Y-65654761D02*
X200547620Y-66369047D01*
X201166668Y-66369047D01*
X199595239Y-74902380D02*
X199595239Y-73902380D01*
X199976192Y-73902380D01*
X200071430Y-73949999D01*
X200119049Y-73997618D01*
X200166668Y-74092856D01*
X200166668Y-74235713D01*
X200119049Y-74330951D01*
X200071430Y-74378570D01*
X199976192Y-74426189D01*
X199595239Y-74426189D01*
X201071430Y-73902380D02*
X200595239Y-73902380D01*
X200547620Y-74378570D01*
X200595239Y-74330951D01*
X200690477Y-74283332D01*
X200928573Y-74283332D01*
X201023811Y-74330951D01*
X201071430Y-74378570D01*
X201119049Y-74473809D01*
X201119049Y-74711904D01*
X201071430Y-74807142D01*
X201023811Y-74854761D01*
X200928573Y-74902380D01*
X200690477Y-74902380D01*
X200595239Y-74854761D01*
X200547620Y-74807142D01*
X227965239Y-41502380D02*
X227965239Y-40502380D01*
X228346192Y-40502380D01*
X228441430Y-40549999D01*
X228489049Y-40597618D01*
X228536668Y-40692856D01*
X228536668Y-40835713D01*
X228489049Y-40930951D01*
X228441430Y-40978570D01*
X228346192Y-41026189D01*
X227965239Y-41026189D01*
X229393811Y-40502380D02*
X229203334Y-40502380D01*
X229108096Y-40549999D01*
X229060477Y-40597618D01*
X228965239Y-40740475D01*
X228917620Y-40930951D01*
X228917620Y-41311904D01*
X228965239Y-41407142D01*
X229012858Y-41454761D01*
X229108096Y-41502380D01*
X229298573Y-41502380D01*
X229393811Y-41454761D01*
X229441430Y-41407142D01*
X229489049Y-41311904D01*
X229489049Y-41073809D01*
X229441430Y-40978570D01*
X229393811Y-40930951D01*
X229298573Y-40883332D01*
X229108096Y-40883332D01*
X229012858Y-40930951D01*
X228965239Y-40978570D01*
X228917620Y-41073809D01*
X209805239Y-65292380D02*
X209805239Y-64292380D01*
X210186192Y-64292380D01*
X210281430Y-64339999D01*
X210329049Y-64387618D01*
X210376668Y-64482856D01*
X210376668Y-64625713D01*
X210329049Y-64720951D01*
X210281430Y-64768570D01*
X210186192Y-64816189D01*
X209805239Y-64816189D01*
X210710001Y-64292380D02*
X211376668Y-64292380D01*
X210948096Y-65292380D01*
X92261905Y-41452381D02*
X92261905Y-40452381D01*
X92642858Y-40452381D01*
X92738096Y-40500000D01*
X92785715Y-40547619D01*
X92833334Y-40642857D01*
X92833334Y-40785714D01*
X92785715Y-40880952D01*
X92738096Y-40928571D01*
X92642858Y-40976190D01*
X92261905Y-40976190D01*
X93404762Y-40880952D02*
X93309524Y-40833333D01*
X93261905Y-40785714D01*
X93214286Y-40690476D01*
X93214286Y-40642857D01*
X93261905Y-40547619D01*
X93309524Y-40500000D01*
X93404762Y-40452381D01*
X93595239Y-40452381D01*
X93690477Y-40500000D01*
X93738096Y-40547619D01*
X93785715Y-40642857D01*
X93785715Y-40690476D01*
X93738096Y-40785714D01*
X93690477Y-40833333D01*
X93595239Y-40880952D01*
X93404762Y-40880952D01*
X93309524Y-40928571D01*
X93261905Y-40976190D01*
X93214286Y-41071429D01*
X93214286Y-41261905D01*
X93261905Y-41357143D01*
X93309524Y-41404762D01*
X93404762Y-41452381D01*
X93595239Y-41452381D01*
X93690477Y-41404762D01*
X93738096Y-41357143D01*
X93785715Y-41261905D01*
X93785715Y-41071429D01*
X93738096Y-40976190D01*
X93690477Y-40928571D01*
X93595239Y-40880952D01*
X220015239Y-49702380D02*
X220015239Y-48702380D01*
X220396192Y-48702380D01*
X220491430Y-48749999D01*
X220539049Y-48797618D01*
X220586668Y-48892856D01*
X220586668Y-49035713D01*
X220539049Y-49130951D01*
X220491430Y-49178570D01*
X220396192Y-49226189D01*
X220015239Y-49226189D01*
X221062858Y-49702380D02*
X221253334Y-49702380D01*
X221348573Y-49654761D01*
X221396192Y-49607142D01*
X221491430Y-49464285D01*
X221539049Y-49273809D01*
X221539049Y-48892856D01*
X221491430Y-48797618D01*
X221443811Y-48749999D01*
X221348573Y-48702380D01*
X221158096Y-48702380D01*
X221062858Y-48749999D01*
X221015239Y-48797618D01*
X220967620Y-48892856D01*
X220967620Y-49130951D01*
X221015239Y-49226189D01*
X221062858Y-49273809D01*
X221158096Y-49321428D01*
X221348573Y-49321428D01*
X221443811Y-49273809D01*
X221491430Y-49226189D01*
X221539049Y-49130951D01*
X95785714Y-41452381D02*
X95785714Y-40452381D01*
X96166667Y-40452381D01*
X96261905Y-40500000D01*
X96309524Y-40547619D01*
X96357143Y-40642857D01*
X96357143Y-40785714D01*
X96309524Y-40880952D01*
X96261905Y-40928571D01*
X96166667Y-40976190D01*
X95785714Y-40976190D01*
X97309524Y-41452381D02*
X96738095Y-41452381D01*
X97023809Y-41452381D02*
X97023809Y-40452381D01*
X96928571Y-40595238D01*
X96833333Y-40690476D01*
X96738095Y-40738095D01*
X97928571Y-40452381D02*
X98023810Y-40452381D01*
X98119048Y-40500000D01*
X98166667Y-40547619D01*
X98214286Y-40642857D01*
X98261905Y-40833333D01*
X98261905Y-41071429D01*
X98214286Y-41261905D01*
X98166667Y-41357143D01*
X98119048Y-41404762D01*
X98023810Y-41452381D01*
X97928571Y-41452381D01*
X97833333Y-41404762D01*
X97785714Y-41357143D01*
X97738095Y-41261905D01*
X97690476Y-41071429D01*
X97690476Y-40833333D01*
X97738095Y-40642857D01*
X97785714Y-40547619D01*
X97833333Y-40500000D01*
X97928571Y-40452381D01*
X229749048Y-49702380D02*
X229749048Y-48702380D01*
X230130001Y-48702380D01*
X230225239Y-48749999D01*
X230272858Y-48797618D01*
X230320477Y-48892856D01*
X230320477Y-49035713D01*
X230272858Y-49130951D01*
X230225239Y-49178570D01*
X230130001Y-49226189D01*
X229749048Y-49226189D01*
X231272858Y-49702380D02*
X230701429Y-49702380D01*
X230987143Y-49702380D02*
X230987143Y-48702380D01*
X230891905Y-48845237D01*
X230796667Y-48940475D01*
X230701429Y-48988094D01*
X232225239Y-49702380D02*
X231653810Y-49702380D01*
X231939524Y-49702380D02*
X231939524Y-48702380D01*
X231844286Y-48845237D01*
X231749048Y-48940475D01*
X231653810Y-48988094D01*
X219539048Y-57902380D02*
X219539048Y-56902380D01*
X219920001Y-56902380D01*
X220015239Y-56949999D01*
X220062858Y-56997618D01*
X220110477Y-57092856D01*
X220110477Y-57235713D01*
X220062858Y-57330951D01*
X220015239Y-57378570D01*
X219920001Y-57426189D01*
X219539048Y-57426189D01*
X221062858Y-57902380D02*
X220491429Y-57902380D01*
X220777143Y-57902380D02*
X220777143Y-56902380D01*
X220681905Y-57045237D01*
X220586667Y-57140475D01*
X220491429Y-57188094D01*
X221443810Y-56997618D02*
X221491429Y-56949999D01*
X221586667Y-56902380D01*
X221824763Y-56902380D01*
X221920001Y-56949999D01*
X221967620Y-56997618D01*
X222015239Y-57092856D01*
X222015239Y-57188094D01*
X221967620Y-57330951D01*
X221396191Y-57902380D01*
X222015239Y-57902380D01*
X237699048Y-41502380D02*
X237699048Y-40502380D01*
X238080001Y-40502380D01*
X238175239Y-40549999D01*
X238222858Y-40597618D01*
X238270477Y-40692856D01*
X238270477Y-40835713D01*
X238222858Y-40930951D01*
X238175239Y-40978570D01*
X238080001Y-41026189D01*
X237699048Y-41026189D01*
X239222858Y-41502380D02*
X238651429Y-41502380D01*
X238937143Y-41502380D02*
X238937143Y-40502380D01*
X238841905Y-40645237D01*
X238746667Y-40740475D01*
X238651429Y-40788094D01*
X239556191Y-40502380D02*
X240175239Y-40502380D01*
X239841905Y-40883332D01*
X239984763Y-40883332D01*
X240080001Y-40930951D01*
X240127620Y-40978570D01*
X240175239Y-41073809D01*
X240175239Y-41311904D01*
X240127620Y-41407142D01*
X240080001Y-41454761D01*
X239984763Y-41502380D01*
X239699048Y-41502380D01*
X239603810Y-41454761D01*
X239556191Y-41407142D01*
X209329048Y-73492380D02*
X209329048Y-72492380D01*
X209710001Y-72492380D01*
X209805239Y-72539999D01*
X209852858Y-72587618D01*
X209900477Y-72682856D01*
X209900477Y-72825713D01*
X209852858Y-72920951D01*
X209805239Y-72968570D01*
X209710001Y-73016189D01*
X209329048Y-73016189D01*
X210852858Y-73492380D02*
X210281429Y-73492380D01*
X210567143Y-73492380D02*
X210567143Y-72492380D01*
X210471905Y-72635237D01*
X210376667Y-72730475D01*
X210281429Y-72778094D01*
X211710001Y-72825713D02*
X211710001Y-73492380D01*
X211471905Y-72444761D02*
X211233810Y-73159047D01*
X211852858Y-73159047D01*
X247909048Y-41502380D02*
X247909048Y-40502380D01*
X248290001Y-40502380D01*
X248385239Y-40549999D01*
X248432858Y-40597618D01*
X248480477Y-40692856D01*
X248480477Y-40835713D01*
X248432858Y-40930951D01*
X248385239Y-40978570D01*
X248290001Y-41026189D01*
X247909048Y-41026189D01*
X249432858Y-41502380D02*
X248861429Y-41502380D01*
X249147143Y-41502380D02*
X249147143Y-40502380D01*
X249051905Y-40645237D01*
X248956667Y-40740475D01*
X248861429Y-40788094D01*
X250337620Y-40502380D02*
X249861429Y-40502380D01*
X249813810Y-40978570D01*
X249861429Y-40930951D01*
X249956667Y-40883332D01*
X250194763Y-40883332D01*
X250290001Y-40930951D01*
X250337620Y-40978570D01*
X250385239Y-41073809D01*
X250385239Y-41311904D01*
X250337620Y-41407142D01*
X250290001Y-41454761D01*
X250194763Y-41502380D01*
X249956667Y-41502380D01*
X249861429Y-41454761D01*
X249813810Y-41407142D01*
X229749048Y-57902380D02*
X229749048Y-56902380D01*
X230130001Y-56902380D01*
X230225239Y-56949999D01*
X230272858Y-56997618D01*
X230320477Y-57092856D01*
X230320477Y-57235713D01*
X230272858Y-57330951D01*
X230225239Y-57378570D01*
X230130001Y-57426189D01*
X229749048Y-57426189D01*
X231272858Y-57902380D02*
X230701429Y-57902380D01*
X230987143Y-57902380D02*
X230987143Y-56902380D01*
X230891905Y-57045237D01*
X230796667Y-57140475D01*
X230701429Y-57188094D01*
X232130001Y-56902380D02*
X231939524Y-56902380D01*
X231844286Y-56949999D01*
X231796667Y-56997618D01*
X231701429Y-57140475D01*
X231653810Y-57330951D01*
X231653810Y-57711904D01*
X231701429Y-57807142D01*
X231749048Y-57854761D01*
X231844286Y-57902380D01*
X232034763Y-57902380D01*
X232130001Y-57854761D01*
X232177620Y-57807142D01*
X232225239Y-57711904D01*
X232225239Y-57473809D01*
X232177620Y-57378570D01*
X232130001Y-57330951D01*
X232034763Y-57283332D01*
X231844286Y-57283332D01*
X231749048Y-57330951D01*
X231701429Y-57378570D01*
X231653810Y-57473809D01*
X219539048Y-66102380D02*
X219539048Y-65102380D01*
X219920001Y-65102380D01*
X220015239Y-65149999D01*
X220062858Y-65197618D01*
X220110477Y-65292856D01*
X220110477Y-65435713D01*
X220062858Y-65530951D01*
X220015239Y-65578570D01*
X219920001Y-65626189D01*
X219539048Y-65626189D01*
X221062858Y-66102380D02*
X220491429Y-66102380D01*
X220777143Y-66102380D02*
X220777143Y-65102380D01*
X220681905Y-65245237D01*
X220586667Y-65340475D01*
X220491429Y-65388094D01*
X221396191Y-65102380D02*
X222062858Y-65102380D01*
X221634286Y-66102380D01*
X239959048Y-49702380D02*
X239959048Y-48702380D01*
X240340001Y-48702380D01*
X240435239Y-48749999D01*
X240482858Y-48797618D01*
X240530477Y-48892856D01*
X240530477Y-49035713D01*
X240482858Y-49130951D01*
X240435239Y-49178570D01*
X240340001Y-49226189D01*
X239959048Y-49226189D01*
X241482858Y-49702380D02*
X240911429Y-49702380D01*
X241197143Y-49702380D02*
X241197143Y-48702380D01*
X241101905Y-48845237D01*
X241006667Y-48940475D01*
X240911429Y-48988094D01*
X242054286Y-49130951D02*
X241959048Y-49083332D01*
X241911429Y-49035713D01*
X241863810Y-48940475D01*
X241863810Y-48892856D01*
X241911429Y-48797618D01*
X241959048Y-48749999D01*
X242054286Y-48702380D01*
X242244763Y-48702380D01*
X242340001Y-48749999D01*
X242387620Y-48797618D01*
X242435239Y-48892856D01*
X242435239Y-48940475D01*
X242387620Y-49035713D01*
X242340001Y-49083332D01*
X242244763Y-49130951D01*
X242054286Y-49130951D01*
X241959048Y-49178570D01*
X241911429Y-49226189D01*
X241863810Y-49321428D01*
X241863810Y-49511904D01*
X241911429Y-49607142D01*
X241959048Y-49654761D01*
X242054286Y-49702380D01*
X242244763Y-49702380D01*
X242340001Y-49654761D01*
X242387620Y-49607142D01*
X242435239Y-49511904D01*
X242435239Y-49321428D01*
X242387620Y-49226189D01*
X242340001Y-49178570D01*
X242244763Y-49130951D01*
X209329048Y-81692380D02*
X209329048Y-80692380D01*
X209710001Y-80692380D01*
X209805239Y-80739999D01*
X209852858Y-80787618D01*
X209900477Y-80882856D01*
X209900477Y-81025713D01*
X209852858Y-81120951D01*
X209805239Y-81168570D01*
X209710001Y-81216189D01*
X209329048Y-81216189D01*
X210852858Y-81692380D02*
X210281429Y-81692380D01*
X210567143Y-81692380D02*
X210567143Y-80692380D01*
X210471905Y-80835237D01*
X210376667Y-80930475D01*
X210281429Y-80978094D01*
X211329048Y-81692380D02*
X211519524Y-81692380D01*
X211614763Y-81644761D01*
X211662382Y-81597142D01*
X211757620Y-81454285D01*
X211805239Y-81263809D01*
X211805239Y-80882856D01*
X211757620Y-80787618D01*
X211710001Y-80739999D01*
X211614763Y-80692380D01*
X211424286Y-80692380D01*
X211329048Y-80739999D01*
X211281429Y-80787618D01*
X211233810Y-80882856D01*
X211233810Y-81120951D01*
X211281429Y-81216189D01*
X211329048Y-81263809D01*
X211424286Y-81311428D01*
X211614763Y-81311428D01*
X211710001Y-81263809D01*
X211757620Y-81216189D01*
X211805239Y-81120951D01*
X229749048Y-66102380D02*
X229749048Y-65102380D01*
X230130001Y-65102380D01*
X230225239Y-65149999D01*
X230272858Y-65197618D01*
X230320477Y-65292856D01*
X230320477Y-65435713D01*
X230272858Y-65530951D01*
X230225239Y-65578570D01*
X230130001Y-65626189D01*
X229749048Y-65626189D01*
X230701429Y-65197618D02*
X230749048Y-65149999D01*
X230844286Y-65102380D01*
X231082382Y-65102380D01*
X231177620Y-65149999D01*
X231225239Y-65197618D01*
X231272858Y-65292856D01*
X231272858Y-65388094D01*
X231225239Y-65530951D01*
X230653810Y-66102380D01*
X231272858Y-66102380D01*
X231891905Y-65102380D02*
X231987144Y-65102380D01*
X232082382Y-65149999D01*
X232130001Y-65197618D01*
X232177620Y-65292856D01*
X232225239Y-65483332D01*
X232225239Y-65721428D01*
X232177620Y-65911904D01*
X232130001Y-66007142D01*
X232082382Y-66054761D01*
X231987144Y-66102380D01*
X231891905Y-66102380D01*
X231796667Y-66054761D01*
X231749048Y-66007142D01*
X231701429Y-65911904D01*
X231653810Y-65721428D01*
X231653810Y-65483332D01*
X231701429Y-65292856D01*
X231749048Y-65197618D01*
X231796667Y-65149999D01*
X231891905Y-65102380D01*
X219539048Y-74302380D02*
X219539048Y-73302380D01*
X219920001Y-73302380D01*
X220015239Y-73349999D01*
X220062858Y-73397618D01*
X220110477Y-73492856D01*
X220110477Y-73635713D01*
X220062858Y-73730951D01*
X220015239Y-73778570D01*
X219920001Y-73826189D01*
X219539048Y-73826189D01*
X220491429Y-73397618D02*
X220539048Y-73349999D01*
X220634286Y-73302380D01*
X220872382Y-73302380D01*
X220967620Y-73349999D01*
X221015239Y-73397618D01*
X221062858Y-73492856D01*
X221062858Y-73588094D01*
X221015239Y-73730951D01*
X220443810Y-74302380D01*
X221062858Y-74302380D01*
X222015239Y-74302380D02*
X221443810Y-74302380D01*
X221729524Y-74302380D02*
X221729524Y-73302380D01*
X221634286Y-73445237D01*
X221539048Y-73540475D01*
X221443810Y-73588094D01*
X258119048Y-41502380D02*
X258119048Y-40502380D01*
X258500001Y-40502380D01*
X258595239Y-40549999D01*
X258642858Y-40597618D01*
X258690477Y-40692856D01*
X258690477Y-40835713D01*
X258642858Y-40930951D01*
X258595239Y-40978570D01*
X258500001Y-41026189D01*
X258119048Y-41026189D01*
X259071429Y-40597618D02*
X259119048Y-40549999D01*
X259214286Y-40502380D01*
X259452382Y-40502380D01*
X259547620Y-40549999D01*
X259595239Y-40597618D01*
X259642858Y-40692856D01*
X259642858Y-40788094D01*
X259595239Y-40930951D01*
X259023810Y-41502380D01*
X259642858Y-41502380D01*
X260023810Y-40597618D02*
X260071429Y-40549999D01*
X260166667Y-40502380D01*
X260404763Y-40502380D01*
X260500001Y-40549999D01*
X260547620Y-40597618D01*
X260595239Y-40692856D01*
X260595239Y-40788094D01*
X260547620Y-40930951D01*
X259976191Y-41502380D01*
X260595239Y-41502380D01*
X239959048Y-57902380D02*
X239959048Y-56902380D01*
X240340001Y-56902380D01*
X240435239Y-56949999D01*
X240482858Y-56997618D01*
X240530477Y-57092856D01*
X240530477Y-57235713D01*
X240482858Y-57330951D01*
X240435239Y-57378570D01*
X240340001Y-57426189D01*
X239959048Y-57426189D01*
X240911429Y-56997618D02*
X240959048Y-56949999D01*
X241054286Y-56902380D01*
X241292382Y-56902380D01*
X241387620Y-56949999D01*
X241435239Y-56997618D01*
X241482858Y-57092856D01*
X241482858Y-57188094D01*
X241435239Y-57330951D01*
X240863810Y-57902380D01*
X241482858Y-57902380D01*
X241816191Y-56902380D02*
X242435239Y-56902380D01*
X242101905Y-57283332D01*
X242244763Y-57283332D01*
X242340001Y-57330951D01*
X242387620Y-57378570D01*
X242435239Y-57473809D01*
X242435239Y-57711904D01*
X242387620Y-57807142D01*
X242340001Y-57854761D01*
X242244763Y-57902380D01*
X241959048Y-57902380D01*
X241863810Y-57854761D01*
X241816191Y-57807142D01*
X250169048Y-49702380D02*
X250169048Y-48702380D01*
X250550001Y-48702380D01*
X250645239Y-48749999D01*
X250692858Y-48797618D01*
X250740477Y-48892856D01*
X250740477Y-49035713D01*
X250692858Y-49130951D01*
X250645239Y-49178570D01*
X250550001Y-49226189D01*
X250169048Y-49226189D01*
X251121429Y-48797618D02*
X251169048Y-48749999D01*
X251264286Y-48702380D01*
X251502382Y-48702380D01*
X251597620Y-48749999D01*
X251645239Y-48797618D01*
X251692858Y-48892856D01*
X251692858Y-48988094D01*
X251645239Y-49130951D01*
X251073810Y-49702380D01*
X251692858Y-49702380D01*
X252550001Y-49035713D02*
X252550001Y-49702380D01*
X252311905Y-48654761D02*
X252073810Y-49369047D01*
X252692858Y-49369047D01*
X229749048Y-74302380D02*
X229749048Y-73302380D01*
X230130001Y-73302380D01*
X230225239Y-73349999D01*
X230272858Y-73397618D01*
X230320477Y-73492856D01*
X230320477Y-73635713D01*
X230272858Y-73730951D01*
X230225239Y-73778570D01*
X230130001Y-73826189D01*
X229749048Y-73826189D01*
X230701429Y-73397618D02*
X230749048Y-73349999D01*
X230844286Y-73302380D01*
X231082382Y-73302380D01*
X231177620Y-73349999D01*
X231225239Y-73397618D01*
X231272858Y-73492856D01*
X231272858Y-73588094D01*
X231225239Y-73730951D01*
X230653810Y-74302380D01*
X231272858Y-74302380D01*
X232177620Y-73302380D02*
X231701429Y-73302380D01*
X231653810Y-73778570D01*
X231701429Y-73730951D01*
X231796667Y-73683332D01*
X232034763Y-73683332D01*
X232130001Y-73730951D01*
X232177620Y-73778570D01*
X232225239Y-73873809D01*
X232225239Y-74111904D01*
X232177620Y-74207142D01*
X232130001Y-74254761D01*
X232034763Y-74302380D01*
X231796667Y-74302380D01*
X231701429Y-74254761D01*
X231653810Y-74207142D01*
X219539048Y-82502380D02*
X219539048Y-81502380D01*
X219920001Y-81502380D01*
X220015239Y-81549999D01*
X220062858Y-81597618D01*
X220110477Y-81692856D01*
X220110477Y-81835713D01*
X220062858Y-81930951D01*
X220015239Y-81978570D01*
X219920001Y-82026189D01*
X219539048Y-82026189D01*
X220491429Y-81597618D02*
X220539048Y-81549999D01*
X220634286Y-81502380D01*
X220872382Y-81502380D01*
X220967620Y-81549999D01*
X221015239Y-81597618D01*
X221062858Y-81692856D01*
X221062858Y-81788094D01*
X221015239Y-81930951D01*
X220443810Y-82502380D01*
X221062858Y-82502380D01*
X221920001Y-81502380D02*
X221729524Y-81502380D01*
X221634286Y-81549999D01*
X221586667Y-81597618D01*
X221491429Y-81740475D01*
X221443810Y-81930951D01*
X221443810Y-82311904D01*
X221491429Y-82407142D01*
X221539048Y-82454761D01*
X221634286Y-82502380D01*
X221824763Y-82502380D01*
X221920001Y-82454761D01*
X221967620Y-82407142D01*
X222015239Y-82311904D01*
X222015239Y-82073809D01*
X221967620Y-81978570D01*
X221920001Y-81930951D01*
X221824763Y-81883332D01*
X221634286Y-81883332D01*
X221539048Y-81930951D01*
X221491429Y-81978570D01*
X221443810Y-82073809D01*
X239959048Y-66102380D02*
X239959048Y-65102380D01*
X240340001Y-65102380D01*
X240435239Y-65149999D01*
X240482858Y-65197618D01*
X240530477Y-65292856D01*
X240530477Y-65435713D01*
X240482858Y-65530951D01*
X240435239Y-65578570D01*
X240340001Y-65626189D01*
X239959048Y-65626189D01*
X240911429Y-65197618D02*
X240959048Y-65149999D01*
X241054286Y-65102380D01*
X241292382Y-65102380D01*
X241387620Y-65149999D01*
X241435239Y-65197618D01*
X241482858Y-65292856D01*
X241482858Y-65388094D01*
X241435239Y-65530951D01*
X240863810Y-66102380D01*
X241482858Y-66102380D01*
X241816191Y-65102380D02*
X242482858Y-65102380D01*
X242054286Y-66102380D01*
X268329048Y-41502380D02*
X268329048Y-40502380D01*
X268710001Y-40502380D01*
X268805239Y-40549999D01*
X268852858Y-40597618D01*
X268900477Y-40692856D01*
X268900477Y-40835713D01*
X268852858Y-40930951D01*
X268805239Y-40978570D01*
X268710001Y-41026189D01*
X268329048Y-41026189D01*
X269281429Y-40597618D02*
X269329048Y-40549999D01*
X269424286Y-40502380D01*
X269662382Y-40502380D01*
X269757620Y-40549999D01*
X269805239Y-40597618D01*
X269852858Y-40692856D01*
X269852858Y-40788094D01*
X269805239Y-40930951D01*
X269233810Y-41502380D01*
X269852858Y-41502380D01*
X270424286Y-40930951D02*
X270329048Y-40883332D01*
X270281429Y-40835713D01*
X270233810Y-40740475D01*
X270233810Y-40692856D01*
X270281429Y-40597618D01*
X270329048Y-40549999D01*
X270424286Y-40502380D01*
X270614763Y-40502380D01*
X270710001Y-40549999D01*
X270757620Y-40597618D01*
X270805239Y-40692856D01*
X270805239Y-40740475D01*
X270757620Y-40835713D01*
X270710001Y-40883332D01*
X270614763Y-40930951D01*
X270424286Y-40930951D01*
X270329048Y-40978570D01*
X270281429Y-41026189D01*
X270233810Y-41121428D01*
X270233810Y-41311904D01*
X270281429Y-41407142D01*
X270329048Y-41454761D01*
X270424286Y-41502380D01*
X270614763Y-41502380D01*
X270710001Y-41454761D01*
X270757620Y-41407142D01*
X270805239Y-41311904D01*
X270805239Y-41121428D01*
X270757620Y-41026189D01*
X270710001Y-40978570D01*
X270614763Y-40930951D01*
X250169048Y-57902380D02*
X250169048Y-56902380D01*
X250550001Y-56902380D01*
X250645239Y-56949999D01*
X250692858Y-56997618D01*
X250740477Y-57092856D01*
X250740477Y-57235713D01*
X250692858Y-57330951D01*
X250645239Y-57378570D01*
X250550001Y-57426189D01*
X250169048Y-57426189D01*
X251121429Y-56997618D02*
X251169048Y-56949999D01*
X251264286Y-56902380D01*
X251502382Y-56902380D01*
X251597620Y-56949999D01*
X251645239Y-56997618D01*
X251692858Y-57092856D01*
X251692858Y-57188094D01*
X251645239Y-57330951D01*
X251073810Y-57902380D01*
X251692858Y-57902380D01*
X252169048Y-57902380D02*
X252359524Y-57902380D01*
X252454763Y-57854761D01*
X252502382Y-57807142D01*
X252597620Y-57664285D01*
X252645239Y-57473809D01*
X252645239Y-57092856D01*
X252597620Y-56997618D01*
X252550001Y-56949999D01*
X252454763Y-56902380D01*
X252264286Y-56902380D01*
X252169048Y-56949999D01*
X252121429Y-56997618D01*
X252073810Y-57092856D01*
X252073810Y-57330951D01*
X252121429Y-57426189D01*
X252169048Y-57473809D01*
X252264286Y-57521428D01*
X252454763Y-57521428D01*
X252550001Y-57473809D01*
X252597620Y-57426189D01*
X252645239Y-57330951D01*
X260379048Y-49702380D02*
X260379048Y-48702380D01*
X260760001Y-48702380D01*
X260855239Y-48749999D01*
X260902858Y-48797618D01*
X260950477Y-48892856D01*
X260950477Y-49035713D01*
X260902858Y-49130951D01*
X260855239Y-49178570D01*
X260760001Y-49226189D01*
X260379048Y-49226189D01*
X261283810Y-48702380D02*
X261902858Y-48702380D01*
X261569524Y-49083332D01*
X261712382Y-49083332D01*
X261807620Y-49130951D01*
X261855239Y-49178570D01*
X261902858Y-49273809D01*
X261902858Y-49511904D01*
X261855239Y-49607142D01*
X261807620Y-49654761D01*
X261712382Y-49702380D01*
X261426667Y-49702380D01*
X261331429Y-49654761D01*
X261283810Y-49607142D01*
X262521905Y-48702380D02*
X262617144Y-48702380D01*
X262712382Y-48749999D01*
X262760001Y-48797618D01*
X262807620Y-48892856D01*
X262855239Y-49083332D01*
X262855239Y-49321428D01*
X262807620Y-49511904D01*
X262760001Y-49607142D01*
X262712382Y-49654761D01*
X262617144Y-49702380D01*
X262521905Y-49702380D01*
X262426667Y-49654761D01*
X262379048Y-49607142D01*
X262331429Y-49511904D01*
X262283810Y-49321428D01*
X262283810Y-49083332D01*
X262331429Y-48892856D01*
X262379048Y-48797618D01*
X262426667Y-48749999D01*
X262521905Y-48702380D01*
X229749048Y-82502380D02*
X229749048Y-81502380D01*
X230130001Y-81502380D01*
X230225239Y-81549999D01*
X230272858Y-81597618D01*
X230320477Y-81692856D01*
X230320477Y-81835713D01*
X230272858Y-81930951D01*
X230225239Y-81978570D01*
X230130001Y-82026189D01*
X229749048Y-82026189D01*
X230653810Y-81502380D02*
X231272858Y-81502380D01*
X230939524Y-81883332D01*
X231082382Y-81883332D01*
X231177620Y-81930951D01*
X231225239Y-81978570D01*
X231272858Y-82073809D01*
X231272858Y-82311904D01*
X231225239Y-82407142D01*
X231177620Y-82454761D01*
X231082382Y-82502380D01*
X230796667Y-82502380D01*
X230701429Y-82454761D01*
X230653810Y-82407142D01*
X232225239Y-82502380D02*
X231653810Y-82502380D01*
X231939524Y-82502380D02*
X231939524Y-81502380D01*
X231844286Y-81645237D01*
X231749048Y-81740475D01*
X231653810Y-81788094D01*
X205229048Y-48892380D02*
X205229048Y-47892380D01*
X205610001Y-47892380D01*
X205705239Y-47939999D01*
X205752858Y-47987618D01*
X205800477Y-48082856D01*
X205800477Y-48225713D01*
X205752858Y-48320951D01*
X205705239Y-48368570D01*
X205610001Y-48416189D01*
X205229048Y-48416189D01*
X206133810Y-47892380D02*
X206752858Y-47892380D01*
X206419524Y-48273332D01*
X206562382Y-48273332D01*
X206657620Y-48320951D01*
X206705239Y-48368570D01*
X206752858Y-48463809D01*
X206752858Y-48701904D01*
X206705239Y-48797142D01*
X206657620Y-48844761D01*
X206562382Y-48892380D01*
X206276667Y-48892380D01*
X206181429Y-48844761D01*
X206133810Y-48797142D01*
X207133810Y-47987618D02*
X207181429Y-47939999D01*
X207276667Y-47892380D01*
X207514763Y-47892380D01*
X207610001Y-47939999D01*
X207657620Y-47987618D01*
X207705239Y-48082856D01*
X207705239Y-48178094D01*
X207657620Y-48320951D01*
X207086191Y-48892380D01*
X207705239Y-48892380D01*
X239959048Y-74302380D02*
X239959048Y-73302380D01*
X240340001Y-73302380D01*
X240435239Y-73349999D01*
X240482858Y-73397618D01*
X240530477Y-73492856D01*
X240530477Y-73635713D01*
X240482858Y-73730951D01*
X240435239Y-73778570D01*
X240340001Y-73826189D01*
X239959048Y-73826189D01*
X240863810Y-73302380D02*
X241482858Y-73302380D01*
X241149524Y-73683332D01*
X241292382Y-73683332D01*
X241387620Y-73730951D01*
X241435239Y-73778570D01*
X241482858Y-73873809D01*
X241482858Y-74111904D01*
X241435239Y-74207142D01*
X241387620Y-74254761D01*
X241292382Y-74302380D01*
X241006667Y-74302380D01*
X240911429Y-74254761D01*
X240863810Y-74207142D01*
X241816191Y-73302380D02*
X242435239Y-73302380D01*
X242101905Y-73683332D01*
X242244763Y-73683332D01*
X242340001Y-73730951D01*
X242387620Y-73778570D01*
X242435239Y-73873809D01*
X242435239Y-74111904D01*
X242387620Y-74207142D01*
X242340001Y-74254761D01*
X242244763Y-74302380D01*
X241959048Y-74302380D01*
X241863810Y-74254761D01*
X241816191Y-74207142D01*
X250169048Y-66102380D02*
X250169048Y-65102380D01*
X250550001Y-65102380D01*
X250645239Y-65149999D01*
X250692858Y-65197618D01*
X250740477Y-65292856D01*
X250740477Y-65435713D01*
X250692858Y-65530951D01*
X250645239Y-65578570D01*
X250550001Y-65626189D01*
X250169048Y-65626189D01*
X251073810Y-65102380D02*
X251692858Y-65102380D01*
X251359524Y-65483332D01*
X251502382Y-65483332D01*
X251597620Y-65530951D01*
X251645239Y-65578570D01*
X251692858Y-65673809D01*
X251692858Y-65911904D01*
X251645239Y-66007142D01*
X251597620Y-66054761D01*
X251502382Y-66102380D01*
X251216667Y-66102380D01*
X251121429Y-66054761D01*
X251073810Y-66007142D01*
X252550001Y-65435713D02*
X252550001Y-66102380D01*
X252311905Y-65054761D02*
X252073810Y-65769047D01*
X252692858Y-65769047D01*
X260379048Y-57902380D02*
X260379048Y-56902380D01*
X260760001Y-56902380D01*
X260855239Y-56949999D01*
X260902858Y-56997618D01*
X260950477Y-57092856D01*
X260950477Y-57235713D01*
X260902858Y-57330951D01*
X260855239Y-57378570D01*
X260760001Y-57426189D01*
X260379048Y-57426189D01*
X261283810Y-56902380D02*
X261902858Y-56902380D01*
X261569524Y-57283332D01*
X261712382Y-57283332D01*
X261807620Y-57330951D01*
X261855239Y-57378570D01*
X261902858Y-57473809D01*
X261902858Y-57711904D01*
X261855239Y-57807142D01*
X261807620Y-57854761D01*
X261712382Y-57902380D01*
X261426667Y-57902380D01*
X261331429Y-57854761D01*
X261283810Y-57807142D01*
X262807620Y-56902380D02*
X262331429Y-56902380D01*
X262283810Y-57378570D01*
X262331429Y-57330951D01*
X262426667Y-57283332D01*
X262664763Y-57283332D01*
X262760001Y-57330951D01*
X262807620Y-57378570D01*
X262855239Y-57473809D01*
X262855239Y-57711904D01*
X262807620Y-57807142D01*
X262760001Y-57854761D01*
X262664763Y-57902380D01*
X262426667Y-57902380D01*
X262331429Y-57854761D01*
X262283810Y-57807142D01*
X239959048Y-82502380D02*
X239959048Y-81502380D01*
X240340001Y-81502380D01*
X240435239Y-81549999D01*
X240482858Y-81597618D01*
X240530477Y-81692856D01*
X240530477Y-81835713D01*
X240482858Y-81930951D01*
X240435239Y-81978570D01*
X240340001Y-82026189D01*
X239959048Y-82026189D01*
X240863810Y-81502380D02*
X241482858Y-81502380D01*
X241149524Y-81883332D01*
X241292382Y-81883332D01*
X241387620Y-81930951D01*
X241435239Y-81978570D01*
X241482858Y-82073809D01*
X241482858Y-82311904D01*
X241435239Y-82407142D01*
X241387620Y-82454761D01*
X241292382Y-82502380D01*
X241006667Y-82502380D01*
X240911429Y-82454761D01*
X240863810Y-82407142D01*
X242340001Y-81502380D02*
X242149524Y-81502380D01*
X242054286Y-81549999D01*
X242006667Y-81597618D01*
X241911429Y-81740475D01*
X241863810Y-81930951D01*
X241863810Y-82311904D01*
X241911429Y-82407142D01*
X241959048Y-82454761D01*
X242054286Y-82502380D01*
X242244763Y-82502380D01*
X242340001Y-82454761D01*
X242387620Y-82407142D01*
X242435239Y-82311904D01*
X242435239Y-82073809D01*
X242387620Y-81978570D01*
X242340001Y-81930951D01*
X242244763Y-81883332D01*
X242054286Y-81883332D01*
X241959048Y-81930951D01*
X241911429Y-81978570D01*
X241863810Y-82073809D01*
X250169048Y-74302380D02*
X250169048Y-73302380D01*
X250550001Y-73302380D01*
X250645239Y-73349999D01*
X250692858Y-73397618D01*
X250740477Y-73492856D01*
X250740477Y-73635713D01*
X250692858Y-73730951D01*
X250645239Y-73778570D01*
X250550001Y-73826189D01*
X250169048Y-73826189D01*
X251073810Y-73302380D02*
X251692858Y-73302380D01*
X251359524Y-73683332D01*
X251502382Y-73683332D01*
X251597620Y-73730951D01*
X251645239Y-73778570D01*
X251692858Y-73873809D01*
X251692858Y-74111904D01*
X251645239Y-74207142D01*
X251597620Y-74254761D01*
X251502382Y-74302380D01*
X251216667Y-74302380D01*
X251121429Y-74254761D01*
X251073810Y-74207142D01*
X252026191Y-73302380D02*
X252692858Y-73302380D01*
X252264286Y-74302380D01*
X108833334Y-51152381D02*
X108500000Y-50676190D01*
X108261905Y-51152381D02*
X108261905Y-50152381D01*
X108642858Y-50152381D01*
X108738096Y-50200000D01*
X108785715Y-50247619D01*
X108833334Y-50342857D01*
X108833334Y-50485714D01*
X108785715Y-50580952D01*
X108738096Y-50628571D01*
X108642858Y-50676190D01*
X108261905Y-50676190D01*
X109785715Y-51152381D02*
X109214286Y-51152381D01*
X109500000Y-51152381D02*
X109500000Y-50152381D01*
X109404762Y-50295238D01*
X109309524Y-50390476D01*
X109214286Y-50438095D01*
X108833334Y-61152381D02*
X108500000Y-60676190D01*
X108261905Y-61152381D02*
X108261905Y-60152381D01*
X108642858Y-60152381D01*
X108738096Y-60200000D01*
X108785715Y-60247619D01*
X108833334Y-60342857D01*
X108833334Y-60485714D01*
X108785715Y-60580952D01*
X108738096Y-60628571D01*
X108642858Y-60676190D01*
X108261905Y-60676190D01*
X109214286Y-60247619D02*
X109261905Y-60200000D01*
X109357143Y-60152381D01*
X109595239Y-60152381D01*
X109690477Y-60200000D01*
X109738096Y-60247619D01*
X109785715Y-60342857D01*
X109785715Y-60438095D01*
X109738096Y-60580952D01*
X109166667Y-61152381D01*
X109785715Y-61152381D01*
X116833334Y-69152381D02*
X116500000Y-68676190D01*
X116261905Y-69152381D02*
X116261905Y-68152381D01*
X116642858Y-68152381D01*
X116738096Y-68200000D01*
X116785715Y-68247619D01*
X116833334Y-68342857D01*
X116833334Y-68485714D01*
X116785715Y-68580952D01*
X116738096Y-68628571D01*
X116642858Y-68676190D01*
X116261905Y-68676190D01*
X117166667Y-68152381D02*
X117785715Y-68152381D01*
X117452381Y-68533333D01*
X117595239Y-68533333D01*
X117690477Y-68580952D01*
X117738096Y-68628571D01*
X117785715Y-68723810D01*
X117785715Y-68961905D01*
X117738096Y-69057143D01*
X117690477Y-69104762D01*
X117595239Y-69152381D01*
X117309524Y-69152381D01*
X117214286Y-69104762D01*
X117166667Y-69057143D01*
X79176190Y-60476191D02*
X79652381Y-60476191D01*
X78652381Y-60809524D02*
X79176190Y-60476191D01*
X78652381Y-60142857D01*
X79652381Y-59285714D02*
X79652381Y-59857143D01*
X79652381Y-59571429D02*
X78652381Y-59571429D01*
X78795238Y-59666667D01*
X78890476Y-59761905D01*
X78938095Y-59857143D01*
M02*
