G04 #@! TF.FileFunction,Legend,Bot*
%FSLAX46Y46*%
G04 Gerber Fmt 4.6, Leading zero omitted, Abs format (unit mm)*
G04 Created by KiCad (PCBNEW 4.0.4+dfsg1-stable) date Wed Feb 22 18:47:58 2017*
%MOMM*%
%LPD*%
G01*
G04 APERTURE LIST*
%ADD10C,0.100000*%
%ADD11C,0.150000*%
%ADD12C,0.127000*%
G04 APERTURE END LIST*
D10*
D11*
X93634000Y-64375000D02*
X94834000Y-64375000D01*
X94834000Y-62625000D02*
X93634000Y-62625000D01*
X84607400Y-59639200D02*
X76200000Y-59639200D01*
X84607400Y-67360800D02*
X76200000Y-67360800D01*
X76200000Y-59664600D02*
X76200000Y-67335400D01*
X76410820Y-67350640D02*
X76410820Y-59649360D01*
X84609940Y-59649360D02*
X84609940Y-67350640D01*
X85930000Y-60900000D02*
X85930000Y-65200000D01*
X89330000Y-66150000D02*
X89330000Y-60900000D01*
X91782000Y-61222000D02*
X91782000Y-62222000D01*
X90082000Y-62222000D02*
X90082000Y-61222000D01*
X90082000Y-65778000D02*
X90082000Y-64778000D01*
X91782000Y-64778000D02*
X91782000Y-65778000D01*
X94718000Y-70065000D02*
X93718000Y-70065000D01*
X93718000Y-68365000D02*
X94718000Y-68365000D01*
X93718000Y-56935000D02*
X94718000Y-56935000D01*
X94718000Y-58635000D02*
X93718000Y-58635000D01*
X94900000Y-65165000D02*
X93700000Y-65165000D01*
X93700000Y-66915000D02*
X94900000Y-66915000D01*
X93634000Y-61835000D02*
X94834000Y-61835000D01*
X94834000Y-60085000D02*
X93634000Y-60085000D01*
X94400666Y-61852381D02*
X94734000Y-61376190D01*
X94972095Y-61852381D02*
X94972095Y-60852381D01*
X94591142Y-60852381D01*
X94495904Y-60900000D01*
X94448285Y-60947619D01*
X94400666Y-61042857D01*
X94400666Y-61185714D01*
X94448285Y-61280952D01*
X94495904Y-61328571D01*
X94591142Y-61376190D01*
X94972095Y-61376190D01*
X94019714Y-60947619D02*
X93972095Y-60900000D01*
X93876857Y-60852381D01*
X93638761Y-60852381D01*
X93543523Y-60900000D01*
X93495904Y-60947619D01*
X93448285Y-61042857D01*
X93448285Y-61138095D01*
X93495904Y-61280952D01*
X94067333Y-61852381D01*
X93448285Y-61852381D01*
D12*
X87607957Y-63064143D02*
X87970814Y-63064143D01*
X87208814Y-62810143D02*
X87607957Y-63064143D01*
X87208814Y-63318143D01*
X87970814Y-63971286D02*
X87970814Y-63535858D01*
X87970814Y-63753572D02*
X87208814Y-63753572D01*
X87317671Y-63681001D01*
X87390243Y-63608429D01*
X87426529Y-63535858D01*
D11*
X93389143Y-61555334D02*
X93436762Y-61507715D01*
X93484381Y-61364858D01*
X93484381Y-61269620D01*
X93436762Y-61126762D01*
X93341524Y-61031524D01*
X93246286Y-60983905D01*
X93055810Y-60936286D01*
X92912952Y-60936286D01*
X92722476Y-60983905D01*
X92627238Y-61031524D01*
X92532000Y-61126762D01*
X92484381Y-61269620D01*
X92484381Y-61364858D01*
X92532000Y-61507715D01*
X92579619Y-61555334D01*
X93484381Y-62507715D02*
X93484381Y-61936286D01*
X93484381Y-62222000D02*
X92484381Y-62222000D01*
X92627238Y-62126762D01*
X92722476Y-62031524D01*
X92770095Y-61936286D01*
X89189143Y-65111334D02*
X89236762Y-65063715D01*
X89284381Y-64920858D01*
X89284381Y-64825620D01*
X89236762Y-64682762D01*
X89141524Y-64587524D01*
X89046286Y-64539905D01*
X88855810Y-64492286D01*
X88712952Y-64492286D01*
X88522476Y-64539905D01*
X88427238Y-64587524D01*
X88332000Y-64682762D01*
X88284381Y-64825620D01*
X88284381Y-64920858D01*
X88332000Y-65063715D01*
X88379619Y-65111334D01*
X88379619Y-65492286D02*
X88332000Y-65539905D01*
X88284381Y-65635143D01*
X88284381Y-65873239D01*
X88332000Y-65968477D01*
X88379619Y-66016096D01*
X88474857Y-66063715D01*
X88570095Y-66063715D01*
X88712952Y-66016096D01*
X89284381Y-65444667D01*
X89284381Y-66063715D01*
X94384666Y-71672143D02*
X94432285Y-71719762D01*
X94575142Y-71767381D01*
X94670380Y-71767381D01*
X94813238Y-71719762D01*
X94908476Y-71624524D01*
X94956095Y-71529286D01*
X95003714Y-71338810D01*
X95003714Y-71195952D01*
X94956095Y-71005476D01*
X94908476Y-70910238D01*
X94813238Y-70815000D01*
X94670380Y-70767381D01*
X94575142Y-70767381D01*
X94432285Y-70815000D01*
X94384666Y-70862619D01*
X94051333Y-70767381D02*
X93432285Y-70767381D01*
X93765619Y-71148333D01*
X93622761Y-71148333D01*
X93527523Y-71195952D01*
X93479904Y-71243571D01*
X93432285Y-71338810D01*
X93432285Y-71576905D01*
X93479904Y-71672143D01*
X93527523Y-71719762D01*
X93622761Y-71767381D01*
X93908476Y-71767381D01*
X94003714Y-71719762D01*
X94051333Y-71672143D01*
X94384666Y-56042143D02*
X94432285Y-56089762D01*
X94575142Y-56137381D01*
X94670380Y-56137381D01*
X94813238Y-56089762D01*
X94908476Y-55994524D01*
X94956095Y-55899286D01*
X95003714Y-55708810D01*
X95003714Y-55565952D01*
X94956095Y-55375476D01*
X94908476Y-55280238D01*
X94813238Y-55185000D01*
X94670380Y-55137381D01*
X94575142Y-55137381D01*
X94432285Y-55185000D01*
X94384666Y-55232619D01*
X93527523Y-55470714D02*
X93527523Y-56137381D01*
X93765619Y-55089762D02*
X94003714Y-55804048D01*
X93384666Y-55804048D01*
X94466666Y-68592381D02*
X94800000Y-68116190D01*
X95038095Y-68592381D02*
X95038095Y-67592381D01*
X94657142Y-67592381D01*
X94561904Y-67640000D01*
X94514285Y-67687619D01*
X94466666Y-67782857D01*
X94466666Y-67925714D01*
X94514285Y-68020952D01*
X94561904Y-68068571D01*
X94657142Y-68116190D01*
X95038095Y-68116190D01*
X93514285Y-68592381D02*
X94085714Y-68592381D01*
X93800000Y-68592381D02*
X93800000Y-67592381D01*
X93895238Y-67735238D01*
X93990476Y-67830476D01*
X94085714Y-67878095D01*
X94400666Y-59312381D02*
X94734000Y-58836190D01*
X94972095Y-59312381D02*
X94972095Y-58312381D01*
X94591142Y-58312381D01*
X94495904Y-58360000D01*
X94448285Y-58407619D01*
X94400666Y-58502857D01*
X94400666Y-58645714D01*
X94448285Y-58740952D01*
X94495904Y-58788571D01*
X94591142Y-58836190D01*
X94972095Y-58836190D01*
X94067333Y-58312381D02*
X93448285Y-58312381D01*
X93781619Y-58693333D01*
X93638761Y-58693333D01*
X93543523Y-58740952D01*
X93495904Y-58788571D01*
X93448285Y-58883810D01*
X93448285Y-59121905D01*
X93495904Y-59217143D01*
X93543523Y-59264762D01*
X93638761Y-59312381D01*
X93924476Y-59312381D01*
X94019714Y-59264762D01*
X94067333Y-59217143D01*
M02*
