G04 #@! TF.FileFunction,Copper,L2,Bot,Signal*
%FSLAX46Y46*%
G04 Gerber Fmt 4.6, Leading zero omitted, Abs format (unit mm)*
G04 Created by KiCad (PCBNEW 4.0.5+dfsg1-4~bpo8+1) date Sun Apr  9 12:19:58 2017*
%MOMM*%
%LPD*%
G01*
G04 APERTURE LIST*
%ADD10C,0.100000*%
%ADD11R,0.700000X1.300000*%
%ADD12R,2.301240X0.500380*%
%ADD13R,2.499360X1.998980*%
%ADD14R,0.914400X0.914400*%
%ADD15C,0.914400*%
%ADD16O,1.016000X0.914400*%
%ADD17R,2.400000X2.000000*%
%ADD18R,1.250000X1.000000*%
%ADD19R,1.000000X1.250000*%
%ADD20C,0.660400*%
%ADD21C,0.254000*%
G04 APERTURE END LIST*
D10*
D11*
X95184000Y-63500000D03*
X93284000Y-63500000D03*
D12*
X83459320Y-65100200D03*
X83459320Y-64300100D03*
X83459320Y-63500000D03*
X83459320Y-62699900D03*
X83459320Y-61899800D03*
D13*
X83360260Y-67950080D03*
X77861160Y-67950080D03*
X83360260Y-59049920D03*
X77861160Y-59049920D03*
D14*
X100330000Y-52070000D03*
X100330000Y-54610000D03*
D15*
X92710000Y-54610000D03*
D14*
X97790000Y-52070000D03*
D15*
X95250000Y-54610000D03*
D14*
X95250000Y-52070000D03*
D15*
X92710000Y-52070000D03*
X97790000Y-54610000D03*
X90170000Y-54610000D03*
X90170000Y-52070000D03*
X87630000Y-52070000D03*
X87630000Y-54610000D03*
X85090000Y-54610000D03*
X85090000Y-52070000D03*
X82550000Y-54610000D03*
X82550000Y-52070000D03*
X80010000Y-54610000D03*
X80010000Y-52070000D03*
X77470000Y-52070000D03*
X77470000Y-54610000D03*
D16*
X95250000Y-74930000D03*
D15*
X97790000Y-72390000D03*
D16*
X100330000Y-74930000D03*
X97790000Y-74930000D03*
D15*
X95250000Y-72390000D03*
X92710000Y-72390000D03*
X100330000Y-72390000D03*
X90170000Y-72390000D03*
X92710000Y-74930000D03*
X87630000Y-72390000D03*
X90170000Y-74930000D03*
X85090000Y-72390000D03*
X87630000Y-74930000D03*
X80010000Y-72390000D03*
X77470000Y-72390000D03*
X85090000Y-74930000D03*
X82550000Y-74930000D03*
X77470000Y-74930000D03*
X82550000Y-72390000D03*
X80010000Y-74930000D03*
D17*
X87630000Y-65550000D03*
X87630000Y-61450000D03*
D18*
X90932000Y-62722000D03*
X90932000Y-60722000D03*
X90932000Y-64278000D03*
X90932000Y-66278000D03*
D19*
X93218000Y-69215000D03*
X95218000Y-69215000D03*
X95218000Y-57785000D03*
X93218000Y-57785000D03*
D11*
X93350000Y-66040000D03*
X95250000Y-66040000D03*
X95184000Y-60960000D03*
X93284000Y-60960000D03*
D20*
X91999568Y-60755796D03*
X89534704Y-63067256D03*
X96118069Y-63500000D03*
X90500479Y-56489491D03*
X96848916Y-68325323D03*
X97677455Y-58646501D03*
X86508794Y-59467055D03*
X85622764Y-59050174D03*
X85545377Y-67843017D03*
X98139626Y-65411772D03*
X99034600Y-63195200D03*
X84911570Y-56312146D03*
X93141082Y-66981063D03*
X92760800Y-64516000D03*
X97536000Y-67005200D03*
D21*
X90932000Y-64278000D02*
X90932000Y-64854646D01*
X90932000Y-64854646D02*
X91192170Y-65114816D01*
X91192170Y-65114816D02*
X91790935Y-65114816D01*
X91790935Y-65114816D02*
X92336700Y-65660581D01*
X92557600Y-69215000D02*
X93218000Y-69215000D01*
X92336700Y-65660581D02*
X92336700Y-68994100D01*
X92336700Y-68994100D02*
X92557600Y-69215000D01*
X92974609Y-59746609D02*
X92669830Y-59441830D01*
X92669830Y-59441830D02*
X92170789Y-59441830D01*
X92170789Y-59441830D02*
X90525389Y-57796430D01*
X90525389Y-57796430D02*
X84863940Y-57796430D01*
X84863940Y-57796430D02*
X83610450Y-59049920D01*
X83610450Y-59049920D02*
X83360260Y-59049920D01*
X93284000Y-59733576D02*
X93472000Y-59545576D01*
X93472000Y-59545576D02*
X93581576Y-59436000D01*
X92974609Y-59746609D02*
X93270967Y-59746609D01*
X93270967Y-59746609D02*
X93472000Y-59545576D01*
X93284000Y-60056000D02*
X93284000Y-59733576D01*
X95218000Y-58859500D02*
X95218000Y-57785000D01*
X93581576Y-59436000D02*
X94641500Y-59436000D01*
X94641500Y-59436000D02*
X95218000Y-58859500D01*
X93284000Y-60056000D02*
X92974609Y-59746609D01*
X83459300Y-61899800D02*
X81991200Y-61899800D01*
X79756000Y-62687200D02*
X77861160Y-64582040D01*
X81991200Y-61899800D02*
X81203800Y-62687200D01*
X81203800Y-62687200D02*
X79756000Y-62687200D01*
X77861160Y-64582040D02*
X77861160Y-67950080D01*
X83459320Y-61899800D02*
X83459320Y-59148980D01*
X83459320Y-59148980D02*
X83360260Y-59049920D01*
X77861160Y-67950080D02*
X79364840Y-67950080D01*
X79364840Y-67950080D02*
X83360260Y-67950080D01*
X84181572Y-58228628D02*
X83360300Y-59049900D01*
X95218000Y-57785000D02*
X95218000Y-56641827D01*
X94008892Y-55432719D02*
X94008892Y-53749940D01*
X95218000Y-56641827D02*
X94008892Y-55432719D01*
X94008892Y-53749940D02*
X95250000Y-52508832D01*
X95250000Y-52508832D02*
X95250000Y-52489200D01*
X95250000Y-52489200D02*
X95250000Y-52070000D01*
X93284000Y-60960000D02*
X93284000Y-60056000D01*
X90932000Y-62722000D02*
X91938300Y-62722000D01*
X77861200Y-59049900D02*
X83360300Y-59049900D01*
X93055400Y-60960000D02*
X93284000Y-60960000D01*
X93055400Y-61604900D02*
X93055400Y-60960000D01*
X91938300Y-62722000D02*
X93055400Y-61604900D01*
X90932000Y-62722000D02*
X90932000Y-64278000D01*
X91965772Y-60722000D02*
X91999568Y-60755796D01*
X90932000Y-60722000D02*
X91965772Y-60722000D01*
X89925700Y-60735600D02*
X89211300Y-61450000D01*
X89925700Y-60722000D02*
X89925700Y-60735600D01*
X87630000Y-61450000D02*
X89211300Y-61450000D01*
X90932000Y-60722000D02*
X89925700Y-60722000D01*
X89534704Y-63534229D02*
X89534704Y-63067256D01*
X89534704Y-65226596D02*
X89534704Y-63534229D01*
X89211300Y-65550000D02*
X89534704Y-65226596D01*
X89925700Y-66264400D02*
X89211300Y-65550000D01*
X89925700Y-66278000D02*
X89925700Y-66264400D01*
X90932000Y-66278000D02*
X89925700Y-66278000D01*
X87630000Y-65550000D02*
X89084200Y-65550000D01*
X89084200Y-65550000D02*
X89211300Y-65550000D01*
X95184000Y-63500000D02*
X96118069Y-63500000D01*
X95218000Y-69340000D02*
X95218000Y-69215000D01*
X85550260Y-65739153D02*
X85550260Y-66702546D01*
X84911307Y-65100200D02*
X85550260Y-65739153D01*
X83459300Y-65100200D02*
X84911307Y-65100200D01*
X85550260Y-66702546D02*
X89879946Y-71032232D01*
X89879946Y-71032232D02*
X93954600Y-71032232D01*
X93954600Y-71032232D02*
X94905968Y-71032232D01*
X95218000Y-70720200D02*
X95218000Y-69215000D01*
X94905968Y-71032232D02*
X95218000Y-70720200D01*
X93954600Y-73634600D02*
X93954600Y-71032232D01*
X95250000Y-74930000D02*
X93954600Y-73634600D01*
X91795988Y-57785000D02*
X90830678Y-56819690D01*
X90830678Y-56819690D02*
X90500479Y-56489491D01*
X93218000Y-57785000D02*
X91795988Y-57785000D01*
X95250000Y-66040000D02*
X95250000Y-66944000D01*
X95250000Y-66944000D02*
X95920800Y-67614800D01*
X95920800Y-67614800D02*
X96266000Y-67614800D01*
X96266000Y-67614800D02*
X96848916Y-68197716D01*
X96848916Y-68197716D02*
X96848916Y-68325323D01*
X95184000Y-60660000D02*
X97197499Y-58646501D01*
X95184000Y-60960000D02*
X95184000Y-60660000D01*
X97210482Y-58646501D02*
X97677455Y-58646501D01*
X97197499Y-58646501D02*
X97210482Y-58646501D01*
X86178595Y-59797254D02*
X86508794Y-59467055D01*
X85794999Y-60180850D02*
X86178595Y-59797254D01*
X85794999Y-63496301D02*
X85794999Y-60180850D01*
X83459300Y-64300100D02*
X84991200Y-64300100D01*
X84991200Y-64300100D02*
X85794999Y-63496301D01*
X83459300Y-63500000D02*
X84991200Y-63500000D01*
X84991200Y-63500000D02*
X85267800Y-63223400D01*
X85267800Y-63223400D02*
X85267800Y-59405138D01*
X85267800Y-59405138D02*
X85292565Y-59380373D01*
X85292565Y-59380373D02*
X85622764Y-59050174D01*
X85545377Y-68309990D02*
X85545377Y-67843017D01*
X85545377Y-69295613D02*
X85545377Y-68309990D01*
X84879717Y-69961273D02*
X85545377Y-69295613D01*
X82878625Y-69961273D02*
X84879717Y-69961273D01*
X81280000Y-71559898D02*
X82878625Y-69961273D01*
X81280000Y-73660000D02*
X81280000Y-71559898D01*
X80010000Y-74930000D02*
X81280000Y-73660000D01*
X100330000Y-67602146D02*
X98469825Y-65741971D01*
X100330000Y-72390000D02*
X100330000Y-67602146D01*
X98469825Y-65741971D02*
X98139626Y-65411772D01*
X99034600Y-62728227D02*
X99034600Y-63195200D01*
X99034600Y-58394600D02*
X99034600Y-62728227D01*
X95250000Y-54610000D02*
X99034600Y-58394600D01*
X83820000Y-55220576D02*
X84581371Y-55981947D01*
X83820000Y-53340000D02*
X83820000Y-55220576D01*
X82550000Y-52070000D02*
X83820000Y-53340000D01*
X84581371Y-55981947D02*
X84911570Y-56312146D01*
X93312937Y-66981063D02*
X93141082Y-66981063D01*
X93350000Y-66944000D02*
X93312937Y-66981063D01*
X93350000Y-66040000D02*
X93350000Y-66944000D01*
X93284000Y-63200000D02*
X93284000Y-63500000D01*
X96733656Y-62230000D02*
X94254000Y-62230000D01*
X97205801Y-66675001D02*
X97205801Y-62702145D01*
X97536000Y-67005200D02*
X97205801Y-66675001D01*
X94254000Y-62230000D02*
X93284000Y-63200000D01*
X97205801Y-62702145D02*
X96733656Y-62230000D01*
X92760800Y-64516000D02*
X92760800Y-64023200D01*
X92760800Y-64023200D02*
X93284000Y-63500000D01*
G36*
X79235262Y-51551358D02*
X79095759Y-51887317D01*
X79095442Y-52251087D01*
X79234358Y-52587289D01*
X79491358Y-52844738D01*
X79827317Y-52984241D01*
X80191087Y-52984558D01*
X80527289Y-52845642D01*
X80784738Y-52588642D01*
X80924241Y-52252683D01*
X80924558Y-51888913D01*
X80785642Y-51552711D01*
X80583860Y-51350576D01*
X81976395Y-51350576D01*
X81775262Y-51551358D01*
X81635759Y-51887317D01*
X81635442Y-52251087D01*
X81774358Y-52587289D01*
X82031358Y-52844738D01*
X82367317Y-52984241D01*
X82638293Y-52984477D01*
X83235800Y-53581984D01*
X83235800Y-54002712D01*
X83068642Y-53835262D01*
X82732683Y-53695759D01*
X82368913Y-53695442D01*
X82032711Y-53834358D01*
X81775262Y-54091358D01*
X81635759Y-54427317D01*
X81635442Y-54791087D01*
X81774358Y-55127289D01*
X82031358Y-55384738D01*
X82367317Y-55524241D01*
X82731087Y-55524558D01*
X83067289Y-55385642D01*
X83235800Y-55217425D01*
X83235800Y-55220576D01*
X83280270Y-55444140D01*
X83334038Y-55524610D01*
X83406908Y-55633668D01*
X84124136Y-56350896D01*
X84124034Y-56468082D01*
X84243656Y-56757590D01*
X84464961Y-56979282D01*
X84754259Y-57099409D01*
X85067506Y-57099682D01*
X85357014Y-56980060D01*
X85578706Y-56758755D01*
X85625763Y-56645427D01*
X89712943Y-56645427D01*
X89832565Y-56934935D01*
X90053870Y-57156627D01*
X90343168Y-57276754D01*
X90461661Y-57276857D01*
X91382894Y-58198089D01*
X91382896Y-58198092D01*
X91572424Y-58324730D01*
X91795988Y-58369200D01*
X92251843Y-58369200D01*
X92251843Y-58410000D01*
X92283723Y-58579428D01*
X92383855Y-58735038D01*
X92536639Y-58839430D01*
X92718000Y-58876157D01*
X93718000Y-58876157D01*
X93887428Y-58844277D01*
X94043038Y-58744145D01*
X94121514Y-58629291D01*
X94179673Y-58769699D01*
X94358302Y-58948327D01*
X94591691Y-59045000D01*
X94932250Y-59045000D01*
X95091000Y-58886250D01*
X95091000Y-57912000D01*
X95071000Y-57912000D01*
X95071000Y-57658000D01*
X95091000Y-57658000D01*
X95091000Y-56683750D01*
X95345000Y-56683750D01*
X95345000Y-57658000D01*
X96194250Y-57658000D01*
X96353000Y-57499250D01*
X96353000Y-57033690D01*
X96256327Y-56800301D01*
X96077698Y-56621673D01*
X95844309Y-56525000D01*
X95503750Y-56525000D01*
X95345000Y-56683750D01*
X95091000Y-56683750D01*
X94932250Y-56525000D01*
X94591691Y-56525000D01*
X94358302Y-56621673D01*
X94179673Y-56800301D01*
X94120996Y-56941960D01*
X94052145Y-56834962D01*
X93899361Y-56730570D01*
X93718000Y-56693843D01*
X92718000Y-56693843D01*
X92548572Y-56725723D01*
X92392962Y-56825855D01*
X92288570Y-56978639D01*
X92251843Y-57160000D01*
X92251843Y-57200800D01*
X92037971Y-57200800D01*
X91287913Y-56450741D01*
X91288015Y-56333555D01*
X91168393Y-56044047D01*
X90947088Y-55822355D01*
X90657790Y-55702228D01*
X90344543Y-55701955D01*
X90055035Y-55821577D01*
X89833343Y-56042882D01*
X89713216Y-56332180D01*
X89712943Y-56645427D01*
X85625763Y-56645427D01*
X85698833Y-56469457D01*
X85699106Y-56156210D01*
X85579484Y-55866702D01*
X85358179Y-55645010D01*
X85068881Y-55524883D01*
X84950388Y-55524780D01*
X84949886Y-55524278D01*
X85271087Y-55524558D01*
X85607289Y-55385642D01*
X85864738Y-55128642D01*
X86004241Y-54792683D01*
X86004242Y-54791087D01*
X86715442Y-54791087D01*
X86854358Y-55127289D01*
X87111358Y-55384738D01*
X87447317Y-55524241D01*
X87811087Y-55524558D01*
X88147289Y-55385642D01*
X88404738Y-55128642D01*
X88544241Y-54792683D01*
X88544242Y-54791087D01*
X89255442Y-54791087D01*
X89394358Y-55127289D01*
X89651358Y-55384738D01*
X89987317Y-55524241D01*
X90351087Y-55524558D01*
X90687289Y-55385642D01*
X90944738Y-55128642D01*
X91084241Y-54792683D01*
X91084242Y-54791087D01*
X91795442Y-54791087D01*
X91934358Y-55127289D01*
X92191358Y-55384738D01*
X92527317Y-55524241D01*
X92891087Y-55524558D01*
X93227289Y-55385642D01*
X93484738Y-55128642D01*
X93624241Y-54792683D01*
X93624558Y-54428913D01*
X93485642Y-54092711D01*
X93228642Y-53835262D01*
X92892683Y-53695759D01*
X92528913Y-53695442D01*
X92192711Y-53834358D01*
X91935262Y-54091358D01*
X91795759Y-54427317D01*
X91795442Y-54791087D01*
X91084242Y-54791087D01*
X91084558Y-54428913D01*
X90945642Y-54092711D01*
X90688642Y-53835262D01*
X90352683Y-53695759D01*
X89988913Y-53695442D01*
X89652711Y-53834358D01*
X89395262Y-54091358D01*
X89255759Y-54427317D01*
X89255442Y-54791087D01*
X88544242Y-54791087D01*
X88544558Y-54428913D01*
X88405642Y-54092711D01*
X88148642Y-53835262D01*
X87812683Y-53695759D01*
X87448913Y-53695442D01*
X87112711Y-53834358D01*
X86855262Y-54091358D01*
X86715759Y-54427317D01*
X86715442Y-54791087D01*
X86004242Y-54791087D01*
X86004558Y-54428913D01*
X85865642Y-54092711D01*
X85608642Y-53835262D01*
X85272683Y-53695759D01*
X84908913Y-53695442D01*
X84572711Y-53834358D01*
X84404200Y-54002575D01*
X84404200Y-53340000D01*
X84359730Y-53116436D01*
X84233092Y-52926908D01*
X83464323Y-52158139D01*
X83464558Y-51888913D01*
X83325642Y-51552711D01*
X83123860Y-51350576D01*
X84516395Y-51350576D01*
X84315262Y-51551358D01*
X84175759Y-51887317D01*
X84175442Y-52251087D01*
X84314358Y-52587289D01*
X84571358Y-52844738D01*
X84907317Y-52984241D01*
X85271087Y-52984558D01*
X85607289Y-52845642D01*
X85864738Y-52588642D01*
X86004241Y-52252683D01*
X86004558Y-51888913D01*
X85865642Y-51552711D01*
X85663860Y-51350576D01*
X87056395Y-51350576D01*
X86855262Y-51551358D01*
X86715759Y-51887317D01*
X86715442Y-52251087D01*
X86854358Y-52587289D01*
X87111358Y-52844738D01*
X87447317Y-52984241D01*
X87811087Y-52984558D01*
X88147289Y-52845642D01*
X88404738Y-52588642D01*
X88544241Y-52252683D01*
X88544558Y-51888913D01*
X88405642Y-51552711D01*
X88203860Y-51350576D01*
X89596395Y-51350576D01*
X89395262Y-51551358D01*
X89255759Y-51887317D01*
X89255442Y-52251087D01*
X89394358Y-52587289D01*
X89651358Y-52844738D01*
X89987317Y-52984241D01*
X90351087Y-52984558D01*
X90687289Y-52845642D01*
X90944738Y-52588642D01*
X91084241Y-52252683D01*
X91084558Y-51888913D01*
X90945642Y-51552711D01*
X90743860Y-51350576D01*
X92136395Y-51350576D01*
X91935262Y-51551358D01*
X91795759Y-51887317D01*
X91795442Y-52251087D01*
X91934358Y-52587289D01*
X92191358Y-52844738D01*
X92527317Y-52984241D01*
X92891087Y-52984558D01*
X93227289Y-52845642D01*
X93484738Y-52588642D01*
X93581443Y-52355750D01*
X94157800Y-52355750D01*
X94157800Y-52653510D01*
X94254473Y-52886899D01*
X94433102Y-53065527D01*
X94666491Y-53162200D01*
X94964250Y-53162200D01*
X95123000Y-53003450D01*
X95123000Y-52197000D01*
X95377000Y-52197000D01*
X95377000Y-53003450D01*
X95535750Y-53162200D01*
X95833509Y-53162200D01*
X96066898Y-53065527D01*
X96245527Y-52886899D01*
X96342200Y-52653510D01*
X96342200Y-52355750D01*
X96697800Y-52355750D01*
X96697800Y-52653510D01*
X96794473Y-52886899D01*
X96973102Y-53065527D01*
X97206491Y-53162200D01*
X97504250Y-53162200D01*
X97663000Y-53003450D01*
X97663000Y-52197000D01*
X97917000Y-52197000D01*
X97917000Y-53003450D01*
X98075750Y-53162200D01*
X98373509Y-53162200D01*
X98606898Y-53065527D01*
X98785527Y-52886899D01*
X98882200Y-52653510D01*
X98882200Y-52355750D01*
X99237800Y-52355750D01*
X99237800Y-52653510D01*
X99334473Y-52886899D01*
X99513102Y-53065527D01*
X99746491Y-53162200D01*
X100044250Y-53162200D01*
X100203000Y-53003450D01*
X100203000Y-52197000D01*
X99396550Y-52197000D01*
X99237800Y-52355750D01*
X98882200Y-52355750D01*
X98723450Y-52197000D01*
X97917000Y-52197000D01*
X97663000Y-52197000D01*
X96856550Y-52197000D01*
X96697800Y-52355750D01*
X96342200Y-52355750D01*
X96183450Y-52197000D01*
X95377000Y-52197000D01*
X95123000Y-52197000D01*
X94316550Y-52197000D01*
X94157800Y-52355750D01*
X93581443Y-52355750D01*
X93624241Y-52252683D01*
X93624558Y-51888913D01*
X93485642Y-51552711D01*
X93283860Y-51350576D01*
X94214097Y-51350576D01*
X94157800Y-51486490D01*
X94157800Y-51784250D01*
X94316550Y-51943000D01*
X95123000Y-51943000D01*
X95123000Y-51923000D01*
X95377000Y-51923000D01*
X95377000Y-51943000D01*
X96183450Y-51943000D01*
X96342200Y-51784250D01*
X96342200Y-51486490D01*
X96285903Y-51350576D01*
X96754097Y-51350576D01*
X96697800Y-51486490D01*
X96697800Y-51784250D01*
X96856550Y-51943000D01*
X97663000Y-51943000D01*
X97663000Y-51923000D01*
X97917000Y-51923000D01*
X97917000Y-51943000D01*
X98723450Y-51943000D01*
X98882200Y-51784250D01*
X98882200Y-51486490D01*
X98825903Y-51350576D01*
X99294097Y-51350576D01*
X99237800Y-51486490D01*
X99237800Y-51784250D01*
X99396550Y-51943000D01*
X100203000Y-51943000D01*
X100203000Y-51923000D01*
X100457000Y-51923000D01*
X100457000Y-51943000D01*
X100477000Y-51943000D01*
X100477000Y-52197000D01*
X100457000Y-52197000D01*
X100457000Y-53003450D01*
X100615750Y-53162200D01*
X100913509Y-53162200D01*
X101067800Y-53098291D01*
X101067800Y-53581709D01*
X100913509Y-53517800D01*
X100615750Y-53517800D01*
X100457000Y-53676550D01*
X100457000Y-54483000D01*
X100477000Y-54483000D01*
X100477000Y-54737000D01*
X100457000Y-54737000D01*
X100457000Y-55543450D01*
X100615750Y-55702200D01*
X100913509Y-55702200D01*
X101067800Y-55638291D01*
X101067800Y-71834803D01*
X100914200Y-71680935D01*
X100914200Y-67602151D01*
X100914201Y-67602146D01*
X100869731Y-67378583D01*
X100743092Y-67189054D01*
X98927060Y-65373022D01*
X98927162Y-65255836D01*
X98807540Y-64966328D01*
X98586235Y-64744636D01*
X98296937Y-64624509D01*
X97983690Y-64624236D01*
X97790001Y-64704266D01*
X97790001Y-62702145D01*
X97745531Y-62478581D01*
X97618893Y-62289053D01*
X97146748Y-61816908D01*
X97083586Y-61774705D01*
X96957220Y-61690270D01*
X96733656Y-61645800D01*
X95992907Y-61645800D01*
X96000157Y-61610000D01*
X96000157Y-60670027D01*
X97319665Y-59350518D01*
X97520144Y-59433764D01*
X97833391Y-59434037D01*
X98122899Y-59314415D01*
X98344591Y-59093110D01*
X98450400Y-58838294D01*
X98450400Y-62665800D01*
X98367464Y-62748591D01*
X98247337Y-63037889D01*
X98247064Y-63351136D01*
X98366686Y-63640644D01*
X98587991Y-63862336D01*
X98877289Y-63982463D01*
X99190536Y-63982736D01*
X99480044Y-63863114D01*
X99701736Y-63641809D01*
X99821863Y-63352511D01*
X99822136Y-63039264D01*
X99702514Y-62749756D01*
X99618800Y-62665896D01*
X99618800Y-58394605D01*
X99618801Y-58394600D01*
X99574331Y-58171037D01*
X99447692Y-57981508D01*
X96257271Y-54791087D01*
X96875442Y-54791087D01*
X97014358Y-55127289D01*
X97271358Y-55384738D01*
X97607317Y-55524241D01*
X97971087Y-55524558D01*
X98307289Y-55385642D01*
X98564738Y-55128642D01*
X98661443Y-54895750D01*
X99237800Y-54895750D01*
X99237800Y-55193510D01*
X99334473Y-55426899D01*
X99513102Y-55605527D01*
X99746491Y-55702200D01*
X100044250Y-55702200D01*
X100203000Y-55543450D01*
X100203000Y-54737000D01*
X99396550Y-54737000D01*
X99237800Y-54895750D01*
X98661443Y-54895750D01*
X98704241Y-54792683D01*
X98704558Y-54428913D01*
X98565642Y-54092711D01*
X98499537Y-54026490D01*
X99237800Y-54026490D01*
X99237800Y-54324250D01*
X99396550Y-54483000D01*
X100203000Y-54483000D01*
X100203000Y-53676550D01*
X100044250Y-53517800D01*
X99746491Y-53517800D01*
X99513102Y-53614473D01*
X99334473Y-53793101D01*
X99237800Y-54026490D01*
X98499537Y-54026490D01*
X98308642Y-53835262D01*
X97972683Y-53695759D01*
X97608913Y-53695442D01*
X97272711Y-53834358D01*
X97015262Y-54091358D01*
X96875759Y-54427317D01*
X96875442Y-54791087D01*
X96257271Y-54791087D01*
X96164323Y-54698139D01*
X96164558Y-54428913D01*
X96025642Y-54092711D01*
X95768642Y-53835262D01*
X95432683Y-53695759D01*
X95068913Y-53695442D01*
X94732711Y-53834358D01*
X94475262Y-54091358D01*
X94335759Y-54427317D01*
X94335442Y-54791087D01*
X94474358Y-55127289D01*
X94731358Y-55384738D01*
X95067317Y-55524241D01*
X95338293Y-55524477D01*
X97672913Y-57859097D01*
X97521519Y-57858965D01*
X97232011Y-57978587D01*
X97135872Y-58074559D01*
X96973936Y-58106770D01*
X96973934Y-58106771D01*
X96973935Y-58106771D01*
X96784407Y-58233409D01*
X96784405Y-58233412D01*
X96262132Y-58755685D01*
X96353000Y-58536310D01*
X96353000Y-58070750D01*
X96194250Y-57912000D01*
X95345000Y-57912000D01*
X95345000Y-58886250D01*
X95503750Y-59045000D01*
X95844309Y-59045000D01*
X96063685Y-58954131D01*
X95173973Y-59843843D01*
X94834000Y-59843843D01*
X94664572Y-59875723D01*
X94508962Y-59975855D01*
X94404570Y-60128639D01*
X94367843Y-60310000D01*
X94367843Y-61610000D01*
X94374579Y-61645800D01*
X94269000Y-61645800D01*
X94269000Y-61245750D01*
X94110250Y-61087000D01*
X93411000Y-61087000D01*
X93411000Y-62086250D01*
X93491283Y-62166533D01*
X93273973Y-62383843D01*
X92934000Y-62383843D01*
X92764572Y-62415723D01*
X92608962Y-62515855D01*
X92504570Y-62668639D01*
X92467843Y-62850000D01*
X92467843Y-63489973D01*
X92347708Y-63610108D01*
X92221070Y-63799636D01*
X92192000Y-63945780D01*
X92192000Y-63651691D01*
X92129167Y-63500000D01*
X92192000Y-63348309D01*
X92192000Y-63007750D01*
X92033250Y-62849000D01*
X91059000Y-62849000D01*
X91059000Y-64151000D01*
X91079000Y-64151000D01*
X91079000Y-64405000D01*
X91059000Y-64405000D01*
X91059000Y-64425000D01*
X90805000Y-64425000D01*
X90805000Y-64405000D01*
X90785000Y-64405000D01*
X90785000Y-64151000D01*
X90805000Y-64151000D01*
X90805000Y-62849000D01*
X90785000Y-62849000D01*
X90785000Y-62595000D01*
X90805000Y-62595000D01*
X90805000Y-62575000D01*
X91059000Y-62575000D01*
X91059000Y-62595000D01*
X92033250Y-62595000D01*
X92192000Y-62436250D01*
X92192000Y-62095691D01*
X92095327Y-61862302D01*
X91916699Y-61683673D01*
X91775040Y-61624996D01*
X91882038Y-61556145D01*
X91890950Y-61543101D01*
X92155504Y-61543332D01*
X92299000Y-61484041D01*
X92299000Y-61736310D01*
X92395673Y-61969699D01*
X92574302Y-62148327D01*
X92807691Y-62245000D01*
X92998250Y-62245000D01*
X93157000Y-62086250D01*
X93157000Y-61087000D01*
X93137000Y-61087000D01*
X93137000Y-60833000D01*
X93157000Y-60833000D01*
X93157000Y-59833750D01*
X93411000Y-59833750D01*
X93411000Y-60833000D01*
X94110250Y-60833000D01*
X94269000Y-60674250D01*
X94269000Y-60183690D01*
X94172327Y-59950301D01*
X93993698Y-59771673D01*
X93760309Y-59675000D01*
X93569750Y-59675000D01*
X93411000Y-59833750D01*
X93157000Y-59833750D01*
X92998250Y-59675000D01*
X92807691Y-59675000D01*
X92574302Y-59771673D01*
X92395673Y-59950301D01*
X92354185Y-60050462D01*
X92156879Y-59968533D01*
X91937076Y-59968341D01*
X91891145Y-59896962D01*
X91738361Y-59792570D01*
X91557000Y-59755843D01*
X90307000Y-59755843D01*
X90137572Y-59787723D01*
X89981962Y-59887855D01*
X89877570Y-60040639D01*
X89855048Y-60151854D01*
X89702136Y-60182270D01*
X89512608Y-60308908D01*
X89485222Y-60349894D01*
X89462819Y-60372297D01*
X89433162Y-60214683D01*
X89294090Y-59998559D01*
X89081890Y-59853569D01*
X88830000Y-59802560D01*
X87222064Y-59802560D01*
X87296057Y-59624366D01*
X87296330Y-59311119D01*
X87176708Y-59021611D01*
X86955403Y-58799919D01*
X86666105Y-58679792D01*
X86352858Y-58679519D01*
X86326141Y-58690558D01*
X86290678Y-58604730D01*
X86069373Y-58383038D01*
X85780075Y-58262911D01*
X85466828Y-58262638D01*
X85244940Y-58354320D01*
X85244940Y-57924120D01*
X85148267Y-57690731D01*
X84969638Y-57512103D01*
X84736249Y-57415430D01*
X83646010Y-57415430D01*
X83487260Y-57574180D01*
X83487260Y-58922920D01*
X83507260Y-58922920D01*
X83507260Y-59176920D01*
X83487260Y-59176920D01*
X83487260Y-60525660D01*
X83646010Y-60684410D01*
X84683600Y-60684410D01*
X84683600Y-61014610D01*
X83745070Y-61014610D01*
X83586320Y-61173360D01*
X83586320Y-61774705D01*
X83606320Y-61774705D01*
X83606320Y-61983553D01*
X82308700Y-61983553D01*
X82139272Y-62015433D01*
X82124568Y-62024895D01*
X81832450Y-62024895D01*
X81673700Y-62183645D01*
X81673700Y-62276300D01*
X81770373Y-62509689D01*
X81842543Y-62581859D01*
X81842543Y-62950090D01*
X81871776Y-63105453D01*
X81842543Y-63249810D01*
X81842543Y-63750190D01*
X81871776Y-63905553D01*
X81842543Y-64049910D01*
X81842543Y-64550290D01*
X81871776Y-64705653D01*
X81842543Y-64850010D01*
X81842543Y-65350390D01*
X81874423Y-65519818D01*
X81974555Y-65675428D01*
X82127339Y-65779820D01*
X82308700Y-65816547D01*
X84609940Y-65816547D01*
X84771138Y-65786215D01*
X84966060Y-65981137D01*
X84966060Y-66410781D01*
X84736249Y-66315590D01*
X83646010Y-66315590D01*
X83487260Y-66474340D01*
X83487260Y-67823080D01*
X83507260Y-67823080D01*
X83507260Y-68077080D01*
X83487260Y-68077080D01*
X83487260Y-68097080D01*
X83233260Y-68097080D01*
X83233260Y-68077080D01*
X81634330Y-68077080D01*
X81475580Y-68235830D01*
X81475580Y-69075880D01*
X81572253Y-69309269D01*
X81750882Y-69487897D01*
X81984271Y-69584570D01*
X82429144Y-69584570D01*
X80866908Y-71146806D01*
X80740270Y-71336334D01*
X80695800Y-71559898D01*
X80695800Y-71782712D01*
X80528642Y-71615262D01*
X80192683Y-71475759D01*
X79828913Y-71475442D01*
X79492711Y-71614358D01*
X79235262Y-71871358D01*
X79095759Y-72207317D01*
X79095442Y-72571087D01*
X79234358Y-72907289D01*
X79491358Y-73164738D01*
X79827317Y-73304241D01*
X80191087Y-73304558D01*
X80527289Y-73165642D01*
X80695800Y-72997425D01*
X80695800Y-73418016D01*
X80098139Y-74015677D01*
X79828913Y-74015442D01*
X79492711Y-74154358D01*
X79235262Y-74411358D01*
X79095759Y-74747317D01*
X79095442Y-75111087D01*
X79234358Y-75447289D01*
X79472828Y-75686176D01*
X78006789Y-75686176D01*
X78244738Y-75448642D01*
X78384241Y-75112683D01*
X78384558Y-74748913D01*
X78245642Y-74412711D01*
X77988642Y-74155262D01*
X77652683Y-74015759D01*
X77288913Y-74015442D01*
X76952711Y-74154358D01*
X76732200Y-74374484D01*
X76732200Y-72945197D01*
X76951358Y-73164738D01*
X77287317Y-73304241D01*
X77651087Y-73304558D01*
X77987289Y-73165642D01*
X78244738Y-72908642D01*
X78384241Y-72572683D01*
X78384558Y-72208913D01*
X78245642Y-71872711D01*
X77988642Y-71615262D01*
X77652683Y-71475759D01*
X77288913Y-71475442D01*
X76952711Y-71614358D01*
X76732200Y-71834484D01*
X76732200Y-69584570D01*
X77575410Y-69584570D01*
X77734160Y-69425820D01*
X77734160Y-68077080D01*
X77988160Y-68077080D01*
X77988160Y-69425820D01*
X78146910Y-69584570D01*
X79237149Y-69584570D01*
X79470538Y-69487897D01*
X79649167Y-69309269D01*
X79745840Y-69075880D01*
X79745840Y-68235830D01*
X79587090Y-68077080D01*
X77988160Y-68077080D01*
X77734160Y-68077080D01*
X77714160Y-68077080D01*
X77714160Y-67823080D01*
X77734160Y-67823080D01*
X77734160Y-66474340D01*
X77988160Y-66474340D01*
X77988160Y-67823080D01*
X79587090Y-67823080D01*
X79745840Y-67664330D01*
X79745840Y-66824280D01*
X81475580Y-66824280D01*
X81475580Y-67664330D01*
X81634330Y-67823080D01*
X83233260Y-67823080D01*
X83233260Y-66474340D01*
X83074510Y-66315590D01*
X81984271Y-66315590D01*
X81750882Y-66412263D01*
X81572253Y-66590891D01*
X81475580Y-66824280D01*
X79745840Y-66824280D01*
X79649167Y-66590891D01*
X79470538Y-66412263D01*
X79237149Y-66315590D01*
X78146910Y-66315590D01*
X77988160Y-66474340D01*
X77734160Y-66474340D01*
X77575410Y-66315590D01*
X76732200Y-66315590D01*
X76732200Y-65879218D01*
X79953963Y-65879218D01*
X80091721Y-66212619D01*
X80346580Y-66467923D01*
X80679739Y-66606262D01*
X81040478Y-66606577D01*
X81373879Y-66468819D01*
X81629183Y-66213960D01*
X81767522Y-65880801D01*
X81767837Y-65520062D01*
X81630079Y-65186661D01*
X81375220Y-64931357D01*
X81042061Y-64793018D01*
X80681322Y-64792703D01*
X80347921Y-64930461D01*
X80092617Y-65185320D01*
X79954278Y-65518479D01*
X79953963Y-65879218D01*
X76732200Y-65879218D01*
X76732200Y-61479938D01*
X79953963Y-61479938D01*
X80091721Y-61813339D01*
X80346580Y-62068643D01*
X80679739Y-62206982D01*
X81040478Y-62207297D01*
X81373879Y-62069539D01*
X81629183Y-61814680D01*
X81700551Y-61642806D01*
X81832450Y-61774705D01*
X83332320Y-61774705D01*
X83332320Y-61173360D01*
X83173570Y-61014610D01*
X82182391Y-61014610D01*
X81949002Y-61111283D01*
X81770373Y-61289911D01*
X81767684Y-61296404D01*
X81767837Y-61120782D01*
X81630079Y-60787381D01*
X81375220Y-60532077D01*
X81042061Y-60393738D01*
X80681322Y-60393423D01*
X80347921Y-60531181D01*
X80092617Y-60786040D01*
X79954278Y-61119199D01*
X79953963Y-61479938D01*
X76732200Y-61479938D01*
X76732200Y-60684410D01*
X77575410Y-60684410D01*
X77734160Y-60525660D01*
X77734160Y-59176920D01*
X77988160Y-59176920D01*
X77988160Y-60525660D01*
X78146910Y-60684410D01*
X79237149Y-60684410D01*
X79470538Y-60587737D01*
X79649167Y-60409109D01*
X79745840Y-60175720D01*
X79745840Y-59335670D01*
X81475580Y-59335670D01*
X81475580Y-60175720D01*
X81572253Y-60409109D01*
X81750882Y-60587737D01*
X81984271Y-60684410D01*
X83074510Y-60684410D01*
X83233260Y-60525660D01*
X83233260Y-59176920D01*
X81634330Y-59176920D01*
X81475580Y-59335670D01*
X79745840Y-59335670D01*
X79587090Y-59176920D01*
X77988160Y-59176920D01*
X77734160Y-59176920D01*
X77714160Y-59176920D01*
X77714160Y-58922920D01*
X77734160Y-58922920D01*
X77734160Y-57574180D01*
X77988160Y-57574180D01*
X77988160Y-58922920D01*
X79587090Y-58922920D01*
X79745840Y-58764170D01*
X79745840Y-57924120D01*
X81475580Y-57924120D01*
X81475580Y-58764170D01*
X81634330Y-58922920D01*
X83233260Y-58922920D01*
X83233260Y-57574180D01*
X83074510Y-57415430D01*
X81984271Y-57415430D01*
X81750882Y-57512103D01*
X81572253Y-57690731D01*
X81475580Y-57924120D01*
X79745840Y-57924120D01*
X79649167Y-57690731D01*
X79470538Y-57512103D01*
X79237149Y-57415430D01*
X78146910Y-57415430D01*
X77988160Y-57574180D01*
X77734160Y-57574180D01*
X77575410Y-57415430D01*
X76732200Y-57415430D01*
X76732200Y-55165197D01*
X76951358Y-55384738D01*
X77287317Y-55524241D01*
X77651087Y-55524558D01*
X77987289Y-55385642D01*
X78244738Y-55128642D01*
X78384241Y-54792683D01*
X78384242Y-54791087D01*
X79095442Y-54791087D01*
X79234358Y-55127289D01*
X79491358Y-55384738D01*
X79827317Y-55524241D01*
X80191087Y-55524558D01*
X80527289Y-55385642D01*
X80784738Y-55128642D01*
X80924241Y-54792683D01*
X80924558Y-54428913D01*
X80785642Y-54092711D01*
X80528642Y-53835262D01*
X80192683Y-53695759D01*
X79828913Y-53695442D01*
X79492711Y-53834358D01*
X79235262Y-54091358D01*
X79095759Y-54427317D01*
X79095442Y-54791087D01*
X78384242Y-54791087D01*
X78384558Y-54428913D01*
X78245642Y-54092711D01*
X77988642Y-53835262D01*
X77652683Y-53695759D01*
X77288913Y-53695442D01*
X76952711Y-53834358D01*
X76732200Y-54054484D01*
X76732200Y-52625197D01*
X76951358Y-52844738D01*
X77287317Y-52984241D01*
X77651087Y-52984558D01*
X77987289Y-52845642D01*
X78244738Y-52588642D01*
X78384241Y-52252683D01*
X78384558Y-51888913D01*
X78245642Y-51552711D01*
X78043860Y-51350576D01*
X79436395Y-51350576D01*
X79235262Y-51551358D01*
X79235262Y-51551358D01*
G37*
X79235262Y-51551358D02*
X79095759Y-51887317D01*
X79095442Y-52251087D01*
X79234358Y-52587289D01*
X79491358Y-52844738D01*
X79827317Y-52984241D01*
X80191087Y-52984558D01*
X80527289Y-52845642D01*
X80784738Y-52588642D01*
X80924241Y-52252683D01*
X80924558Y-51888913D01*
X80785642Y-51552711D01*
X80583860Y-51350576D01*
X81976395Y-51350576D01*
X81775262Y-51551358D01*
X81635759Y-51887317D01*
X81635442Y-52251087D01*
X81774358Y-52587289D01*
X82031358Y-52844738D01*
X82367317Y-52984241D01*
X82638293Y-52984477D01*
X83235800Y-53581984D01*
X83235800Y-54002712D01*
X83068642Y-53835262D01*
X82732683Y-53695759D01*
X82368913Y-53695442D01*
X82032711Y-53834358D01*
X81775262Y-54091358D01*
X81635759Y-54427317D01*
X81635442Y-54791087D01*
X81774358Y-55127289D01*
X82031358Y-55384738D01*
X82367317Y-55524241D01*
X82731087Y-55524558D01*
X83067289Y-55385642D01*
X83235800Y-55217425D01*
X83235800Y-55220576D01*
X83280270Y-55444140D01*
X83334038Y-55524610D01*
X83406908Y-55633668D01*
X84124136Y-56350896D01*
X84124034Y-56468082D01*
X84243656Y-56757590D01*
X84464961Y-56979282D01*
X84754259Y-57099409D01*
X85067506Y-57099682D01*
X85357014Y-56980060D01*
X85578706Y-56758755D01*
X85625763Y-56645427D01*
X89712943Y-56645427D01*
X89832565Y-56934935D01*
X90053870Y-57156627D01*
X90343168Y-57276754D01*
X90461661Y-57276857D01*
X91382894Y-58198089D01*
X91382896Y-58198092D01*
X91572424Y-58324730D01*
X91795988Y-58369200D01*
X92251843Y-58369200D01*
X92251843Y-58410000D01*
X92283723Y-58579428D01*
X92383855Y-58735038D01*
X92536639Y-58839430D01*
X92718000Y-58876157D01*
X93718000Y-58876157D01*
X93887428Y-58844277D01*
X94043038Y-58744145D01*
X94121514Y-58629291D01*
X94179673Y-58769699D01*
X94358302Y-58948327D01*
X94591691Y-59045000D01*
X94932250Y-59045000D01*
X95091000Y-58886250D01*
X95091000Y-57912000D01*
X95071000Y-57912000D01*
X95071000Y-57658000D01*
X95091000Y-57658000D01*
X95091000Y-56683750D01*
X95345000Y-56683750D01*
X95345000Y-57658000D01*
X96194250Y-57658000D01*
X96353000Y-57499250D01*
X96353000Y-57033690D01*
X96256327Y-56800301D01*
X96077698Y-56621673D01*
X95844309Y-56525000D01*
X95503750Y-56525000D01*
X95345000Y-56683750D01*
X95091000Y-56683750D01*
X94932250Y-56525000D01*
X94591691Y-56525000D01*
X94358302Y-56621673D01*
X94179673Y-56800301D01*
X94120996Y-56941960D01*
X94052145Y-56834962D01*
X93899361Y-56730570D01*
X93718000Y-56693843D01*
X92718000Y-56693843D01*
X92548572Y-56725723D01*
X92392962Y-56825855D01*
X92288570Y-56978639D01*
X92251843Y-57160000D01*
X92251843Y-57200800D01*
X92037971Y-57200800D01*
X91287913Y-56450741D01*
X91288015Y-56333555D01*
X91168393Y-56044047D01*
X90947088Y-55822355D01*
X90657790Y-55702228D01*
X90344543Y-55701955D01*
X90055035Y-55821577D01*
X89833343Y-56042882D01*
X89713216Y-56332180D01*
X89712943Y-56645427D01*
X85625763Y-56645427D01*
X85698833Y-56469457D01*
X85699106Y-56156210D01*
X85579484Y-55866702D01*
X85358179Y-55645010D01*
X85068881Y-55524883D01*
X84950388Y-55524780D01*
X84949886Y-55524278D01*
X85271087Y-55524558D01*
X85607289Y-55385642D01*
X85864738Y-55128642D01*
X86004241Y-54792683D01*
X86004242Y-54791087D01*
X86715442Y-54791087D01*
X86854358Y-55127289D01*
X87111358Y-55384738D01*
X87447317Y-55524241D01*
X87811087Y-55524558D01*
X88147289Y-55385642D01*
X88404738Y-55128642D01*
X88544241Y-54792683D01*
X88544242Y-54791087D01*
X89255442Y-54791087D01*
X89394358Y-55127289D01*
X89651358Y-55384738D01*
X89987317Y-55524241D01*
X90351087Y-55524558D01*
X90687289Y-55385642D01*
X90944738Y-55128642D01*
X91084241Y-54792683D01*
X91084242Y-54791087D01*
X91795442Y-54791087D01*
X91934358Y-55127289D01*
X92191358Y-55384738D01*
X92527317Y-55524241D01*
X92891087Y-55524558D01*
X93227289Y-55385642D01*
X93484738Y-55128642D01*
X93624241Y-54792683D01*
X93624558Y-54428913D01*
X93485642Y-54092711D01*
X93228642Y-53835262D01*
X92892683Y-53695759D01*
X92528913Y-53695442D01*
X92192711Y-53834358D01*
X91935262Y-54091358D01*
X91795759Y-54427317D01*
X91795442Y-54791087D01*
X91084242Y-54791087D01*
X91084558Y-54428913D01*
X90945642Y-54092711D01*
X90688642Y-53835262D01*
X90352683Y-53695759D01*
X89988913Y-53695442D01*
X89652711Y-53834358D01*
X89395262Y-54091358D01*
X89255759Y-54427317D01*
X89255442Y-54791087D01*
X88544242Y-54791087D01*
X88544558Y-54428913D01*
X88405642Y-54092711D01*
X88148642Y-53835262D01*
X87812683Y-53695759D01*
X87448913Y-53695442D01*
X87112711Y-53834358D01*
X86855262Y-54091358D01*
X86715759Y-54427317D01*
X86715442Y-54791087D01*
X86004242Y-54791087D01*
X86004558Y-54428913D01*
X85865642Y-54092711D01*
X85608642Y-53835262D01*
X85272683Y-53695759D01*
X84908913Y-53695442D01*
X84572711Y-53834358D01*
X84404200Y-54002575D01*
X84404200Y-53340000D01*
X84359730Y-53116436D01*
X84233092Y-52926908D01*
X83464323Y-52158139D01*
X83464558Y-51888913D01*
X83325642Y-51552711D01*
X83123860Y-51350576D01*
X84516395Y-51350576D01*
X84315262Y-51551358D01*
X84175759Y-51887317D01*
X84175442Y-52251087D01*
X84314358Y-52587289D01*
X84571358Y-52844738D01*
X84907317Y-52984241D01*
X85271087Y-52984558D01*
X85607289Y-52845642D01*
X85864738Y-52588642D01*
X86004241Y-52252683D01*
X86004558Y-51888913D01*
X85865642Y-51552711D01*
X85663860Y-51350576D01*
X87056395Y-51350576D01*
X86855262Y-51551358D01*
X86715759Y-51887317D01*
X86715442Y-52251087D01*
X86854358Y-52587289D01*
X87111358Y-52844738D01*
X87447317Y-52984241D01*
X87811087Y-52984558D01*
X88147289Y-52845642D01*
X88404738Y-52588642D01*
X88544241Y-52252683D01*
X88544558Y-51888913D01*
X88405642Y-51552711D01*
X88203860Y-51350576D01*
X89596395Y-51350576D01*
X89395262Y-51551358D01*
X89255759Y-51887317D01*
X89255442Y-52251087D01*
X89394358Y-52587289D01*
X89651358Y-52844738D01*
X89987317Y-52984241D01*
X90351087Y-52984558D01*
X90687289Y-52845642D01*
X90944738Y-52588642D01*
X91084241Y-52252683D01*
X91084558Y-51888913D01*
X90945642Y-51552711D01*
X90743860Y-51350576D01*
X92136395Y-51350576D01*
X91935262Y-51551358D01*
X91795759Y-51887317D01*
X91795442Y-52251087D01*
X91934358Y-52587289D01*
X92191358Y-52844738D01*
X92527317Y-52984241D01*
X92891087Y-52984558D01*
X93227289Y-52845642D01*
X93484738Y-52588642D01*
X93581443Y-52355750D01*
X94157800Y-52355750D01*
X94157800Y-52653510D01*
X94254473Y-52886899D01*
X94433102Y-53065527D01*
X94666491Y-53162200D01*
X94964250Y-53162200D01*
X95123000Y-53003450D01*
X95123000Y-52197000D01*
X95377000Y-52197000D01*
X95377000Y-53003450D01*
X95535750Y-53162200D01*
X95833509Y-53162200D01*
X96066898Y-53065527D01*
X96245527Y-52886899D01*
X96342200Y-52653510D01*
X96342200Y-52355750D01*
X96697800Y-52355750D01*
X96697800Y-52653510D01*
X96794473Y-52886899D01*
X96973102Y-53065527D01*
X97206491Y-53162200D01*
X97504250Y-53162200D01*
X97663000Y-53003450D01*
X97663000Y-52197000D01*
X97917000Y-52197000D01*
X97917000Y-53003450D01*
X98075750Y-53162200D01*
X98373509Y-53162200D01*
X98606898Y-53065527D01*
X98785527Y-52886899D01*
X98882200Y-52653510D01*
X98882200Y-52355750D01*
X99237800Y-52355750D01*
X99237800Y-52653510D01*
X99334473Y-52886899D01*
X99513102Y-53065527D01*
X99746491Y-53162200D01*
X100044250Y-53162200D01*
X100203000Y-53003450D01*
X100203000Y-52197000D01*
X99396550Y-52197000D01*
X99237800Y-52355750D01*
X98882200Y-52355750D01*
X98723450Y-52197000D01*
X97917000Y-52197000D01*
X97663000Y-52197000D01*
X96856550Y-52197000D01*
X96697800Y-52355750D01*
X96342200Y-52355750D01*
X96183450Y-52197000D01*
X95377000Y-52197000D01*
X95123000Y-52197000D01*
X94316550Y-52197000D01*
X94157800Y-52355750D01*
X93581443Y-52355750D01*
X93624241Y-52252683D01*
X93624558Y-51888913D01*
X93485642Y-51552711D01*
X93283860Y-51350576D01*
X94214097Y-51350576D01*
X94157800Y-51486490D01*
X94157800Y-51784250D01*
X94316550Y-51943000D01*
X95123000Y-51943000D01*
X95123000Y-51923000D01*
X95377000Y-51923000D01*
X95377000Y-51943000D01*
X96183450Y-51943000D01*
X96342200Y-51784250D01*
X96342200Y-51486490D01*
X96285903Y-51350576D01*
X96754097Y-51350576D01*
X96697800Y-51486490D01*
X96697800Y-51784250D01*
X96856550Y-51943000D01*
X97663000Y-51943000D01*
X97663000Y-51923000D01*
X97917000Y-51923000D01*
X97917000Y-51943000D01*
X98723450Y-51943000D01*
X98882200Y-51784250D01*
X98882200Y-51486490D01*
X98825903Y-51350576D01*
X99294097Y-51350576D01*
X99237800Y-51486490D01*
X99237800Y-51784250D01*
X99396550Y-51943000D01*
X100203000Y-51943000D01*
X100203000Y-51923000D01*
X100457000Y-51923000D01*
X100457000Y-51943000D01*
X100477000Y-51943000D01*
X100477000Y-52197000D01*
X100457000Y-52197000D01*
X100457000Y-53003450D01*
X100615750Y-53162200D01*
X100913509Y-53162200D01*
X101067800Y-53098291D01*
X101067800Y-53581709D01*
X100913509Y-53517800D01*
X100615750Y-53517800D01*
X100457000Y-53676550D01*
X100457000Y-54483000D01*
X100477000Y-54483000D01*
X100477000Y-54737000D01*
X100457000Y-54737000D01*
X100457000Y-55543450D01*
X100615750Y-55702200D01*
X100913509Y-55702200D01*
X101067800Y-55638291D01*
X101067800Y-71834803D01*
X100914200Y-71680935D01*
X100914200Y-67602151D01*
X100914201Y-67602146D01*
X100869731Y-67378583D01*
X100743092Y-67189054D01*
X98927060Y-65373022D01*
X98927162Y-65255836D01*
X98807540Y-64966328D01*
X98586235Y-64744636D01*
X98296937Y-64624509D01*
X97983690Y-64624236D01*
X97790001Y-64704266D01*
X97790001Y-62702145D01*
X97745531Y-62478581D01*
X97618893Y-62289053D01*
X97146748Y-61816908D01*
X97083586Y-61774705D01*
X96957220Y-61690270D01*
X96733656Y-61645800D01*
X95992907Y-61645800D01*
X96000157Y-61610000D01*
X96000157Y-60670027D01*
X97319665Y-59350518D01*
X97520144Y-59433764D01*
X97833391Y-59434037D01*
X98122899Y-59314415D01*
X98344591Y-59093110D01*
X98450400Y-58838294D01*
X98450400Y-62665800D01*
X98367464Y-62748591D01*
X98247337Y-63037889D01*
X98247064Y-63351136D01*
X98366686Y-63640644D01*
X98587991Y-63862336D01*
X98877289Y-63982463D01*
X99190536Y-63982736D01*
X99480044Y-63863114D01*
X99701736Y-63641809D01*
X99821863Y-63352511D01*
X99822136Y-63039264D01*
X99702514Y-62749756D01*
X99618800Y-62665896D01*
X99618800Y-58394605D01*
X99618801Y-58394600D01*
X99574331Y-58171037D01*
X99447692Y-57981508D01*
X96257271Y-54791087D01*
X96875442Y-54791087D01*
X97014358Y-55127289D01*
X97271358Y-55384738D01*
X97607317Y-55524241D01*
X97971087Y-55524558D01*
X98307289Y-55385642D01*
X98564738Y-55128642D01*
X98661443Y-54895750D01*
X99237800Y-54895750D01*
X99237800Y-55193510D01*
X99334473Y-55426899D01*
X99513102Y-55605527D01*
X99746491Y-55702200D01*
X100044250Y-55702200D01*
X100203000Y-55543450D01*
X100203000Y-54737000D01*
X99396550Y-54737000D01*
X99237800Y-54895750D01*
X98661443Y-54895750D01*
X98704241Y-54792683D01*
X98704558Y-54428913D01*
X98565642Y-54092711D01*
X98499537Y-54026490D01*
X99237800Y-54026490D01*
X99237800Y-54324250D01*
X99396550Y-54483000D01*
X100203000Y-54483000D01*
X100203000Y-53676550D01*
X100044250Y-53517800D01*
X99746491Y-53517800D01*
X99513102Y-53614473D01*
X99334473Y-53793101D01*
X99237800Y-54026490D01*
X98499537Y-54026490D01*
X98308642Y-53835262D01*
X97972683Y-53695759D01*
X97608913Y-53695442D01*
X97272711Y-53834358D01*
X97015262Y-54091358D01*
X96875759Y-54427317D01*
X96875442Y-54791087D01*
X96257271Y-54791087D01*
X96164323Y-54698139D01*
X96164558Y-54428913D01*
X96025642Y-54092711D01*
X95768642Y-53835262D01*
X95432683Y-53695759D01*
X95068913Y-53695442D01*
X94732711Y-53834358D01*
X94475262Y-54091358D01*
X94335759Y-54427317D01*
X94335442Y-54791087D01*
X94474358Y-55127289D01*
X94731358Y-55384738D01*
X95067317Y-55524241D01*
X95338293Y-55524477D01*
X97672913Y-57859097D01*
X97521519Y-57858965D01*
X97232011Y-57978587D01*
X97135872Y-58074559D01*
X96973936Y-58106770D01*
X96973934Y-58106771D01*
X96973935Y-58106771D01*
X96784407Y-58233409D01*
X96784405Y-58233412D01*
X96262132Y-58755685D01*
X96353000Y-58536310D01*
X96353000Y-58070750D01*
X96194250Y-57912000D01*
X95345000Y-57912000D01*
X95345000Y-58886250D01*
X95503750Y-59045000D01*
X95844309Y-59045000D01*
X96063685Y-58954131D01*
X95173973Y-59843843D01*
X94834000Y-59843843D01*
X94664572Y-59875723D01*
X94508962Y-59975855D01*
X94404570Y-60128639D01*
X94367843Y-60310000D01*
X94367843Y-61610000D01*
X94374579Y-61645800D01*
X94269000Y-61645800D01*
X94269000Y-61245750D01*
X94110250Y-61087000D01*
X93411000Y-61087000D01*
X93411000Y-62086250D01*
X93491283Y-62166533D01*
X93273973Y-62383843D01*
X92934000Y-62383843D01*
X92764572Y-62415723D01*
X92608962Y-62515855D01*
X92504570Y-62668639D01*
X92467843Y-62850000D01*
X92467843Y-63489973D01*
X92347708Y-63610108D01*
X92221070Y-63799636D01*
X92192000Y-63945780D01*
X92192000Y-63651691D01*
X92129167Y-63500000D01*
X92192000Y-63348309D01*
X92192000Y-63007750D01*
X92033250Y-62849000D01*
X91059000Y-62849000D01*
X91059000Y-64151000D01*
X91079000Y-64151000D01*
X91079000Y-64405000D01*
X91059000Y-64405000D01*
X91059000Y-64425000D01*
X90805000Y-64425000D01*
X90805000Y-64405000D01*
X90785000Y-64405000D01*
X90785000Y-64151000D01*
X90805000Y-64151000D01*
X90805000Y-62849000D01*
X90785000Y-62849000D01*
X90785000Y-62595000D01*
X90805000Y-62595000D01*
X90805000Y-62575000D01*
X91059000Y-62575000D01*
X91059000Y-62595000D01*
X92033250Y-62595000D01*
X92192000Y-62436250D01*
X92192000Y-62095691D01*
X92095327Y-61862302D01*
X91916699Y-61683673D01*
X91775040Y-61624996D01*
X91882038Y-61556145D01*
X91890950Y-61543101D01*
X92155504Y-61543332D01*
X92299000Y-61484041D01*
X92299000Y-61736310D01*
X92395673Y-61969699D01*
X92574302Y-62148327D01*
X92807691Y-62245000D01*
X92998250Y-62245000D01*
X93157000Y-62086250D01*
X93157000Y-61087000D01*
X93137000Y-61087000D01*
X93137000Y-60833000D01*
X93157000Y-60833000D01*
X93157000Y-59833750D01*
X93411000Y-59833750D01*
X93411000Y-60833000D01*
X94110250Y-60833000D01*
X94269000Y-60674250D01*
X94269000Y-60183690D01*
X94172327Y-59950301D01*
X93993698Y-59771673D01*
X93760309Y-59675000D01*
X93569750Y-59675000D01*
X93411000Y-59833750D01*
X93157000Y-59833750D01*
X92998250Y-59675000D01*
X92807691Y-59675000D01*
X92574302Y-59771673D01*
X92395673Y-59950301D01*
X92354185Y-60050462D01*
X92156879Y-59968533D01*
X91937076Y-59968341D01*
X91891145Y-59896962D01*
X91738361Y-59792570D01*
X91557000Y-59755843D01*
X90307000Y-59755843D01*
X90137572Y-59787723D01*
X89981962Y-59887855D01*
X89877570Y-60040639D01*
X89855048Y-60151854D01*
X89702136Y-60182270D01*
X89512608Y-60308908D01*
X89485222Y-60349894D01*
X89462819Y-60372297D01*
X89433162Y-60214683D01*
X89294090Y-59998559D01*
X89081890Y-59853569D01*
X88830000Y-59802560D01*
X87222064Y-59802560D01*
X87296057Y-59624366D01*
X87296330Y-59311119D01*
X87176708Y-59021611D01*
X86955403Y-58799919D01*
X86666105Y-58679792D01*
X86352858Y-58679519D01*
X86326141Y-58690558D01*
X86290678Y-58604730D01*
X86069373Y-58383038D01*
X85780075Y-58262911D01*
X85466828Y-58262638D01*
X85244940Y-58354320D01*
X85244940Y-57924120D01*
X85148267Y-57690731D01*
X84969638Y-57512103D01*
X84736249Y-57415430D01*
X83646010Y-57415430D01*
X83487260Y-57574180D01*
X83487260Y-58922920D01*
X83507260Y-58922920D01*
X83507260Y-59176920D01*
X83487260Y-59176920D01*
X83487260Y-60525660D01*
X83646010Y-60684410D01*
X84683600Y-60684410D01*
X84683600Y-61014610D01*
X83745070Y-61014610D01*
X83586320Y-61173360D01*
X83586320Y-61774705D01*
X83606320Y-61774705D01*
X83606320Y-61983553D01*
X82308700Y-61983553D01*
X82139272Y-62015433D01*
X82124568Y-62024895D01*
X81832450Y-62024895D01*
X81673700Y-62183645D01*
X81673700Y-62276300D01*
X81770373Y-62509689D01*
X81842543Y-62581859D01*
X81842543Y-62950090D01*
X81871776Y-63105453D01*
X81842543Y-63249810D01*
X81842543Y-63750190D01*
X81871776Y-63905553D01*
X81842543Y-64049910D01*
X81842543Y-64550290D01*
X81871776Y-64705653D01*
X81842543Y-64850010D01*
X81842543Y-65350390D01*
X81874423Y-65519818D01*
X81974555Y-65675428D01*
X82127339Y-65779820D01*
X82308700Y-65816547D01*
X84609940Y-65816547D01*
X84771138Y-65786215D01*
X84966060Y-65981137D01*
X84966060Y-66410781D01*
X84736249Y-66315590D01*
X83646010Y-66315590D01*
X83487260Y-66474340D01*
X83487260Y-67823080D01*
X83507260Y-67823080D01*
X83507260Y-68077080D01*
X83487260Y-68077080D01*
X83487260Y-68097080D01*
X83233260Y-68097080D01*
X83233260Y-68077080D01*
X81634330Y-68077080D01*
X81475580Y-68235830D01*
X81475580Y-69075880D01*
X81572253Y-69309269D01*
X81750882Y-69487897D01*
X81984271Y-69584570D01*
X82429144Y-69584570D01*
X80866908Y-71146806D01*
X80740270Y-71336334D01*
X80695800Y-71559898D01*
X80695800Y-71782712D01*
X80528642Y-71615262D01*
X80192683Y-71475759D01*
X79828913Y-71475442D01*
X79492711Y-71614358D01*
X79235262Y-71871358D01*
X79095759Y-72207317D01*
X79095442Y-72571087D01*
X79234358Y-72907289D01*
X79491358Y-73164738D01*
X79827317Y-73304241D01*
X80191087Y-73304558D01*
X80527289Y-73165642D01*
X80695800Y-72997425D01*
X80695800Y-73418016D01*
X80098139Y-74015677D01*
X79828913Y-74015442D01*
X79492711Y-74154358D01*
X79235262Y-74411358D01*
X79095759Y-74747317D01*
X79095442Y-75111087D01*
X79234358Y-75447289D01*
X79472828Y-75686176D01*
X78006789Y-75686176D01*
X78244738Y-75448642D01*
X78384241Y-75112683D01*
X78384558Y-74748913D01*
X78245642Y-74412711D01*
X77988642Y-74155262D01*
X77652683Y-74015759D01*
X77288913Y-74015442D01*
X76952711Y-74154358D01*
X76732200Y-74374484D01*
X76732200Y-72945197D01*
X76951358Y-73164738D01*
X77287317Y-73304241D01*
X77651087Y-73304558D01*
X77987289Y-73165642D01*
X78244738Y-72908642D01*
X78384241Y-72572683D01*
X78384558Y-72208913D01*
X78245642Y-71872711D01*
X77988642Y-71615262D01*
X77652683Y-71475759D01*
X77288913Y-71475442D01*
X76952711Y-71614358D01*
X76732200Y-71834484D01*
X76732200Y-69584570D01*
X77575410Y-69584570D01*
X77734160Y-69425820D01*
X77734160Y-68077080D01*
X77988160Y-68077080D01*
X77988160Y-69425820D01*
X78146910Y-69584570D01*
X79237149Y-69584570D01*
X79470538Y-69487897D01*
X79649167Y-69309269D01*
X79745840Y-69075880D01*
X79745840Y-68235830D01*
X79587090Y-68077080D01*
X77988160Y-68077080D01*
X77734160Y-68077080D01*
X77714160Y-68077080D01*
X77714160Y-67823080D01*
X77734160Y-67823080D01*
X77734160Y-66474340D01*
X77988160Y-66474340D01*
X77988160Y-67823080D01*
X79587090Y-67823080D01*
X79745840Y-67664330D01*
X79745840Y-66824280D01*
X81475580Y-66824280D01*
X81475580Y-67664330D01*
X81634330Y-67823080D01*
X83233260Y-67823080D01*
X83233260Y-66474340D01*
X83074510Y-66315590D01*
X81984271Y-66315590D01*
X81750882Y-66412263D01*
X81572253Y-66590891D01*
X81475580Y-66824280D01*
X79745840Y-66824280D01*
X79649167Y-66590891D01*
X79470538Y-66412263D01*
X79237149Y-66315590D01*
X78146910Y-66315590D01*
X77988160Y-66474340D01*
X77734160Y-66474340D01*
X77575410Y-66315590D01*
X76732200Y-66315590D01*
X76732200Y-65879218D01*
X79953963Y-65879218D01*
X80091721Y-66212619D01*
X80346580Y-66467923D01*
X80679739Y-66606262D01*
X81040478Y-66606577D01*
X81373879Y-66468819D01*
X81629183Y-66213960D01*
X81767522Y-65880801D01*
X81767837Y-65520062D01*
X81630079Y-65186661D01*
X81375220Y-64931357D01*
X81042061Y-64793018D01*
X80681322Y-64792703D01*
X80347921Y-64930461D01*
X80092617Y-65185320D01*
X79954278Y-65518479D01*
X79953963Y-65879218D01*
X76732200Y-65879218D01*
X76732200Y-61479938D01*
X79953963Y-61479938D01*
X80091721Y-61813339D01*
X80346580Y-62068643D01*
X80679739Y-62206982D01*
X81040478Y-62207297D01*
X81373879Y-62069539D01*
X81629183Y-61814680D01*
X81700551Y-61642806D01*
X81832450Y-61774705D01*
X83332320Y-61774705D01*
X83332320Y-61173360D01*
X83173570Y-61014610D01*
X82182391Y-61014610D01*
X81949002Y-61111283D01*
X81770373Y-61289911D01*
X81767684Y-61296404D01*
X81767837Y-61120782D01*
X81630079Y-60787381D01*
X81375220Y-60532077D01*
X81042061Y-60393738D01*
X80681322Y-60393423D01*
X80347921Y-60531181D01*
X80092617Y-60786040D01*
X79954278Y-61119199D01*
X79953963Y-61479938D01*
X76732200Y-61479938D01*
X76732200Y-60684410D01*
X77575410Y-60684410D01*
X77734160Y-60525660D01*
X77734160Y-59176920D01*
X77988160Y-59176920D01*
X77988160Y-60525660D01*
X78146910Y-60684410D01*
X79237149Y-60684410D01*
X79470538Y-60587737D01*
X79649167Y-60409109D01*
X79745840Y-60175720D01*
X79745840Y-59335670D01*
X81475580Y-59335670D01*
X81475580Y-60175720D01*
X81572253Y-60409109D01*
X81750882Y-60587737D01*
X81984271Y-60684410D01*
X83074510Y-60684410D01*
X83233260Y-60525660D01*
X83233260Y-59176920D01*
X81634330Y-59176920D01*
X81475580Y-59335670D01*
X79745840Y-59335670D01*
X79587090Y-59176920D01*
X77988160Y-59176920D01*
X77734160Y-59176920D01*
X77714160Y-59176920D01*
X77714160Y-58922920D01*
X77734160Y-58922920D01*
X77734160Y-57574180D01*
X77988160Y-57574180D01*
X77988160Y-58922920D01*
X79587090Y-58922920D01*
X79745840Y-58764170D01*
X79745840Y-57924120D01*
X81475580Y-57924120D01*
X81475580Y-58764170D01*
X81634330Y-58922920D01*
X83233260Y-58922920D01*
X83233260Y-57574180D01*
X83074510Y-57415430D01*
X81984271Y-57415430D01*
X81750882Y-57512103D01*
X81572253Y-57690731D01*
X81475580Y-57924120D01*
X79745840Y-57924120D01*
X79649167Y-57690731D01*
X79470538Y-57512103D01*
X79237149Y-57415430D01*
X78146910Y-57415430D01*
X77988160Y-57574180D01*
X77734160Y-57574180D01*
X77575410Y-57415430D01*
X76732200Y-57415430D01*
X76732200Y-55165197D01*
X76951358Y-55384738D01*
X77287317Y-55524241D01*
X77651087Y-55524558D01*
X77987289Y-55385642D01*
X78244738Y-55128642D01*
X78384241Y-54792683D01*
X78384242Y-54791087D01*
X79095442Y-54791087D01*
X79234358Y-55127289D01*
X79491358Y-55384738D01*
X79827317Y-55524241D01*
X80191087Y-55524558D01*
X80527289Y-55385642D01*
X80784738Y-55128642D01*
X80924241Y-54792683D01*
X80924558Y-54428913D01*
X80785642Y-54092711D01*
X80528642Y-53835262D01*
X80192683Y-53695759D01*
X79828913Y-53695442D01*
X79492711Y-53834358D01*
X79235262Y-54091358D01*
X79095759Y-54427317D01*
X79095442Y-54791087D01*
X78384242Y-54791087D01*
X78384558Y-54428913D01*
X78245642Y-54092711D01*
X77988642Y-53835262D01*
X77652683Y-53695759D01*
X77288913Y-53695442D01*
X76952711Y-53834358D01*
X76732200Y-54054484D01*
X76732200Y-52625197D01*
X76951358Y-52844738D01*
X77287317Y-52984241D01*
X77651087Y-52984558D01*
X77987289Y-52845642D01*
X78244738Y-52588642D01*
X78384241Y-52252683D01*
X78384558Y-51888913D01*
X78245642Y-51552711D01*
X78043860Y-51350576D01*
X79436395Y-51350576D01*
X79235262Y-51551358D01*
G36*
X94367843Y-64150000D02*
X94399723Y-64319428D01*
X94499855Y-64475038D01*
X94652639Y-64579430D01*
X94834000Y-64616157D01*
X95534000Y-64616157D01*
X95703428Y-64584277D01*
X95859038Y-64484145D01*
X95963430Y-64331361D01*
X95972358Y-64287273D01*
X96274005Y-64287536D01*
X96563513Y-64167914D01*
X96621601Y-64109927D01*
X96621601Y-66675001D01*
X96666071Y-66898565D01*
X96748585Y-67022057D01*
X96748464Y-67161136D01*
X96825879Y-67348495D01*
X96679092Y-67201708D01*
X96640439Y-67175881D01*
X96489564Y-67075070D01*
X96266000Y-67030600D01*
X96162783Y-67030600D01*
X96018923Y-66886739D01*
X96029430Y-66871361D01*
X96066157Y-66690000D01*
X96066157Y-65390000D01*
X96034277Y-65220572D01*
X95934145Y-65064962D01*
X95781361Y-64960570D01*
X95600000Y-64923843D01*
X94900000Y-64923843D01*
X94730572Y-64955723D01*
X94574962Y-65055855D01*
X94470570Y-65208639D01*
X94433843Y-65390000D01*
X94433843Y-66690000D01*
X94465723Y-66859428D01*
X94565855Y-67015038D01*
X94697873Y-67105241D01*
X94710270Y-67167564D01*
X94741786Y-67214731D01*
X94836908Y-67357092D01*
X95507706Y-68027889D01*
X95507708Y-68027892D01*
X95651309Y-68123843D01*
X94718000Y-68123843D01*
X94548572Y-68155723D01*
X94392962Y-68255855D01*
X94314486Y-68370709D01*
X94256327Y-68230301D01*
X94077698Y-68051673D01*
X93844309Y-67955000D01*
X93503750Y-67955000D01*
X93345000Y-68113750D01*
X93345000Y-69088000D01*
X93365000Y-69088000D01*
X93365000Y-69342000D01*
X93345000Y-69342000D01*
X93345000Y-69362000D01*
X93091000Y-69362000D01*
X93091000Y-69342000D01*
X92241750Y-69342000D01*
X92083000Y-69500750D01*
X92083000Y-69966310D01*
X92179673Y-70199699D01*
X92358302Y-70378327D01*
X92526585Y-70448032D01*
X90121930Y-70448032D01*
X88137588Y-68463690D01*
X92083000Y-68463690D01*
X92083000Y-68929250D01*
X92241750Y-69088000D01*
X93091000Y-69088000D01*
X93091000Y-68113750D01*
X92932250Y-67955000D01*
X92591691Y-67955000D01*
X92358302Y-68051673D01*
X92179673Y-68230301D01*
X92083000Y-68463690D01*
X88137588Y-68463690D01*
X86690055Y-67016157D01*
X88830000Y-67016157D01*
X88999428Y-66984277D01*
X89155038Y-66884145D01*
X89259430Y-66731361D01*
X89296157Y-66550000D01*
X89296157Y-66461041D01*
X89485222Y-66650106D01*
X89512608Y-66691092D01*
X89702136Y-66817730D01*
X89854003Y-66847938D01*
X89872723Y-66947428D01*
X89972855Y-67103038D01*
X90125639Y-67207430D01*
X90307000Y-67244157D01*
X91557000Y-67244157D01*
X91726428Y-67212277D01*
X91882038Y-67112145D01*
X91986430Y-66959361D01*
X92023157Y-66778000D01*
X92023157Y-65778000D01*
X91991277Y-65608572D01*
X91891145Y-65452962D01*
X91776291Y-65374486D01*
X91916699Y-65316327D01*
X92095327Y-65137698D01*
X92146208Y-65014860D01*
X92314191Y-65183136D01*
X92555448Y-65283314D01*
X92533843Y-65390000D01*
X92533843Y-66474662D01*
X92473946Y-66534454D01*
X92353819Y-66823752D01*
X92353546Y-67136999D01*
X92473168Y-67426507D01*
X92694473Y-67648199D01*
X92983771Y-67768326D01*
X93297018Y-67768599D01*
X93586526Y-67648977D01*
X93808218Y-67427672D01*
X93928345Y-67138374D01*
X93928390Y-67086336D01*
X94025038Y-67024145D01*
X94129430Y-66871361D01*
X94166157Y-66690000D01*
X94166157Y-65390000D01*
X94134277Y-65220572D01*
X94034145Y-65064962D01*
X93881361Y-64960570D01*
X93700000Y-64923843D01*
X93444033Y-64923843D01*
X93548063Y-64673311D01*
X93548113Y-64616157D01*
X93634000Y-64616157D01*
X93803428Y-64584277D01*
X93959038Y-64484145D01*
X94063430Y-64331361D01*
X94100157Y-64150000D01*
X94100157Y-63210027D01*
X94367843Y-62942341D01*
X94367843Y-64150000D01*
X94367843Y-64150000D01*
G37*
X94367843Y-64150000D02*
X94399723Y-64319428D01*
X94499855Y-64475038D01*
X94652639Y-64579430D01*
X94834000Y-64616157D01*
X95534000Y-64616157D01*
X95703428Y-64584277D01*
X95859038Y-64484145D01*
X95963430Y-64331361D01*
X95972358Y-64287273D01*
X96274005Y-64287536D01*
X96563513Y-64167914D01*
X96621601Y-64109927D01*
X96621601Y-66675001D01*
X96666071Y-66898565D01*
X96748585Y-67022057D01*
X96748464Y-67161136D01*
X96825879Y-67348495D01*
X96679092Y-67201708D01*
X96640439Y-67175881D01*
X96489564Y-67075070D01*
X96266000Y-67030600D01*
X96162783Y-67030600D01*
X96018923Y-66886739D01*
X96029430Y-66871361D01*
X96066157Y-66690000D01*
X96066157Y-65390000D01*
X96034277Y-65220572D01*
X95934145Y-65064962D01*
X95781361Y-64960570D01*
X95600000Y-64923843D01*
X94900000Y-64923843D01*
X94730572Y-64955723D01*
X94574962Y-65055855D01*
X94470570Y-65208639D01*
X94433843Y-65390000D01*
X94433843Y-66690000D01*
X94465723Y-66859428D01*
X94565855Y-67015038D01*
X94697873Y-67105241D01*
X94710270Y-67167564D01*
X94741786Y-67214731D01*
X94836908Y-67357092D01*
X95507706Y-68027889D01*
X95507708Y-68027892D01*
X95651309Y-68123843D01*
X94718000Y-68123843D01*
X94548572Y-68155723D01*
X94392962Y-68255855D01*
X94314486Y-68370709D01*
X94256327Y-68230301D01*
X94077698Y-68051673D01*
X93844309Y-67955000D01*
X93503750Y-67955000D01*
X93345000Y-68113750D01*
X93345000Y-69088000D01*
X93365000Y-69088000D01*
X93365000Y-69342000D01*
X93345000Y-69342000D01*
X93345000Y-69362000D01*
X93091000Y-69362000D01*
X93091000Y-69342000D01*
X92241750Y-69342000D01*
X92083000Y-69500750D01*
X92083000Y-69966310D01*
X92179673Y-70199699D01*
X92358302Y-70378327D01*
X92526585Y-70448032D01*
X90121930Y-70448032D01*
X88137588Y-68463690D01*
X92083000Y-68463690D01*
X92083000Y-68929250D01*
X92241750Y-69088000D01*
X93091000Y-69088000D01*
X93091000Y-68113750D01*
X92932250Y-67955000D01*
X92591691Y-67955000D01*
X92358302Y-68051673D01*
X92179673Y-68230301D01*
X92083000Y-68463690D01*
X88137588Y-68463690D01*
X86690055Y-67016157D01*
X88830000Y-67016157D01*
X88999428Y-66984277D01*
X89155038Y-66884145D01*
X89259430Y-66731361D01*
X89296157Y-66550000D01*
X89296157Y-66461041D01*
X89485222Y-66650106D01*
X89512608Y-66691092D01*
X89702136Y-66817730D01*
X89854003Y-66847938D01*
X89872723Y-66947428D01*
X89972855Y-67103038D01*
X90125639Y-67207430D01*
X90307000Y-67244157D01*
X91557000Y-67244157D01*
X91726428Y-67212277D01*
X91882038Y-67112145D01*
X91986430Y-66959361D01*
X92023157Y-66778000D01*
X92023157Y-65778000D01*
X91991277Y-65608572D01*
X91891145Y-65452962D01*
X91776291Y-65374486D01*
X91916699Y-65316327D01*
X92095327Y-65137698D01*
X92146208Y-65014860D01*
X92314191Y-65183136D01*
X92555448Y-65283314D01*
X92533843Y-65390000D01*
X92533843Y-66474662D01*
X92473946Y-66534454D01*
X92353819Y-66823752D01*
X92353546Y-67136999D01*
X92473168Y-67426507D01*
X92694473Y-67648199D01*
X92983771Y-67768326D01*
X93297018Y-67768599D01*
X93586526Y-67648977D01*
X93808218Y-67427672D01*
X93928345Y-67138374D01*
X93928390Y-67086336D01*
X94025038Y-67024145D01*
X94129430Y-66871361D01*
X94166157Y-66690000D01*
X94166157Y-65390000D01*
X94134277Y-65220572D01*
X94034145Y-65064962D01*
X93881361Y-64960570D01*
X93700000Y-64923843D01*
X93444033Y-64923843D01*
X93548063Y-64673311D01*
X93548113Y-64616157D01*
X93634000Y-64616157D01*
X93803428Y-64584277D01*
X93959038Y-64484145D01*
X94063430Y-64331361D01*
X94100157Y-64150000D01*
X94100157Y-63210027D01*
X94367843Y-62942341D01*
X94367843Y-64150000D01*
M02*
