G04 #@! TF.FileFunction,Soldermask,Bot*
%FSLAX46Y46*%
G04 Gerber Fmt 4.6, Leading zero omitted, Abs format (unit mm)*
G04 Created by KiCad (PCBNEW 4.0.5+dfsg1-4~bpo8+1) date Fri May 26 18:42:54 2017*
%MOMM*%
%LPD*%
G01*
G04 APERTURE LIST*
%ADD10C,0.100000*%
%ADD11R,1.004800X1.604800*%
%ADD12R,2.606040X0.805180*%
%ADD13R,2.804160X2.303780*%
%ADD14C,1.203960*%
%ADD15R,1.219200X1.219200*%
%ADD16C,1.219200*%
%ADD17O,1.320800X1.219200*%
%ADD18R,2.704800X2.304800*%
%ADD19R,1.554800X1.304800*%
%ADD20R,1.304800X1.554800*%
G04 APERTURE END LIST*
D10*
D11*
X95184000Y-63500000D03*
X93284000Y-63500000D03*
D12*
X83459320Y-65100200D03*
X83459320Y-64300100D03*
X83459320Y-63500000D03*
X83459320Y-62699900D03*
X83459320Y-61899800D03*
D13*
X83360260Y-67950080D03*
X77861160Y-67950080D03*
X83360260Y-59049920D03*
X77861160Y-59049920D03*
D14*
X80860900Y-65699640D03*
X80860900Y-61300360D03*
D15*
X100330000Y-52070000D03*
X100330000Y-54610000D03*
D16*
X92710000Y-54610000D03*
D15*
X97790000Y-52070000D03*
D16*
X95250000Y-54610000D03*
D15*
X95250000Y-52070000D03*
D16*
X92710000Y-52070000D03*
X97790000Y-54610000D03*
X90170000Y-54610000D03*
X90170000Y-52070000D03*
X87630000Y-52070000D03*
X87630000Y-54610000D03*
X85090000Y-54610000D03*
X85090000Y-52070000D03*
X82550000Y-54610000D03*
X82550000Y-52070000D03*
X80010000Y-54610000D03*
X80010000Y-52070000D03*
X77470000Y-52070000D03*
X77470000Y-54610000D03*
D17*
X95250000Y-74930000D03*
D16*
X97790000Y-72390000D03*
D17*
X100330000Y-74930000D03*
X97790000Y-74930000D03*
D16*
X95250000Y-72390000D03*
X92710000Y-72390000D03*
X100330000Y-72390000D03*
X90170000Y-72390000D03*
X92710000Y-74930000D03*
X87630000Y-72390000D03*
X90170000Y-74930000D03*
X85090000Y-72390000D03*
X87630000Y-74930000D03*
X80010000Y-72390000D03*
X77470000Y-72390000D03*
X85090000Y-74930000D03*
X82550000Y-74930000D03*
X77470000Y-74930000D03*
X82550000Y-72390000D03*
X80010000Y-74930000D03*
D18*
X87630000Y-65550000D03*
X87630000Y-61450000D03*
D19*
X90932000Y-62722000D03*
X90932000Y-60722000D03*
X90932000Y-64278000D03*
X90932000Y-66278000D03*
D20*
X93218000Y-69215000D03*
X95218000Y-69215000D03*
X95218000Y-57785000D03*
X93218000Y-57785000D03*
D11*
X93350000Y-66040000D03*
X95250000Y-66040000D03*
X95184000Y-60960000D03*
X93284000Y-60960000D03*
M02*
