G04 #@! TF.FileFunction,Legend,Top*
%FSLAX46Y46*%
G04 Gerber Fmt 4.6, Leading zero omitted, Abs format (unit mm)*
G04 Created by KiCad (PCBNEW 4.0.4+dfsg1-stable) date Tue Feb 21 23:54:19 2017*
%MOMM*%
%LPD*%
G01*
G04 APERTURE LIST*
%ADD10C,0.100000*%
%ADD11C,0.150000*%
%ADD12C,0.120000*%
%ADD13C,0.127000*%
G04 APERTURE END LIST*
D10*
D11*
X84414918Y-61236458D02*
G75*
G03X84414918Y-61236458I-176918J0D01*
G01*
X83903000Y-60898376D02*
X83903000Y-61573376D01*
X94253000Y-60898376D02*
X94253000Y-61573376D01*
X94253000Y-71248376D02*
X94253000Y-70573376D01*
X83903000Y-71248376D02*
X83903000Y-70573376D01*
X83903000Y-60898376D02*
X84578000Y-60898376D01*
X83903000Y-71248376D02*
X84578000Y-71248376D01*
X94253000Y-71248376D02*
X93578000Y-71248376D01*
X94253000Y-60898376D02*
X93578000Y-60898376D01*
X83903000Y-61573376D02*
X82628000Y-61573376D01*
X97810000Y-69435376D02*
X97310000Y-69435376D01*
X97310000Y-69435376D02*
X97310000Y-62935376D01*
X97310000Y-62935376D02*
X97810000Y-62935376D01*
X100310000Y-62935376D02*
X100810000Y-62935376D01*
X100810000Y-62935376D02*
X100810000Y-69435376D01*
X100810000Y-69435376D02*
X100310000Y-69435376D01*
D12*
X76582000Y-68604376D02*
X76582000Y-64054376D01*
X79882000Y-68604376D02*
X79882000Y-64054376D01*
X76582000Y-68604376D02*
X79882000Y-68604376D01*
D13*
X98304629Y-67206475D02*
X98340914Y-67097618D01*
X98340914Y-66916189D01*
X98304629Y-66843618D01*
X98268343Y-66807332D01*
X98195771Y-66771047D01*
X98123200Y-66771047D01*
X98050629Y-66807332D01*
X98014343Y-66843618D01*
X97978057Y-66916189D01*
X97941771Y-67061332D01*
X97905486Y-67133904D01*
X97869200Y-67170189D01*
X97796629Y-67206475D01*
X97724057Y-67206475D01*
X97651486Y-67170189D01*
X97615200Y-67133904D01*
X97578914Y-67061332D01*
X97578914Y-66879904D01*
X97615200Y-66771047D01*
X97578914Y-66517047D02*
X98340914Y-66335618D01*
X97796629Y-66190475D01*
X98340914Y-66045333D01*
X97578914Y-65863904D01*
X98340914Y-65174476D02*
X98340914Y-65609904D01*
X98340914Y-65392190D02*
X97578914Y-65392190D01*
X97687771Y-65464761D01*
X97760343Y-65537333D01*
X97796629Y-65609904D01*
D11*
X75439143Y-65971042D02*
X75486762Y-66018661D01*
X75534381Y-66161518D01*
X75534381Y-66256756D01*
X75486762Y-66399614D01*
X75391524Y-66494852D01*
X75296286Y-66542471D01*
X75105810Y-66590090D01*
X74962952Y-66590090D01*
X74772476Y-66542471D01*
X74677238Y-66494852D01*
X74582000Y-66399614D01*
X74534381Y-66256756D01*
X74534381Y-66161518D01*
X74582000Y-66018661D01*
X74629619Y-65971042D01*
X74534381Y-65066280D02*
X74534381Y-65542471D01*
X75010571Y-65590090D01*
X74962952Y-65542471D01*
X74915333Y-65447233D01*
X74915333Y-65209137D01*
X74962952Y-65113899D01*
X75010571Y-65066280D01*
X75105810Y-65018661D01*
X75343905Y-65018661D01*
X75439143Y-65066280D01*
X75486762Y-65113899D01*
X75534381Y-65209137D01*
X75534381Y-65447233D01*
X75486762Y-65542471D01*
X75439143Y-65590090D01*
M02*
