G04 #@! TF.FileFunction,Legend,Top*
%FSLAX46Y46*%
G04 Gerber Fmt 4.6, Leading zero omitted, Abs format (unit mm)*
G04 Created by KiCad (PCBNEW 4.0.4+dfsg1-stable) date Sat Feb 25 18:21:58 2017*
%MOMM*%
%LPD*%
G01*
G04 APERTURE LIST*
%ADD10C,0.100000*%
%ADD11C,0.114300*%
%ADD12C,0.127000*%
%ADD13C,0.146050*%
%ADD14C,0.082550*%
%ADD15C,0.150000*%
%ADD16C,0.120000*%
G04 APERTURE END LIST*
D10*
D11*
X80343829Y-65434029D02*
X80126114Y-65586429D01*
X80343829Y-65695286D02*
X79886629Y-65695286D01*
X79886629Y-65521114D01*
X79908400Y-65477572D01*
X79930171Y-65455800D01*
X79973714Y-65434029D01*
X80039029Y-65434029D01*
X80082571Y-65455800D01*
X80104343Y-65477572D01*
X80126114Y-65521114D01*
X80126114Y-65695286D01*
X80343829Y-65172772D02*
X80322057Y-65216314D01*
X80300286Y-65238086D01*
X80256743Y-65259857D01*
X80126114Y-65259857D01*
X80082571Y-65238086D01*
X80060800Y-65216314D01*
X80039029Y-65172772D01*
X80039029Y-65107457D01*
X80060800Y-65063914D01*
X80082571Y-65042143D01*
X80126114Y-65020372D01*
X80256743Y-65020372D01*
X80300286Y-65042143D01*
X80322057Y-65063914D01*
X80343829Y-65107457D01*
X80343829Y-65172772D01*
X80343829Y-64759115D02*
X80322057Y-64802657D01*
X80300286Y-64824429D01*
X80256743Y-64846200D01*
X80126114Y-64846200D01*
X80082571Y-64824429D01*
X80060800Y-64802657D01*
X80039029Y-64759115D01*
X80039029Y-64693800D01*
X80060800Y-64650257D01*
X80082571Y-64628486D01*
X80126114Y-64606715D01*
X80256743Y-64606715D01*
X80300286Y-64628486D01*
X80322057Y-64650257D01*
X80343829Y-64693800D01*
X80343829Y-64759115D01*
X80039029Y-64476086D02*
X80039029Y-64301915D01*
X79886629Y-64410772D02*
X80278514Y-64410772D01*
X80322057Y-64389000D01*
X80343829Y-64345458D01*
X80343829Y-64301915D01*
X80343829Y-63953572D02*
X79886629Y-63953572D01*
X80322057Y-63953572D02*
X80343829Y-63997115D01*
X80343829Y-64084201D01*
X80322057Y-64127743D01*
X80300286Y-64149515D01*
X80256743Y-64171286D01*
X80126114Y-64171286D01*
X80082571Y-64149515D01*
X80060800Y-64127743D01*
X80039029Y-64084201D01*
X80039029Y-63997115D01*
X80060800Y-63953572D01*
X80322057Y-63561686D02*
X80343829Y-63605229D01*
X80343829Y-63692315D01*
X80322057Y-63735858D01*
X80278514Y-63757629D01*
X80104343Y-63757629D01*
X80060800Y-63735858D01*
X80039029Y-63692315D01*
X80039029Y-63605229D01*
X80060800Y-63561686D01*
X80104343Y-63539915D01*
X80147886Y-63539915D01*
X80191429Y-63757629D01*
X80039029Y-63387515D02*
X80343829Y-63278658D01*
X80039029Y-63169800D01*
X80322057Y-62821457D02*
X80343829Y-62865000D01*
X80343829Y-62952086D01*
X80322057Y-62995629D01*
X80278514Y-63017400D01*
X80104343Y-63017400D01*
X80060800Y-62995629D01*
X80039029Y-62952086D01*
X80039029Y-62865000D01*
X80060800Y-62821457D01*
X80104343Y-62799686D01*
X80147886Y-62799686D01*
X80191429Y-63017400D01*
X80343829Y-62538429D02*
X80322057Y-62581971D01*
X80278514Y-62603743D01*
X79886629Y-62603743D01*
X80300286Y-62364257D02*
X80322057Y-62342485D01*
X80343829Y-62364257D01*
X80322057Y-62386028D01*
X80300286Y-62364257D01*
X80343829Y-62364257D01*
X80322057Y-61950600D02*
X80343829Y-61994143D01*
X80343829Y-62081229D01*
X80322057Y-62124771D01*
X80300286Y-62146543D01*
X80256743Y-62168314D01*
X80126114Y-62168314D01*
X80082571Y-62146543D01*
X80060800Y-62124771D01*
X80039029Y-62081229D01*
X80039029Y-61994143D01*
X80060800Y-61950600D01*
X80343829Y-61689343D02*
X80322057Y-61732885D01*
X80300286Y-61754657D01*
X80256743Y-61776428D01*
X80126114Y-61776428D01*
X80082571Y-61754657D01*
X80060800Y-61732885D01*
X80039029Y-61689343D01*
X80039029Y-61624028D01*
X80060800Y-61580485D01*
X80082571Y-61558714D01*
X80126114Y-61536943D01*
X80256743Y-61536943D01*
X80300286Y-61558714D01*
X80322057Y-61580485D01*
X80343829Y-61624028D01*
X80343829Y-61689343D01*
X80908979Y-64193058D02*
X81213779Y-64193058D01*
X80734807Y-64301915D02*
X81061379Y-64410772D01*
X81061379Y-64127744D01*
X80756579Y-63735858D02*
X80756579Y-63953572D01*
X80974293Y-63975343D01*
X80952521Y-63953572D01*
X80930750Y-63910029D01*
X80930750Y-63801172D01*
X80952521Y-63757629D01*
X80974293Y-63735858D01*
X81017836Y-63714086D01*
X81126693Y-63714086D01*
X81170236Y-63735858D01*
X81192007Y-63757629D01*
X81213779Y-63801172D01*
X81213779Y-63910029D01*
X81192007Y-63953572D01*
X81170236Y-63975343D01*
X80756579Y-63300429D02*
X80756579Y-63518143D01*
X80974293Y-63539914D01*
X80952521Y-63518143D01*
X80930750Y-63474600D01*
X80930750Y-63365743D01*
X80952521Y-63322200D01*
X80974293Y-63300429D01*
X81017836Y-63278657D01*
X81126693Y-63278657D01*
X81170236Y-63300429D01*
X81192007Y-63322200D01*
X81213779Y-63365743D01*
X81213779Y-63474600D01*
X81192007Y-63518143D01*
X81170236Y-63539914D01*
X80756579Y-62995628D02*
X80756579Y-62952085D01*
X80778350Y-62908542D01*
X80800121Y-62886771D01*
X80843664Y-62865000D01*
X80930750Y-62843228D01*
X81039607Y-62843228D01*
X81126693Y-62865000D01*
X81170236Y-62886771D01*
X81192007Y-62908542D01*
X81213779Y-62952085D01*
X81213779Y-62995628D01*
X81192007Y-63039171D01*
X81170236Y-63060942D01*
X81126693Y-63082714D01*
X81039607Y-63104485D01*
X80930750Y-63104485D01*
X80843664Y-63082714D01*
X80800121Y-63060942D01*
X80778350Y-63039171D01*
X80756579Y-62995628D01*
X82013879Y-65880342D02*
X81556679Y-65880342D01*
X81556679Y-65706170D01*
X81578450Y-65662628D01*
X81600221Y-65640856D01*
X81643764Y-65619085D01*
X81709079Y-65619085D01*
X81752621Y-65640856D01*
X81774393Y-65662628D01*
X81796164Y-65706170D01*
X81796164Y-65880342D01*
X82013879Y-65423142D02*
X81709079Y-65423142D01*
X81556679Y-65423142D02*
X81578450Y-65444913D01*
X81600221Y-65423142D01*
X81578450Y-65401370D01*
X81556679Y-65423142D01*
X81600221Y-65423142D01*
X81709079Y-65205428D02*
X82013879Y-65205428D01*
X81752621Y-65205428D02*
X81730850Y-65183656D01*
X81709079Y-65140114D01*
X81709079Y-65074799D01*
X81730850Y-65031256D01*
X81774393Y-65009485D01*
X82013879Y-65009485D01*
X81709079Y-64595828D02*
X82079193Y-64595828D01*
X82122736Y-64617599D01*
X82144507Y-64639371D01*
X82166279Y-64682914D01*
X82166279Y-64748228D01*
X82144507Y-64791771D01*
X81992107Y-64595828D02*
X82013879Y-64639371D01*
X82013879Y-64726457D01*
X81992107Y-64769999D01*
X81970336Y-64791771D01*
X81926793Y-64813542D01*
X81796164Y-64813542D01*
X81752621Y-64791771D01*
X81730850Y-64769999D01*
X81709079Y-64726457D01*
X81709079Y-64639371D01*
X81730850Y-64595828D01*
X81709079Y-64182171D02*
X82013879Y-64182171D01*
X81709079Y-64378114D02*
X81948564Y-64378114D01*
X81992107Y-64356342D01*
X82013879Y-64312800D01*
X82013879Y-64247485D01*
X81992107Y-64203942D01*
X81970336Y-64182171D01*
X82013879Y-63964457D02*
X81709079Y-63964457D01*
X81556679Y-63964457D02*
X81578450Y-63986228D01*
X81600221Y-63964457D01*
X81578450Y-63942685D01*
X81556679Y-63964457D01*
X81600221Y-63964457D01*
X81709079Y-63746743D02*
X82013879Y-63746743D01*
X81752621Y-63746743D02*
X81730850Y-63724971D01*
X81709079Y-63681429D01*
X81709079Y-63616114D01*
X81730850Y-63572571D01*
X81774393Y-63550800D01*
X82013879Y-63550800D01*
X82013879Y-63267772D02*
X81992107Y-63311314D01*
X81970336Y-63333086D01*
X81926793Y-63354857D01*
X81796164Y-63354857D01*
X81752621Y-63333086D01*
X81730850Y-63311314D01*
X81709079Y-63267772D01*
X81709079Y-63202457D01*
X81730850Y-63158914D01*
X81752621Y-63137143D01*
X81796164Y-63115372D01*
X81926793Y-63115372D01*
X81970336Y-63137143D01*
X81992107Y-63158914D01*
X82013879Y-63202457D01*
X82013879Y-63267772D01*
X81992107Y-62592857D02*
X82013879Y-62527543D01*
X82013879Y-62418686D01*
X81992107Y-62375143D01*
X81970336Y-62353372D01*
X81926793Y-62331600D01*
X81883250Y-62331600D01*
X81839707Y-62353372D01*
X81817936Y-62375143D01*
X81796164Y-62418686D01*
X81774393Y-62505772D01*
X81752621Y-62549314D01*
X81730850Y-62571086D01*
X81687307Y-62592857D01*
X81643764Y-62592857D01*
X81600221Y-62571086D01*
X81578450Y-62549314D01*
X81556679Y-62505772D01*
X81556679Y-62396914D01*
X81578450Y-62331600D01*
X82013879Y-62135657D02*
X81556679Y-62135657D01*
X81883250Y-61983257D01*
X81556679Y-61830857D01*
X82013879Y-61830857D01*
X82013879Y-61613143D02*
X81556679Y-61613143D01*
X81556679Y-61504286D01*
X81578450Y-61438971D01*
X81621993Y-61395429D01*
X81665536Y-61373657D01*
X81752621Y-61351886D01*
X81817936Y-61351886D01*
X81905021Y-61373657D01*
X81948564Y-61395429D01*
X81992107Y-61438971D01*
X82013879Y-61504286D01*
X82013879Y-61613143D01*
X82900762Y-53491190D02*
X82610476Y-53491190D01*
X82755619Y-52983190D02*
X82755619Y-53491190D01*
X82489524Y-52983190D02*
X82223428Y-53321857D01*
X82489524Y-53321857D02*
X82223428Y-52983190D01*
X82598381Y-55523190D02*
X82767714Y-55765095D01*
X82888667Y-55523190D02*
X82888667Y-56031190D01*
X82695143Y-56031190D01*
X82646762Y-56007000D01*
X82622571Y-55982810D01*
X82598381Y-55934429D01*
X82598381Y-55861857D01*
X82622571Y-55813476D01*
X82646762Y-55789286D01*
X82695143Y-55765095D01*
X82888667Y-55765095D01*
X82429048Y-55523190D02*
X82162952Y-55861857D01*
X82429048Y-55861857D02*
X82162952Y-55523190D01*
X95612857Y-55668333D02*
X95370952Y-55668333D01*
X95661238Y-55523190D02*
X95491905Y-56031190D01*
X95322571Y-55523190D01*
X95201619Y-56031190D02*
X94862952Y-56031190D01*
X95080666Y-55523190D01*
X98537486Y-56467829D02*
X98537486Y-56010629D01*
X98711658Y-56010629D01*
X98755200Y-56032400D01*
X98776972Y-56054171D01*
X98798743Y-56097714D01*
X98798743Y-56163029D01*
X98776972Y-56206571D01*
X98755200Y-56228343D01*
X98711658Y-56250114D01*
X98537486Y-56250114D01*
X99060000Y-56467829D02*
X99016458Y-56446057D01*
X98994686Y-56424286D01*
X98972915Y-56380743D01*
X98972915Y-56250114D01*
X98994686Y-56206571D01*
X99016458Y-56184800D01*
X99060000Y-56163029D01*
X99125315Y-56163029D01*
X99168858Y-56184800D01*
X99190629Y-56206571D01*
X99212400Y-56250114D01*
X99212400Y-56380743D01*
X99190629Y-56424286D01*
X99168858Y-56446057D01*
X99125315Y-56467829D01*
X99060000Y-56467829D01*
X99364800Y-56163029D02*
X99451886Y-56467829D01*
X99538972Y-56250114D01*
X99626057Y-56467829D01*
X99713143Y-56163029D01*
X100061486Y-56446057D02*
X100017943Y-56467829D01*
X99930857Y-56467829D01*
X99887314Y-56446057D01*
X99865543Y-56402514D01*
X99865543Y-56228343D01*
X99887314Y-56184800D01*
X99930857Y-56163029D01*
X100017943Y-56163029D01*
X100061486Y-56184800D01*
X100083257Y-56228343D01*
X100083257Y-56271886D01*
X99865543Y-56315429D01*
X100279200Y-56467829D02*
X100279200Y-56163029D01*
X100279200Y-56250114D02*
X100300972Y-56206571D01*
X100322743Y-56184800D01*
X100366286Y-56163029D01*
X100409829Y-56163029D01*
X99168857Y-68659829D02*
X99016457Y-68442114D01*
X98907600Y-68659829D02*
X98907600Y-68202629D01*
X99081772Y-68202629D01*
X99125314Y-68224400D01*
X99147086Y-68246171D01*
X99168857Y-68289714D01*
X99168857Y-68355029D01*
X99147086Y-68398571D01*
X99125314Y-68420343D01*
X99081772Y-68442114D01*
X98907600Y-68442114D01*
X99560743Y-68355029D02*
X99560743Y-68659829D01*
X99364800Y-68355029D02*
X99364800Y-68594514D01*
X99386572Y-68638057D01*
X99430114Y-68659829D01*
X99495429Y-68659829D01*
X99538972Y-68638057D01*
X99560743Y-68616286D01*
X99778457Y-68355029D02*
X99778457Y-68659829D01*
X99778457Y-68398571D02*
X99800229Y-68376800D01*
X99843771Y-68355029D01*
X99909086Y-68355029D01*
X99952629Y-68376800D01*
X99974400Y-68420343D01*
X99974400Y-68659829D01*
D12*
X76351190Y-52457048D02*
X76327000Y-52432858D01*
X76302810Y-52384477D01*
X76302810Y-52263524D01*
X76327000Y-52215143D01*
X76351190Y-52190953D01*
X76399571Y-52166762D01*
X76447952Y-52166762D01*
X76520524Y-52190953D01*
X76810810Y-52481239D01*
X76810810Y-52166762D01*
X76302810Y-51997429D02*
X76302810Y-51658762D01*
X76810810Y-51876476D01*
D11*
X98936629Y-75539600D02*
X99393829Y-75387200D01*
X98936629Y-75234800D01*
X99350286Y-74821143D02*
X99372057Y-74842914D01*
X99393829Y-74908228D01*
X99393829Y-74951771D01*
X99372057Y-75017086D01*
X99328514Y-75060628D01*
X99284971Y-75082400D01*
X99197886Y-75104171D01*
X99132571Y-75104171D01*
X99045486Y-75082400D01*
X99001943Y-75060628D01*
X98958400Y-75017086D01*
X98936629Y-74951771D01*
X98936629Y-74908228D01*
X98958400Y-74842914D01*
X98980171Y-74821143D01*
X99350286Y-74363943D02*
X99372057Y-74385714D01*
X99393829Y-74451028D01*
X99393829Y-74494571D01*
X99372057Y-74559886D01*
X99328514Y-74603428D01*
X99284971Y-74625200D01*
X99197886Y-74646971D01*
X99132571Y-74646971D01*
X99045486Y-74625200D01*
X99001943Y-74603428D01*
X98958400Y-74559886D01*
X98936629Y-74494571D01*
X98936629Y-74451028D01*
X98958400Y-74385714D01*
X98980171Y-74363943D01*
X96396629Y-75539600D02*
X96853829Y-75387200D01*
X96396629Y-75234800D01*
X96810286Y-74821143D02*
X96832057Y-74842914D01*
X96853829Y-74908228D01*
X96853829Y-74951771D01*
X96832057Y-75017086D01*
X96788514Y-75060628D01*
X96744971Y-75082400D01*
X96657886Y-75104171D01*
X96592571Y-75104171D01*
X96505486Y-75082400D01*
X96461943Y-75060628D01*
X96418400Y-75017086D01*
X96396629Y-74951771D01*
X96396629Y-74908228D01*
X96418400Y-74842914D01*
X96440171Y-74821143D01*
X96810286Y-74363943D02*
X96832057Y-74385714D01*
X96853829Y-74451028D01*
X96853829Y-74494571D01*
X96832057Y-74559886D01*
X96788514Y-74603428D01*
X96744971Y-74625200D01*
X96657886Y-74646971D01*
X96592571Y-74646971D01*
X96505486Y-74625200D01*
X96461943Y-74603428D01*
X96418400Y-74559886D01*
X96396629Y-74494571D01*
X96396629Y-74451028D01*
X96418400Y-74385714D01*
X96440171Y-74363943D01*
X93856629Y-75539600D02*
X94313829Y-75387200D01*
X93856629Y-75234800D01*
X94270286Y-74821143D02*
X94292057Y-74842914D01*
X94313829Y-74908228D01*
X94313829Y-74951771D01*
X94292057Y-75017086D01*
X94248514Y-75060628D01*
X94204971Y-75082400D01*
X94117886Y-75104171D01*
X94052571Y-75104171D01*
X93965486Y-75082400D01*
X93921943Y-75060628D01*
X93878400Y-75017086D01*
X93856629Y-74951771D01*
X93856629Y-74908228D01*
X93878400Y-74842914D01*
X93900171Y-74821143D01*
X94270286Y-74363943D02*
X94292057Y-74385714D01*
X94313829Y-74451028D01*
X94313829Y-74494571D01*
X94292057Y-74559886D01*
X94248514Y-74603428D01*
X94204971Y-74625200D01*
X94117886Y-74646971D01*
X94052571Y-74646971D01*
X93965486Y-74625200D01*
X93921943Y-74603428D01*
X93878400Y-74559886D01*
X93856629Y-74494571D01*
X93856629Y-74451028D01*
X93878400Y-74385714D01*
X93900171Y-74363943D01*
D13*
X99451281Y-72501276D02*
X99451281Y-72835105D01*
X99451281Y-72668191D02*
X98867081Y-72668191D01*
X98950538Y-72723829D01*
X99006176Y-72779467D01*
X99033995Y-72835105D01*
X99117452Y-72167448D02*
X99089633Y-72223086D01*
X99061814Y-72250905D01*
X99006176Y-72278724D01*
X98978357Y-72278724D01*
X98922719Y-72250905D01*
X98894900Y-72223086D01*
X98867081Y-72167448D01*
X98867081Y-72056171D01*
X98894900Y-72000533D01*
X98922719Y-71972714D01*
X98978357Y-71944895D01*
X99006176Y-71944895D01*
X99061814Y-71972714D01*
X99089633Y-72000533D01*
X99117452Y-72056171D01*
X99117452Y-72167448D01*
X99145271Y-72223086D01*
X99173090Y-72250905D01*
X99228729Y-72278724D01*
X99340005Y-72278724D01*
X99395643Y-72250905D01*
X99423462Y-72223086D01*
X99451281Y-72167448D01*
X99451281Y-72056171D01*
X99423462Y-72000533D01*
X99395643Y-71972714D01*
X99340005Y-71944895D01*
X99228729Y-71944895D01*
X99173090Y-71972714D01*
X99145271Y-72000533D01*
X99117452Y-72056171D01*
X96911281Y-72501276D02*
X96911281Y-72835105D01*
X96911281Y-72668191D02*
X96327081Y-72668191D01*
X96410538Y-72723829D01*
X96466176Y-72779467D01*
X96493995Y-72835105D01*
X96327081Y-72306543D02*
X96327081Y-71917076D01*
X96911281Y-72167448D01*
X94371281Y-72501276D02*
X94371281Y-72835105D01*
X94371281Y-72668191D02*
X93787081Y-72668191D01*
X93870538Y-72723829D01*
X93926176Y-72779467D01*
X93953995Y-72835105D01*
X94371281Y-72223086D02*
X94371281Y-72111810D01*
X94343462Y-72056171D01*
X94315643Y-72028352D01*
X94232186Y-71972714D01*
X94120910Y-71944895D01*
X93898357Y-71944895D01*
X93842719Y-71972714D01*
X93814900Y-72000533D01*
X93787081Y-72056171D01*
X93787081Y-72167448D01*
X93814900Y-72223086D01*
X93842719Y-72250905D01*
X93898357Y-72278724D01*
X94037452Y-72278724D01*
X94093090Y-72250905D01*
X94120910Y-72223086D01*
X94148729Y-72167448D01*
X94148729Y-72056171D01*
X94120910Y-72000533D01*
X94093090Y-71972714D01*
X94037452Y-71944895D01*
X91831281Y-75041276D02*
X91831281Y-75375105D01*
X91831281Y-75208191D02*
X91247081Y-75208191D01*
X91330538Y-75263829D01*
X91386176Y-75319467D01*
X91413995Y-75375105D01*
X91247081Y-74540533D02*
X91247081Y-74651810D01*
X91274900Y-74707448D01*
X91302719Y-74735267D01*
X91386176Y-74790905D01*
X91497452Y-74818724D01*
X91720005Y-74818724D01*
X91775643Y-74790905D01*
X91803462Y-74763086D01*
X91831281Y-74707448D01*
X91831281Y-74596171D01*
X91803462Y-74540533D01*
X91775643Y-74512714D01*
X91720005Y-74484895D01*
X91580910Y-74484895D01*
X91525271Y-74512714D01*
X91497452Y-74540533D01*
X91469633Y-74596171D01*
X91469633Y-74707448D01*
X91497452Y-74763086D01*
X91525271Y-74790905D01*
X91580910Y-74818724D01*
X91831281Y-72501276D02*
X91831281Y-72835105D01*
X91831281Y-72668191D02*
X91247081Y-72668191D01*
X91330538Y-72723829D01*
X91386176Y-72779467D01*
X91413995Y-72835105D01*
X91247081Y-71972714D02*
X91247081Y-72250905D01*
X91525271Y-72278724D01*
X91497452Y-72250905D01*
X91469633Y-72195267D01*
X91469633Y-72056171D01*
X91497452Y-72000533D01*
X91525271Y-71972714D01*
X91580910Y-71944895D01*
X91720005Y-71944895D01*
X91775643Y-71972714D01*
X91803462Y-72000533D01*
X91831281Y-72056171D01*
X91831281Y-72195267D01*
X91803462Y-72250905D01*
X91775643Y-72278724D01*
D12*
X99967143Y-71458667D02*
X100209048Y-71458667D01*
X99918762Y-71603810D02*
X100088095Y-71095810D01*
X100257429Y-71603810D01*
X100668667Y-71095810D02*
X100426762Y-71095810D01*
X100402572Y-71337714D01*
X100426762Y-71313524D01*
X100475143Y-71289333D01*
X100596096Y-71289333D01*
X100644477Y-71313524D01*
X100668667Y-71337714D01*
X100692858Y-71386095D01*
X100692858Y-71507048D01*
X100668667Y-71555429D01*
X100644477Y-71579619D01*
X100596096Y-71603810D01*
X100475143Y-71603810D01*
X100426762Y-71579619D01*
X100402572Y-71555429D01*
X97427143Y-71458667D02*
X97669048Y-71458667D01*
X97378762Y-71603810D02*
X97548095Y-71095810D01*
X97717429Y-71603810D01*
X98104477Y-71265143D02*
X98104477Y-71603810D01*
X97983524Y-71071619D02*
X97862572Y-71434476D01*
X98177048Y-71434476D01*
X94887143Y-71458667D02*
X95129048Y-71458667D01*
X94838762Y-71603810D02*
X95008095Y-71095810D01*
X95177429Y-71603810D01*
X95564477Y-71095810D02*
X95467715Y-71095810D01*
X95419334Y-71120000D01*
X95395143Y-71144190D01*
X95346762Y-71216762D01*
X95322572Y-71313524D01*
X95322572Y-71507048D01*
X95346762Y-71555429D01*
X95370953Y-71579619D01*
X95419334Y-71603810D01*
X95516096Y-71603810D01*
X95564477Y-71579619D01*
X95588667Y-71555429D01*
X95612858Y-71507048D01*
X95612858Y-71386095D01*
X95588667Y-71337714D01*
X95564477Y-71313524D01*
X95516096Y-71289333D01*
X95419334Y-71289333D01*
X95370953Y-71313524D01*
X95346762Y-71337714D01*
X95322572Y-71386095D01*
X92347143Y-71458667D02*
X92589048Y-71458667D01*
X92298762Y-71603810D02*
X92468095Y-71095810D01*
X92637429Y-71603810D01*
X92782572Y-71144190D02*
X92806762Y-71120000D01*
X92855143Y-71095810D01*
X92976096Y-71095810D01*
X93024477Y-71120000D01*
X93048667Y-71144190D01*
X93072858Y-71192571D01*
X93072858Y-71240952D01*
X93048667Y-71313524D01*
X92758381Y-71603810D01*
X93072858Y-71603810D01*
X92347143Y-73998667D02*
X92589048Y-73998667D01*
X92298762Y-74143810D02*
X92468095Y-73635810D01*
X92637429Y-74143810D01*
X92758381Y-73635810D02*
X93072858Y-73635810D01*
X92903524Y-73829333D01*
X92976096Y-73829333D01*
X93024477Y-73853524D01*
X93048667Y-73877714D01*
X93072858Y-73926095D01*
X93072858Y-74047048D01*
X93048667Y-74095429D01*
X93024477Y-74119619D01*
X92976096Y-74143810D01*
X92830953Y-74143810D01*
X92782572Y-74119619D01*
X92758381Y-74095429D01*
D13*
X89291281Y-75041276D02*
X89291281Y-75375105D01*
X89291281Y-75208191D02*
X88707081Y-75208191D01*
X88790538Y-75263829D01*
X88846176Y-75319467D01*
X88873995Y-75375105D01*
X88901814Y-74540533D02*
X89291281Y-74540533D01*
X88679262Y-74679629D02*
X89096548Y-74818724D01*
X89096548Y-74457076D01*
D12*
X89807143Y-73998667D02*
X90049048Y-73998667D01*
X89758762Y-74143810D02*
X89928095Y-73635810D01*
X90097429Y-74143810D01*
X90532858Y-74143810D02*
X90242572Y-74143810D01*
X90387715Y-74143810D02*
X90387715Y-73635810D01*
X90339334Y-73708381D01*
X90290953Y-73756762D01*
X90242572Y-73780952D01*
X89807143Y-71458667D02*
X90049048Y-71458667D01*
X89758762Y-71603810D02*
X89928095Y-71095810D01*
X90097429Y-71603810D01*
X90363524Y-71095810D02*
X90411905Y-71095810D01*
X90460286Y-71120000D01*
X90484477Y-71144190D01*
X90508667Y-71192571D01*
X90532858Y-71289333D01*
X90532858Y-71410286D01*
X90508667Y-71507048D01*
X90484477Y-71555429D01*
X90460286Y-71579619D01*
X90411905Y-71603810D01*
X90363524Y-71603810D01*
X90315143Y-71579619D01*
X90290953Y-71555429D01*
X90266762Y-71507048D01*
X90242572Y-71410286D01*
X90242572Y-71289333D01*
X90266762Y-71192571D01*
X90290953Y-71144190D01*
X90315143Y-71120000D01*
X90363524Y-71095810D01*
D13*
X89291281Y-72501276D02*
X89291281Y-72835105D01*
X89291281Y-72668191D02*
X88707081Y-72668191D01*
X88790538Y-72723829D01*
X88846176Y-72779467D01*
X88873995Y-72835105D01*
X88707081Y-72306543D02*
X88707081Y-71944895D01*
X88929633Y-72139629D01*
X88929633Y-72056171D01*
X88957452Y-72000533D01*
X88985271Y-71972714D01*
X89040910Y-71944895D01*
X89180005Y-71944895D01*
X89235643Y-71972714D01*
X89263462Y-72000533D01*
X89291281Y-72056171D01*
X89291281Y-72223086D01*
X89263462Y-72278724D01*
X89235643Y-72306543D01*
X86167081Y-72278723D02*
X86167081Y-72390000D01*
X86194900Y-72445638D01*
X86222719Y-72473457D01*
X86306176Y-72529095D01*
X86417452Y-72556914D01*
X86640005Y-72556914D01*
X86695643Y-72529095D01*
X86723462Y-72501276D01*
X86751281Y-72445638D01*
X86751281Y-72334361D01*
X86723462Y-72278723D01*
X86695643Y-72250904D01*
X86640005Y-72223085D01*
X86500910Y-72223085D01*
X86445271Y-72250904D01*
X86417452Y-72278723D01*
X86389633Y-72334361D01*
X86389633Y-72445638D01*
X86417452Y-72501276D01*
X86445271Y-72529095D01*
X86500910Y-72556914D01*
X86167081Y-75124733D02*
X86167081Y-74735266D01*
X86751281Y-74985638D01*
X83627081Y-74790904D02*
X83627081Y-75069095D01*
X83905271Y-75096914D01*
X83877452Y-75069095D01*
X83849633Y-75013457D01*
X83849633Y-74874361D01*
X83877452Y-74818723D01*
X83905271Y-74790904D01*
X83960910Y-74763085D01*
X84100005Y-74763085D01*
X84155643Y-74790904D01*
X84183462Y-74818723D01*
X84211281Y-74874361D01*
X84211281Y-75013457D01*
X84183462Y-75069095D01*
X84155643Y-75096914D01*
X83821814Y-72278723D02*
X84211281Y-72278723D01*
X83599262Y-72417819D02*
X84016548Y-72556914D01*
X84016548Y-72195266D01*
D14*
X81683376Y-75346681D02*
X81353176Y-75346681D01*
X81353176Y-75220890D01*
X81368900Y-75189443D01*
X81384624Y-75173719D01*
X81416071Y-75157995D01*
X81463243Y-75157995D01*
X81494690Y-75173719D01*
X81510414Y-75189443D01*
X81526138Y-75220890D01*
X81526138Y-75346681D01*
X81368900Y-74843519D02*
X81353176Y-74874967D01*
X81353176Y-74922138D01*
X81368900Y-74969310D01*
X81400348Y-75000757D01*
X81431795Y-75016481D01*
X81494690Y-75032205D01*
X81541862Y-75032205D01*
X81604757Y-75016481D01*
X81636205Y-75000757D01*
X81667652Y-74969310D01*
X81683376Y-74922138D01*
X81683376Y-74890690D01*
X81667652Y-74843519D01*
X81651929Y-74827795D01*
X81541862Y-74827795D01*
X81541862Y-74890690D01*
X81683376Y-74686281D02*
X81353176Y-74686281D01*
X81353176Y-74607662D01*
X81368900Y-74560490D01*
X81400348Y-74529043D01*
X81431795Y-74513319D01*
X81494690Y-74497595D01*
X81541862Y-74497595D01*
X81604757Y-74513319D01*
X81636205Y-74529043D01*
X81667652Y-74560490D01*
X81683376Y-74607662D01*
X81683376Y-74686281D01*
X81683376Y-72806681D02*
X81353176Y-72806681D01*
X81353176Y-72680890D01*
X81368900Y-72649443D01*
X81384624Y-72633719D01*
X81416071Y-72617995D01*
X81463243Y-72617995D01*
X81494690Y-72633719D01*
X81510414Y-72649443D01*
X81526138Y-72680890D01*
X81526138Y-72806681D01*
X81368900Y-72303519D02*
X81353176Y-72334967D01*
X81353176Y-72382138D01*
X81368900Y-72429310D01*
X81400348Y-72460757D01*
X81431795Y-72476481D01*
X81494690Y-72492205D01*
X81541862Y-72492205D01*
X81604757Y-72476481D01*
X81636205Y-72460757D01*
X81667652Y-72429310D01*
X81683376Y-72382138D01*
X81683376Y-72350690D01*
X81667652Y-72303519D01*
X81651929Y-72287795D01*
X81541862Y-72287795D01*
X81541862Y-72350690D01*
X81651929Y-71957595D02*
X81667652Y-71973319D01*
X81683376Y-72020490D01*
X81683376Y-72051938D01*
X81667652Y-72099110D01*
X81636205Y-72130557D01*
X81604757Y-72146281D01*
X81541862Y-72162005D01*
X81494690Y-72162005D01*
X81431795Y-72146281D01*
X81400348Y-72130557D01*
X81368900Y-72099110D01*
X81353176Y-72051938D01*
X81353176Y-72020490D01*
X81368900Y-71973319D01*
X81384624Y-71957595D01*
D13*
X78547081Y-72584733D02*
X78547081Y-72223085D01*
X78769633Y-72417819D01*
X78769633Y-72334361D01*
X78797452Y-72278723D01*
X78825271Y-72250904D01*
X78880910Y-72223085D01*
X79020005Y-72223085D01*
X79075643Y-72250904D01*
X79103462Y-72278723D01*
X79131281Y-72334361D01*
X79131281Y-72501276D01*
X79103462Y-72556914D01*
X79075643Y-72584733D01*
X78547081Y-74957819D02*
X78547081Y-74902180D01*
X78574900Y-74846542D01*
X78602719Y-74818723D01*
X78658357Y-74790904D01*
X78769633Y-74763085D01*
X78908729Y-74763085D01*
X79020005Y-74790904D01*
X79075643Y-74818723D01*
X79103462Y-74846542D01*
X79131281Y-74902180D01*
X79131281Y-74957819D01*
X79103462Y-75013457D01*
X79075643Y-75041276D01*
X79020005Y-75069095D01*
X78908729Y-75096914D01*
X78769633Y-75096914D01*
X78658357Y-75069095D01*
X78602719Y-75041276D01*
X78574900Y-75013457D01*
X78547081Y-74957819D01*
D11*
X79454829Y-73972057D02*
X79520143Y-73993829D01*
X79629000Y-73993829D01*
X79672543Y-73972057D01*
X79694314Y-73950286D01*
X79716086Y-73906743D01*
X79716086Y-73863200D01*
X79694314Y-73819657D01*
X79672543Y-73797886D01*
X79629000Y-73776114D01*
X79541914Y-73754343D01*
X79498372Y-73732571D01*
X79476600Y-73710800D01*
X79454829Y-73667257D01*
X79454829Y-73623714D01*
X79476600Y-73580171D01*
X79498372Y-73558400D01*
X79541914Y-73536629D01*
X79650772Y-73536629D01*
X79716086Y-73558400D01*
X79912029Y-73993829D02*
X79912029Y-73536629D01*
X80020886Y-73536629D01*
X80086201Y-73558400D01*
X80129743Y-73601943D01*
X80151515Y-73645486D01*
X80173286Y-73732571D01*
X80173286Y-73797886D01*
X80151515Y-73884971D01*
X80129743Y-73928514D01*
X80086201Y-73972057D01*
X80020886Y-73993829D01*
X79912029Y-73993829D01*
X80347458Y-73863200D02*
X80565172Y-73863200D01*
X80303915Y-73993829D02*
X80456315Y-73536629D01*
X80608715Y-73993829D01*
X76925715Y-73972057D02*
X76991029Y-73993829D01*
X77099886Y-73993829D01*
X77143429Y-73972057D01*
X77165200Y-73950286D01*
X77186972Y-73906743D01*
X77186972Y-73863200D01*
X77165200Y-73819657D01*
X77143429Y-73797886D01*
X77099886Y-73776114D01*
X77012800Y-73754343D01*
X76969258Y-73732571D01*
X76947486Y-73710800D01*
X76925715Y-73667257D01*
X76925715Y-73623714D01*
X76947486Y-73580171D01*
X76969258Y-73558400D01*
X77012800Y-73536629D01*
X77121658Y-73536629D01*
X77186972Y-73558400D01*
X77644172Y-73950286D02*
X77622401Y-73972057D01*
X77557087Y-73993829D01*
X77513544Y-73993829D01*
X77448229Y-73972057D01*
X77404687Y-73928514D01*
X77382915Y-73884971D01*
X77361144Y-73797886D01*
X77361144Y-73732571D01*
X77382915Y-73645486D01*
X77404687Y-73601943D01*
X77448229Y-73558400D01*
X77513544Y-73536629D01*
X77557087Y-73536629D01*
X77622401Y-73558400D01*
X77644172Y-73580171D01*
X78057829Y-73993829D02*
X77840115Y-73993829D01*
X77840115Y-73536629D01*
D12*
X76810810Y-74784857D02*
X76810810Y-75075143D01*
X76810810Y-74930000D02*
X76302810Y-74930000D01*
X76375381Y-74978381D01*
X76423762Y-75026762D01*
X76447952Y-75075143D01*
X76351190Y-72535143D02*
X76327000Y-72510953D01*
X76302810Y-72462572D01*
X76302810Y-72341619D01*
X76327000Y-72293238D01*
X76351190Y-72269048D01*
X76399571Y-72244857D01*
X76447952Y-72244857D01*
X76520524Y-72269048D01*
X76810810Y-72559334D01*
X76810810Y-72244857D01*
D11*
X98831400Y-54958342D02*
X98809629Y-55001885D01*
X98809629Y-55067199D01*
X98831400Y-55132514D01*
X98874943Y-55176056D01*
X98918486Y-55197828D01*
X99005571Y-55219599D01*
X99070886Y-55219599D01*
X99157971Y-55197828D01*
X99201514Y-55176056D01*
X99245057Y-55132514D01*
X99266829Y-55067199D01*
X99266829Y-55023656D01*
X99245057Y-54958342D01*
X99223286Y-54936571D01*
X99070886Y-54936571D01*
X99070886Y-55023656D01*
X99266829Y-54740628D02*
X98809629Y-54740628D01*
X99266829Y-54479371D01*
X98809629Y-54479371D01*
X99266829Y-54261657D02*
X98809629Y-54261657D01*
X98809629Y-54152800D01*
X98831400Y-54087485D01*
X98874943Y-54043943D01*
X98918486Y-54022171D01*
X99005571Y-54000400D01*
X99070886Y-54000400D01*
X99157971Y-54022171D01*
X99201514Y-54043943D01*
X99245057Y-54087485D01*
X99266829Y-54152800D01*
X99266829Y-54261657D01*
X98831400Y-52418342D02*
X98809629Y-52461885D01*
X98809629Y-52527199D01*
X98831400Y-52592514D01*
X98874943Y-52636056D01*
X98918486Y-52657828D01*
X99005571Y-52679599D01*
X99070886Y-52679599D01*
X99157971Y-52657828D01*
X99201514Y-52636056D01*
X99245057Y-52592514D01*
X99266829Y-52527199D01*
X99266829Y-52483656D01*
X99245057Y-52418342D01*
X99223286Y-52396571D01*
X99070886Y-52396571D01*
X99070886Y-52483656D01*
X99266829Y-52200628D02*
X98809629Y-52200628D01*
X99266829Y-51939371D01*
X98809629Y-51939371D01*
X99266829Y-51721657D02*
X98809629Y-51721657D01*
X98809629Y-51612800D01*
X98831400Y-51547485D01*
X98874943Y-51503943D01*
X98918486Y-51482171D01*
X99005571Y-51460400D01*
X99070886Y-51460400D01*
X99157971Y-51482171D01*
X99201514Y-51503943D01*
X99245057Y-51547485D01*
X99266829Y-51612800D01*
X99266829Y-51721657D01*
X96291400Y-52418342D02*
X96269629Y-52461885D01*
X96269629Y-52527199D01*
X96291400Y-52592514D01*
X96334943Y-52636056D01*
X96378486Y-52657828D01*
X96465571Y-52679599D01*
X96530886Y-52679599D01*
X96617971Y-52657828D01*
X96661514Y-52636056D01*
X96705057Y-52592514D01*
X96726829Y-52527199D01*
X96726829Y-52483656D01*
X96705057Y-52418342D01*
X96683286Y-52396571D01*
X96530886Y-52396571D01*
X96530886Y-52483656D01*
X96726829Y-52200628D02*
X96269629Y-52200628D01*
X96726829Y-51939371D01*
X96269629Y-51939371D01*
X96726829Y-51721657D02*
X96269629Y-51721657D01*
X96269629Y-51612800D01*
X96291400Y-51547485D01*
X96334943Y-51503943D01*
X96378486Y-51482171D01*
X96465571Y-51460400D01*
X96530886Y-51460400D01*
X96617971Y-51482171D01*
X96661514Y-51503943D01*
X96705057Y-51547485D01*
X96726829Y-51612800D01*
X96726829Y-51721657D01*
D14*
X90633852Y-52936624D02*
X90633852Y-53266824D01*
X90508061Y-53266824D01*
X90476614Y-53251100D01*
X90460890Y-53235376D01*
X90445166Y-53203929D01*
X90445166Y-53156757D01*
X90460890Y-53125310D01*
X90476614Y-53109586D01*
X90508061Y-53093862D01*
X90633852Y-53093862D01*
X90335100Y-53266824D02*
X90256481Y-52936624D01*
X90193585Y-53172481D01*
X90130690Y-52936624D01*
X90052071Y-53266824D01*
X89926281Y-52936624D02*
X89926281Y-53266824D01*
X89816214Y-53030967D01*
X89706148Y-53266824D01*
X89706148Y-52936624D01*
D12*
X96911281Y-54721276D02*
X96911281Y-55055105D01*
X96911281Y-54888191D02*
X96327081Y-54888191D01*
X96410538Y-54943829D01*
X96466176Y-54999467D01*
X96493995Y-55055105D01*
X96327081Y-54359629D02*
X96327081Y-54303990D01*
X96354900Y-54248352D01*
X96382719Y-54220533D01*
X96438357Y-54192714D01*
X96549633Y-54164895D01*
X96688729Y-54164895D01*
X96800005Y-54192714D01*
X96855643Y-54220533D01*
X96883462Y-54248352D01*
X96911281Y-54303990D01*
X96911281Y-54359629D01*
X96883462Y-54415267D01*
X96855643Y-54443086D01*
X96800005Y-54470905D01*
X96688729Y-54498724D01*
X96549633Y-54498724D01*
X96438357Y-54470905D01*
X96382719Y-54443086D01*
X96354900Y-54415267D01*
X96327081Y-54359629D01*
X93842719Y-55055105D02*
X93814900Y-55027286D01*
X93787081Y-54971648D01*
X93787081Y-54832552D01*
X93814900Y-54776914D01*
X93842719Y-54749095D01*
X93898357Y-54721276D01*
X93953995Y-54721276D01*
X94037452Y-54749095D01*
X94371281Y-55082924D01*
X94371281Y-54721276D01*
X93787081Y-54359629D02*
X93787081Y-54303990D01*
X93814900Y-54248352D01*
X93842719Y-54220533D01*
X93898357Y-54192714D01*
X94009633Y-54164895D01*
X94148729Y-54164895D01*
X94260005Y-54192714D01*
X94315643Y-54220533D01*
X94343462Y-54248352D01*
X94371281Y-54303990D01*
X94371281Y-54359629D01*
X94343462Y-54415267D01*
X94315643Y-54443086D01*
X94260005Y-54470905D01*
X94148729Y-54498724D01*
X94009633Y-54498724D01*
X93898357Y-54470905D01*
X93842719Y-54443086D01*
X93814900Y-54415267D01*
X93787081Y-54359629D01*
D11*
X93878400Y-52418342D02*
X93856629Y-52461885D01*
X93856629Y-52527199D01*
X93878400Y-52592514D01*
X93921943Y-52636056D01*
X93965486Y-52657828D01*
X94052571Y-52679599D01*
X94117886Y-52679599D01*
X94204971Y-52657828D01*
X94248514Y-52636056D01*
X94292057Y-52592514D01*
X94313829Y-52527199D01*
X94313829Y-52483656D01*
X94292057Y-52418342D01*
X94270286Y-52396571D01*
X94117886Y-52396571D01*
X94117886Y-52483656D01*
X94313829Y-52200628D02*
X93856629Y-52200628D01*
X94313829Y-51939371D01*
X93856629Y-51939371D01*
X94313829Y-51721657D02*
X93856629Y-51721657D01*
X93856629Y-51612800D01*
X93878400Y-51547485D01*
X93921943Y-51503943D01*
X93965486Y-51482171D01*
X94052571Y-51460400D01*
X94117886Y-51460400D01*
X94204971Y-51482171D01*
X94248514Y-51503943D01*
X94292057Y-51547485D01*
X94313829Y-51612800D01*
X94313829Y-51721657D01*
D14*
X91513176Y-52510266D02*
X91843376Y-52400200D01*
X91513176Y-52290133D01*
X91843376Y-52180066D02*
X91513176Y-52180066D01*
X91513176Y-52054275D01*
X91528900Y-52022828D01*
X91544624Y-52007104D01*
X91576071Y-51991380D01*
X91623243Y-51991380D01*
X91654690Y-52007104D01*
X91670414Y-52022828D01*
X91686138Y-52054275D01*
X91686138Y-52180066D01*
X91843376Y-51849866D02*
X91513176Y-51849866D01*
X91513176Y-51724075D01*
X91528900Y-51692628D01*
X91544624Y-51676904D01*
X91576071Y-51661180D01*
X91623243Y-51661180D01*
X91654690Y-51676904D01*
X91670414Y-51692628D01*
X91686138Y-51724075D01*
X91686138Y-51849866D01*
X91843376Y-55561290D02*
X91513176Y-55561290D01*
X91811929Y-55215366D02*
X91827652Y-55231090D01*
X91843376Y-55278261D01*
X91843376Y-55309709D01*
X91827652Y-55356881D01*
X91796205Y-55388328D01*
X91764757Y-55404052D01*
X91701862Y-55419776D01*
X91654690Y-55419776D01*
X91591795Y-55404052D01*
X91560348Y-55388328D01*
X91528900Y-55356881D01*
X91513176Y-55309709D01*
X91513176Y-55278261D01*
X91528900Y-55231090D01*
X91544624Y-55215366D01*
X91843376Y-55073852D02*
X91513176Y-55073852D01*
X91513176Y-54948061D01*
X91528900Y-54916614D01*
X91544624Y-54900890D01*
X91576071Y-54885166D01*
X91623243Y-54885166D01*
X91654690Y-54900890D01*
X91670414Y-54916614D01*
X91686138Y-54948061D01*
X91686138Y-55073852D01*
X91513176Y-54680757D02*
X91513176Y-54617861D01*
X91528900Y-54586414D01*
X91560348Y-54554966D01*
X91623243Y-54539242D01*
X91733310Y-54539242D01*
X91796205Y-54554966D01*
X91827652Y-54586414D01*
X91843376Y-54617861D01*
X91843376Y-54680757D01*
X91827652Y-54712204D01*
X91796205Y-54743652D01*
X91733310Y-54759376D01*
X91623243Y-54759376D01*
X91560348Y-54743652D01*
X91528900Y-54712204D01*
X91513176Y-54680757D01*
X91843376Y-54209042D02*
X91686138Y-54319109D01*
X91843376Y-54397728D02*
X91513176Y-54397728D01*
X91513176Y-54271937D01*
X91528900Y-54240490D01*
X91544624Y-54224766D01*
X91576071Y-54209042D01*
X91623243Y-54209042D01*
X91654690Y-54224766D01*
X91670414Y-54240490D01*
X91686138Y-54271937D01*
X91686138Y-54397728D01*
X91513176Y-54114699D02*
X91513176Y-53926014D01*
X91843376Y-54020357D02*
X91513176Y-54020357D01*
X91827652Y-53831671D02*
X91843376Y-53784499D01*
X91843376Y-53705880D01*
X91827652Y-53674433D01*
X91811929Y-53658709D01*
X91780481Y-53642985D01*
X91749033Y-53642985D01*
X91717586Y-53658709D01*
X91701862Y-53674433D01*
X91686138Y-53705880D01*
X91670414Y-53768776D01*
X91654690Y-53800223D01*
X91638967Y-53815947D01*
X91607519Y-53831671D01*
X91576071Y-53831671D01*
X91544624Y-53815947D01*
X91528900Y-53800223D01*
X91513176Y-53768776D01*
X91513176Y-53690156D01*
X91528900Y-53642985D01*
X90633852Y-55476624D02*
X90633852Y-55806824D01*
X90508061Y-55806824D01*
X90476614Y-55791100D01*
X90460890Y-55775376D01*
X90445166Y-55743929D01*
X90445166Y-55696757D01*
X90460890Y-55665310D01*
X90476614Y-55649586D01*
X90508061Y-55633862D01*
X90633852Y-55633862D01*
X90335100Y-55806824D02*
X90256481Y-55476624D01*
X90193585Y-55712481D01*
X90130690Y-55476624D01*
X90052071Y-55806824D01*
X89926281Y-55476624D02*
X89926281Y-55806824D01*
X89816214Y-55570967D01*
X89706148Y-55806824D01*
X89706148Y-55476624D01*
D12*
X89291281Y-54721276D02*
X89291281Y-55055105D01*
X89291281Y-54888191D02*
X88707081Y-54888191D01*
X88790538Y-54943829D01*
X88846176Y-54999467D01*
X88873995Y-55055105D01*
X88762719Y-54498724D02*
X88734900Y-54470905D01*
X88707081Y-54415267D01*
X88707081Y-54276171D01*
X88734900Y-54220533D01*
X88762719Y-54192714D01*
X88818357Y-54164895D01*
X88873995Y-54164895D01*
X88957452Y-54192714D01*
X89291281Y-54526543D01*
X89291281Y-54164895D01*
X89291281Y-52181276D02*
X89291281Y-52515105D01*
X89291281Y-52348191D02*
X88707081Y-52348191D01*
X88790538Y-52403829D01*
X88846176Y-52459467D01*
X88873995Y-52515105D01*
X89291281Y-51624895D02*
X89291281Y-51958724D01*
X89291281Y-51791810D02*
X88707081Y-51791810D01*
X88790538Y-51847448D01*
X88846176Y-51903086D01*
X88873995Y-51958724D01*
D13*
X86222719Y-55055105D02*
X86194900Y-55027286D01*
X86167081Y-54971648D01*
X86167081Y-54832552D01*
X86194900Y-54776914D01*
X86222719Y-54749095D01*
X86278357Y-54721276D01*
X86333995Y-54721276D01*
X86417452Y-54749095D01*
X86751281Y-55082924D01*
X86751281Y-54721276D01*
X86222719Y-54498724D02*
X86194900Y-54470905D01*
X86167081Y-54415267D01*
X86167081Y-54276171D01*
X86194900Y-54220533D01*
X86222719Y-54192714D01*
X86278357Y-54164895D01*
X86333995Y-54164895D01*
X86417452Y-54192714D01*
X86751281Y-54526543D01*
X86751281Y-54164895D01*
X86222719Y-52515105D02*
X86194900Y-52487286D01*
X86167081Y-52431648D01*
X86167081Y-52292552D01*
X86194900Y-52236914D01*
X86222719Y-52209095D01*
X86278357Y-52181276D01*
X86333995Y-52181276D01*
X86417452Y-52209095D01*
X86751281Y-52542924D01*
X86751281Y-52181276D01*
X86751281Y-51624895D02*
X86751281Y-51958724D01*
X86751281Y-51791810D02*
X86167081Y-51791810D01*
X86250538Y-51847448D01*
X86306176Y-51903086D01*
X86333995Y-51958724D01*
X83809719Y-55055105D02*
X83781900Y-55027286D01*
X83754081Y-54971648D01*
X83754081Y-54832552D01*
X83781900Y-54776914D01*
X83809719Y-54749095D01*
X83865357Y-54721276D01*
X83920995Y-54721276D01*
X84004452Y-54749095D01*
X84338281Y-55082924D01*
X84338281Y-54721276D01*
X83948814Y-54220533D02*
X84338281Y-54220533D01*
X83726262Y-54359629D02*
X84143548Y-54498724D01*
X84143548Y-54137076D01*
X83682719Y-52388105D02*
X83654900Y-52360286D01*
X83627081Y-52304648D01*
X83627081Y-52165552D01*
X83654900Y-52109914D01*
X83682719Y-52082095D01*
X83738357Y-52054276D01*
X83793995Y-52054276D01*
X83877452Y-52082095D01*
X84211281Y-52415924D01*
X84211281Y-52054276D01*
X83627081Y-51859543D02*
X83627081Y-51497895D01*
X83849633Y-51692629D01*
X83849633Y-51609171D01*
X83877452Y-51553533D01*
X83905271Y-51525714D01*
X83960910Y-51497895D01*
X84100005Y-51497895D01*
X84155643Y-51525714D01*
X84183462Y-51553533D01*
X84211281Y-51609171D01*
X84211281Y-51776086D01*
X84183462Y-51831724D01*
X84155643Y-51859543D01*
X81671281Y-54721276D02*
X81671281Y-54610000D01*
X81643462Y-54554361D01*
X81615643Y-54526542D01*
X81532186Y-54470904D01*
X81420910Y-54443085D01*
X81198357Y-54443085D01*
X81142719Y-54470904D01*
X81114900Y-54498723D01*
X81087081Y-54554361D01*
X81087081Y-54665638D01*
X81114900Y-54721276D01*
X81142719Y-54749095D01*
X81198357Y-54776914D01*
X81337452Y-54776914D01*
X81393090Y-54749095D01*
X81420910Y-54721276D01*
X81448729Y-54665638D01*
X81448729Y-54554361D01*
X81420910Y-54498723D01*
X81393090Y-54470904D01*
X81337452Y-54443085D01*
X81337452Y-52125638D02*
X81309633Y-52181276D01*
X81281814Y-52209095D01*
X81226176Y-52236914D01*
X81198357Y-52236914D01*
X81142719Y-52209095D01*
X81114900Y-52181276D01*
X81087081Y-52125638D01*
X81087081Y-52014361D01*
X81114900Y-51958723D01*
X81142719Y-51930904D01*
X81198357Y-51903085D01*
X81226176Y-51903085D01*
X81281814Y-51930904D01*
X81309633Y-51958723D01*
X81337452Y-52014361D01*
X81337452Y-52125638D01*
X81365271Y-52181276D01*
X81393090Y-52209095D01*
X81448729Y-52236914D01*
X81560005Y-52236914D01*
X81615643Y-52209095D01*
X81643462Y-52181276D01*
X81671281Y-52125638D01*
X81671281Y-52014361D01*
X81643462Y-51958723D01*
X81615643Y-51930904D01*
X81560005Y-51903085D01*
X81448729Y-51903085D01*
X81393090Y-51930904D01*
X81365271Y-51958723D01*
X81337452Y-52014361D01*
X78602719Y-54928105D02*
X78574900Y-54900286D01*
X78547081Y-54844648D01*
X78547081Y-54705552D01*
X78574900Y-54649914D01*
X78602719Y-54622095D01*
X78658357Y-54594276D01*
X78713995Y-54594276D01*
X78797452Y-54622095D01*
X79131281Y-54955924D01*
X79131281Y-54594276D01*
X78547081Y-54065714D02*
X78547081Y-54343905D01*
X78825271Y-54371724D01*
X78797452Y-54343905D01*
X78769633Y-54288267D01*
X78769633Y-54149171D01*
X78797452Y-54093533D01*
X78825271Y-54065714D01*
X78880910Y-54037895D01*
X79020005Y-54037895D01*
X79075643Y-54065714D01*
X79103462Y-54093533D01*
X79131281Y-54149171D01*
X79131281Y-54288267D01*
X79103462Y-54343905D01*
X79075643Y-54371724D01*
X78602719Y-52515105D02*
X78574900Y-52487286D01*
X78547081Y-52431648D01*
X78547081Y-52292552D01*
X78574900Y-52236914D01*
X78602719Y-52209095D01*
X78658357Y-52181276D01*
X78713995Y-52181276D01*
X78797452Y-52209095D01*
X79131281Y-52542924D01*
X79131281Y-52181276D01*
X78547081Y-51680533D02*
X78547081Y-51791810D01*
X78574900Y-51847448D01*
X78602719Y-51875267D01*
X78686176Y-51930905D01*
X78797452Y-51958724D01*
X79020005Y-51958724D01*
X79075643Y-51930905D01*
X79103462Y-51903086D01*
X79131281Y-51847448D01*
X79131281Y-51736171D01*
X79103462Y-51680533D01*
X79075643Y-51652714D01*
X79020005Y-51624895D01*
X78880910Y-51624895D01*
X78825271Y-51652714D01*
X78797452Y-51680533D01*
X78769633Y-51736171D01*
X78769633Y-51847448D01*
X78797452Y-51903086D01*
X78825271Y-51930905D01*
X78880910Y-51958724D01*
D12*
X76351190Y-54870048D02*
X76327000Y-54845858D01*
X76302810Y-54797477D01*
X76302810Y-54676524D01*
X76327000Y-54628143D01*
X76351190Y-54603953D01*
X76399571Y-54579762D01*
X76447952Y-54579762D01*
X76520524Y-54603953D01*
X76810810Y-54894239D01*
X76810810Y-54579762D01*
X76520524Y-54289476D02*
X76496333Y-54337857D01*
X76472143Y-54362048D01*
X76423762Y-54386238D01*
X76399571Y-54386238D01*
X76351190Y-54362048D01*
X76327000Y-54337857D01*
X76302810Y-54289476D01*
X76302810Y-54192714D01*
X76327000Y-54144333D01*
X76351190Y-54120143D01*
X76399571Y-54095952D01*
X76423762Y-54095952D01*
X76472143Y-54120143D01*
X76496333Y-54144333D01*
X76520524Y-54192714D01*
X76520524Y-54289476D01*
X76544714Y-54337857D01*
X76568905Y-54362048D01*
X76617286Y-54386238D01*
X76714048Y-54386238D01*
X76762429Y-54362048D01*
X76786619Y-54337857D01*
X76810810Y-54289476D01*
X76810810Y-54192714D01*
X76786619Y-54144333D01*
X76762429Y-54120143D01*
X76714048Y-54095952D01*
X76617286Y-54095952D01*
X76568905Y-54120143D01*
X76544714Y-54144333D01*
X76520524Y-54192714D01*
D15*
X100310000Y-60250000D02*
X100810000Y-60250000D01*
X100810000Y-60250000D02*
X100810000Y-66750000D01*
X100810000Y-66750000D02*
X100310000Y-66750000D01*
X97810000Y-66750000D02*
X97310000Y-66750000D01*
X97310000Y-66750000D02*
X97310000Y-60250000D01*
X97310000Y-60250000D02*
X97810000Y-60250000D01*
X84236918Y-58663082D02*
G75*
G03X84236918Y-58663082I-176918J0D01*
G01*
X83725000Y-58325000D02*
X83725000Y-59000000D01*
X94075000Y-58325000D02*
X94075000Y-59000000D01*
X94075000Y-68675000D02*
X94075000Y-68000000D01*
X83725000Y-68675000D02*
X83725000Y-68000000D01*
X83725000Y-58325000D02*
X84400000Y-58325000D01*
X83725000Y-68675000D02*
X84400000Y-68675000D01*
X94075000Y-68675000D02*
X93400000Y-68675000D01*
X94075000Y-58325000D02*
X93400000Y-58325000D01*
X83725000Y-59000000D02*
X82450000Y-59000000D01*
D16*
X76404200Y-66300000D02*
X76404200Y-61750000D01*
X79704200Y-66300000D02*
X79704200Y-61750000D01*
X76404200Y-66300000D02*
X79704200Y-66300000D01*
D15*
X97935000Y-70346000D02*
X100635000Y-70346000D01*
X97935000Y-68846000D02*
X100635000Y-68846000D01*
X99435000Y-69746000D02*
X99435000Y-69496000D01*
X99435000Y-69496000D02*
X99285000Y-69646000D01*
X99185000Y-69246000D02*
X99185000Y-69946000D01*
X99535000Y-69596000D02*
X99885000Y-69596000D01*
X99185000Y-69596000D02*
X99535000Y-69246000D01*
X99535000Y-69246000D02*
X99535000Y-69946000D01*
X99535000Y-69946000D02*
X99185000Y-69596000D01*
X97935000Y-58154000D02*
X100635000Y-58154000D01*
X97935000Y-56654000D02*
X100635000Y-56654000D01*
X99435000Y-57554000D02*
X99435000Y-57304000D01*
X99435000Y-57304000D02*
X99285000Y-57454000D01*
X99185000Y-57054000D02*
X99185000Y-57754000D01*
X99535000Y-57404000D02*
X99885000Y-57404000D01*
X99185000Y-57404000D02*
X99535000Y-57054000D01*
X99535000Y-57054000D02*
X99535000Y-57754000D01*
X99535000Y-57754000D02*
X99185000Y-57404000D01*
D12*
X100432229Y-64510899D02*
X100468514Y-64402042D01*
X100468514Y-64220613D01*
X100432229Y-64148042D01*
X100395943Y-64111756D01*
X100323371Y-64075471D01*
X100250800Y-64075471D01*
X100178229Y-64111756D01*
X100141943Y-64148042D01*
X100105657Y-64220613D01*
X100069371Y-64365756D01*
X100033086Y-64438328D01*
X99996800Y-64474613D01*
X99924229Y-64510899D01*
X99851657Y-64510899D01*
X99779086Y-64474613D01*
X99742800Y-64438328D01*
X99706514Y-64365756D01*
X99706514Y-64184328D01*
X99742800Y-64075471D01*
X99706514Y-63821471D02*
X100468514Y-63640042D01*
X99924229Y-63494899D01*
X100468514Y-63349757D01*
X99706514Y-63168328D01*
X100468514Y-62478900D02*
X100468514Y-62914328D01*
X100468514Y-62696614D02*
X99706514Y-62696614D01*
X99815371Y-62769185D01*
X99887943Y-62841757D01*
X99924229Y-62914328D01*
D11*
X97107829Y-64010157D02*
X96890114Y-64162557D01*
X97107829Y-64271414D02*
X96650629Y-64271414D01*
X96650629Y-64097242D01*
X96672400Y-64053700D01*
X96694171Y-64031928D01*
X96737714Y-64010157D01*
X96803029Y-64010157D01*
X96846571Y-64031928D01*
X96868343Y-64053700D01*
X96890114Y-64097242D01*
X96890114Y-64271414D01*
X97086057Y-63640042D02*
X97107829Y-63683585D01*
X97107829Y-63770671D01*
X97086057Y-63814214D01*
X97042514Y-63835985D01*
X96868343Y-63835985D01*
X96824800Y-63814214D01*
X96803029Y-63770671D01*
X96803029Y-63683585D01*
X96824800Y-63640042D01*
X96868343Y-63618271D01*
X96911886Y-63618271D01*
X96955429Y-63835985D01*
X97086057Y-63444099D02*
X97107829Y-63400556D01*
X97107829Y-63313471D01*
X97086057Y-63269928D01*
X97042514Y-63248156D01*
X97020743Y-63248156D01*
X96977200Y-63269928D01*
X96955429Y-63313471D01*
X96955429Y-63378785D01*
X96933657Y-63422328D01*
X96890114Y-63444099D01*
X96868343Y-63444099D01*
X96824800Y-63422328D01*
X96803029Y-63378785D01*
X96803029Y-63313471D01*
X96824800Y-63269928D01*
X97086057Y-62878042D02*
X97107829Y-62921585D01*
X97107829Y-63008671D01*
X97086057Y-63052214D01*
X97042514Y-63073985D01*
X96868343Y-63073985D01*
X96824800Y-63052214D01*
X96803029Y-63008671D01*
X96803029Y-62921585D01*
X96824800Y-62878042D01*
X96868343Y-62856271D01*
X96911886Y-62856271D01*
X96955429Y-63073985D01*
X96803029Y-62725642D02*
X96803029Y-62551471D01*
X96650629Y-62660328D02*
X97042514Y-62660328D01*
X97086057Y-62638556D01*
X97107829Y-62595014D01*
X97107829Y-62551471D01*
X78028800Y-60615286D02*
X78007029Y-60637057D01*
X77941715Y-60658829D01*
X77898172Y-60658829D01*
X77832857Y-60637057D01*
X77789315Y-60593514D01*
X77767543Y-60549971D01*
X77745772Y-60462886D01*
X77745772Y-60397571D01*
X77767543Y-60310486D01*
X77789315Y-60266943D01*
X77832857Y-60223400D01*
X77898172Y-60201629D01*
X77941715Y-60201629D01*
X78007029Y-60223400D01*
X78028800Y-60245171D01*
X78442457Y-60201629D02*
X78224743Y-60201629D01*
X78202972Y-60419343D01*
X78224743Y-60397571D01*
X78268286Y-60375800D01*
X78377143Y-60375800D01*
X78420686Y-60397571D01*
X78442457Y-60419343D01*
X78464229Y-60462886D01*
X78464229Y-60571743D01*
X78442457Y-60615286D01*
X78420686Y-60637057D01*
X78377143Y-60658829D01*
X78268286Y-60658829D01*
X78224743Y-60637057D01*
X78202972Y-60615286D01*
X97615829Y-69933457D02*
X97158629Y-69933457D01*
X97158629Y-69824600D01*
X97180400Y-69759285D01*
X97223943Y-69715743D01*
X97267486Y-69693971D01*
X97354571Y-69672200D01*
X97419886Y-69672200D01*
X97506971Y-69693971D01*
X97550514Y-69715743D01*
X97594057Y-69759285D01*
X97615829Y-69824600D01*
X97615829Y-69933457D01*
X97615829Y-69236771D02*
X97615829Y-69498028D01*
X97615829Y-69367400D02*
X97158629Y-69367400D01*
X97223943Y-69410943D01*
X97267486Y-69454485D01*
X97289257Y-69498028D01*
X97615829Y-57741457D02*
X97158629Y-57741457D01*
X97158629Y-57632600D01*
X97180400Y-57567285D01*
X97223943Y-57523743D01*
X97267486Y-57501971D01*
X97354571Y-57480200D01*
X97419886Y-57480200D01*
X97506971Y-57501971D01*
X97550514Y-57523743D01*
X97594057Y-57567285D01*
X97615829Y-57632600D01*
X97615829Y-57741457D01*
X97202171Y-57306028D02*
X97180400Y-57284257D01*
X97158629Y-57240714D01*
X97158629Y-57131857D01*
X97180400Y-57088314D01*
X97202171Y-57066543D01*
X97245714Y-57044771D01*
X97289257Y-57044771D01*
X97354571Y-57066543D01*
X97615829Y-57327800D01*
X97615829Y-57044771D01*
M02*
