G04 #@! TF.FileFunction,Legend,Bot*
%FSLAX46Y46*%
G04 Gerber Fmt 4.6, Leading zero omitted, Abs format (unit mm)*
G04 Created by KiCad (PCBNEW 4.0.2+dfsg1-2~bpo8+1-stable) date jue 22 dic 2016 23:09:18 COT*
%MOMM*%
G01*
G04 APERTURE LIST*
%ADD10C,0.100000*%
%ADD11C,0.150000*%
G04 APERTURE END LIST*
D10*
D11*
X106850000Y-57950000D02*
X110450000Y-57950000D01*
X106850000Y-60050000D02*
X110450000Y-60050000D01*
X108900000Y-59300000D02*
X108900000Y-58700000D01*
X108900000Y-58700000D02*
X108600000Y-59000000D01*
X108600000Y-59000000D02*
X108800000Y-59200000D01*
X108800000Y-59200000D02*
X108800000Y-58950000D01*
X108800000Y-58950000D02*
X108750000Y-59000000D01*
X108500000Y-59500000D02*
X108500000Y-58500000D01*
X109000000Y-59000000D02*
X109500000Y-59000000D01*
X108500000Y-59000000D02*
X109000000Y-59500000D01*
X109000000Y-59500000D02*
X109000000Y-58500000D01*
X109000000Y-58500000D02*
X108500000Y-59000000D01*
X106850000Y-65950000D02*
X110450000Y-65950000D01*
X106850000Y-68050000D02*
X110450000Y-68050000D01*
X108900000Y-67300000D02*
X108900000Y-66700000D01*
X108900000Y-66700000D02*
X108600000Y-67000000D01*
X108600000Y-67000000D02*
X108800000Y-67200000D01*
X108800000Y-67200000D02*
X108800000Y-66950000D01*
X108800000Y-66950000D02*
X108750000Y-67000000D01*
X108500000Y-67500000D02*
X108500000Y-66500000D01*
X109000000Y-67000000D02*
X109500000Y-67000000D01*
X108500000Y-67000000D02*
X109000000Y-67500000D01*
X109000000Y-67500000D02*
X109000000Y-66500000D01*
X109000000Y-66500000D02*
X108500000Y-67000000D01*
X114750000Y-57750000D02*
X114250000Y-57750000D01*
X114250000Y-57750000D02*
X114250000Y-64250000D01*
X114250000Y-64250000D02*
X114750000Y-64250000D01*
X117250000Y-64250000D02*
X117750000Y-64250000D01*
X117750000Y-64250000D02*
X117750000Y-57750000D01*
X117750000Y-57750000D02*
X117250000Y-57750000D01*
X85825000Y-65175000D02*
X85825000Y-64500000D01*
X96175000Y-65175000D02*
X96175000Y-64500000D01*
X96175000Y-54825000D02*
X96175000Y-55500000D01*
X85825000Y-54825000D02*
X85825000Y-55500000D01*
X85825000Y-65175000D02*
X86500000Y-65175000D01*
X85825000Y-54825000D02*
X86500000Y-54825000D01*
X96175000Y-54825000D02*
X95500000Y-54825000D01*
X96175000Y-65175000D02*
X95500000Y-65175000D01*
X85825000Y-64500000D02*
X84550000Y-64500000D01*
X109738095Y-61452381D02*
X109738095Y-60452381D01*
X109500000Y-60452381D01*
X109357142Y-60500000D01*
X109261904Y-60595238D01*
X109214285Y-60690476D01*
X109166666Y-60880952D01*
X109166666Y-61023810D01*
X109214285Y-61214286D01*
X109261904Y-61309524D01*
X109357142Y-61404762D01*
X109500000Y-61452381D01*
X109738095Y-61452381D01*
X108214285Y-61452381D02*
X108785714Y-61452381D01*
X108500000Y-61452381D02*
X108500000Y-60452381D01*
X108595238Y-60595238D01*
X108690476Y-60690476D01*
X108785714Y-60738095D01*
X109738095Y-69452381D02*
X109738095Y-68452381D01*
X109500000Y-68452381D01*
X109357142Y-68500000D01*
X109261904Y-68595238D01*
X109214285Y-68690476D01*
X109166666Y-68880952D01*
X109166666Y-69023810D01*
X109214285Y-69214286D01*
X109261904Y-69309524D01*
X109357142Y-69404762D01*
X109500000Y-69452381D01*
X109738095Y-69452381D01*
X108785714Y-68547619D02*
X108738095Y-68500000D01*
X108642857Y-68452381D01*
X108404761Y-68452381D01*
X108309523Y-68500000D01*
X108261904Y-68547619D01*
X108214285Y-68642857D01*
X108214285Y-68738095D01*
X108261904Y-68880952D01*
X108833333Y-69452381D01*
X108214285Y-69452381D01*
X113654762Y-59666667D02*
X113702381Y-59809524D01*
X113702381Y-60047620D01*
X113654762Y-60142858D01*
X113607143Y-60190477D01*
X113511905Y-60238096D01*
X113416667Y-60238096D01*
X113321429Y-60190477D01*
X113273810Y-60142858D01*
X113226190Y-60047620D01*
X113178571Y-59857143D01*
X113130952Y-59761905D01*
X113083333Y-59714286D01*
X112988095Y-59666667D01*
X112892857Y-59666667D01*
X112797619Y-59714286D01*
X112750000Y-59761905D01*
X112702381Y-59857143D01*
X112702381Y-60095239D01*
X112750000Y-60238096D01*
X112702381Y-60571429D02*
X113702381Y-60809524D01*
X112988095Y-61000001D01*
X113702381Y-61190477D01*
X112702381Y-61428572D01*
X113702381Y-62333334D02*
X113702381Y-61761905D01*
X113702381Y-62047619D02*
X112702381Y-62047619D01*
X112845238Y-61952381D01*
X112940476Y-61857143D01*
X112988095Y-61761905D01*
X91761905Y-66902381D02*
X91761905Y-67711905D01*
X91714286Y-67807143D01*
X91666667Y-67854762D01*
X91571429Y-67902381D01*
X91380952Y-67902381D01*
X91285714Y-67854762D01*
X91238095Y-67807143D01*
X91190476Y-67711905D01*
X91190476Y-66902381D01*
X90190476Y-67902381D02*
X90761905Y-67902381D01*
X90476191Y-67902381D02*
X90476191Y-66902381D01*
X90571429Y-67045238D01*
X90666667Y-67140476D01*
X90761905Y-67188095D01*
M02*
