G04 #@! TF.FileFunction,Copper,L2,Bot,Signal*
%FSLAX46Y46*%
G04 Gerber Fmt 4.6, Leading zero omitted, Abs format (unit mm)*
G04 Created by KiCad (PCBNEW 4.0.4+dfsg1-stable) date Wed Feb 22 18:47:58 2017*
%MOMM*%
%LPD*%
G01*
G04 APERTURE LIST*
%ADD10C,0.100000*%
%ADD11R,0.700000X1.300000*%
%ADD12R,2.301240X0.500380*%
%ADD13R,2.499360X1.998980*%
%ADD14R,0.914400X0.914400*%
%ADD15C,0.914400*%
%ADD16O,0.914400X0.914400*%
%ADD17R,2.400000X2.000000*%
%ADD18R,1.250000X1.000000*%
%ADD19R,1.000000X1.250000*%
%ADD20C,0.660400*%
%ADD21C,0.254000*%
G04 APERTURE END LIST*
D10*
D11*
X95184000Y-63500000D03*
X93284000Y-63500000D03*
D12*
X83459320Y-65100200D03*
X83459320Y-64300100D03*
X83459320Y-63500000D03*
X83459320Y-62699900D03*
X83459320Y-61899800D03*
D13*
X83360260Y-67950080D03*
X77861160Y-67950080D03*
X83360260Y-59049920D03*
X77861160Y-59049920D03*
D14*
X100330000Y-52070000D03*
X100330000Y-54610000D03*
D15*
X92710000Y-54610000D03*
D14*
X97790000Y-52070000D03*
D15*
X95250000Y-54610000D03*
D14*
X95250000Y-52070000D03*
D15*
X92710000Y-52070000D03*
X97790000Y-54610000D03*
X90170000Y-54610000D03*
X90170000Y-52070000D03*
X87630000Y-52070000D03*
X87630000Y-54610000D03*
X85090000Y-54610000D03*
X85090000Y-52070000D03*
X82550000Y-54610000D03*
X82550000Y-52070000D03*
X80010000Y-54610000D03*
X80010000Y-52070000D03*
X77470000Y-52070000D03*
X77470000Y-54610000D03*
D16*
X95250000Y-74930000D03*
D15*
X97790000Y-72390000D03*
D16*
X100330000Y-74930000D03*
X97790000Y-74930000D03*
D15*
X95250000Y-72390000D03*
X92710000Y-72390000D03*
X100330000Y-72390000D03*
X90170000Y-72390000D03*
X92710000Y-74930000D03*
X87630000Y-72390000D03*
X90170000Y-74930000D03*
X85090000Y-72390000D03*
X87630000Y-74930000D03*
X80010000Y-72390000D03*
X77470000Y-72390000D03*
X85090000Y-74930000D03*
X82550000Y-74930000D03*
X77470000Y-74930000D03*
X82550000Y-72390000D03*
X80010000Y-74930000D03*
D17*
X87630000Y-65550000D03*
X87630000Y-61450000D03*
D18*
X90932000Y-62722000D03*
X90932000Y-60722000D03*
X90932000Y-64278000D03*
X90932000Y-66278000D03*
D19*
X93218000Y-69215000D03*
X95218000Y-69215000D03*
X95218000Y-57785000D03*
X93218000Y-57785000D03*
D11*
X93350000Y-66040000D03*
X95250000Y-66040000D03*
X95184000Y-60960000D03*
X93284000Y-60960000D03*
D20*
X91999568Y-60755796D03*
X89534704Y-63067256D03*
X96118069Y-63500000D03*
X90500479Y-56489491D03*
X96848916Y-68325323D03*
X97677455Y-58646501D03*
X86508794Y-59467055D03*
X85622764Y-59050174D03*
X85545377Y-67843017D03*
X98856800Y-64947800D03*
X99034600Y-63195200D03*
X84911570Y-56312146D03*
X93141082Y-66981063D03*
X92760800Y-64516000D03*
X97536000Y-67005200D03*
D21*
X90932000Y-64278000D02*
X90932000Y-64854646D01*
X90932000Y-64854646D02*
X91192170Y-65114816D01*
X91192170Y-65114816D02*
X91790935Y-65114816D01*
X91790935Y-65114816D02*
X92336700Y-65660581D01*
X92557600Y-69215000D02*
X93218000Y-69215000D01*
X92336700Y-65660581D02*
X92336700Y-68994100D01*
X92336700Y-68994100D02*
X92557600Y-69215000D01*
X92974609Y-59746609D02*
X92669830Y-59441830D01*
X92669830Y-59441830D02*
X92170789Y-59441830D01*
X92170789Y-59441830D02*
X90525389Y-57796430D01*
X90525389Y-57796430D02*
X84863940Y-57796430D01*
X84863940Y-57796430D02*
X83610450Y-59049920D01*
X83610450Y-59049920D02*
X83360260Y-59049920D01*
X93284000Y-59733576D02*
X93472000Y-59545576D01*
X93472000Y-59545576D02*
X93581576Y-59436000D01*
X92974609Y-59746609D02*
X93270967Y-59746609D01*
X93270967Y-59746609D02*
X93472000Y-59545576D01*
X93284000Y-60056000D02*
X93284000Y-59733576D01*
X95218000Y-58859500D02*
X95218000Y-57785000D01*
X93581576Y-59436000D02*
X94641500Y-59436000D01*
X94641500Y-59436000D02*
X95218000Y-58859500D01*
X93284000Y-60056000D02*
X92974609Y-59746609D01*
X83459300Y-61899800D02*
X81991200Y-61899800D01*
X79756000Y-62687200D02*
X77861160Y-64582040D01*
X81991200Y-61899800D02*
X81203800Y-62687200D01*
X81203800Y-62687200D02*
X79756000Y-62687200D01*
X77861160Y-64582040D02*
X77861160Y-67950080D01*
X83459320Y-61899800D02*
X83459320Y-59148980D01*
X83459320Y-59148980D02*
X83360260Y-59049920D01*
X77861160Y-67950080D02*
X79364840Y-67950080D01*
X79364840Y-67950080D02*
X83360260Y-67950080D01*
X84181572Y-58228628D02*
X83360300Y-59049900D01*
X95218000Y-57785000D02*
X95218000Y-56641827D01*
X94008892Y-55432719D02*
X94008892Y-53749940D01*
X95218000Y-56641827D02*
X94008892Y-55432719D01*
X94008892Y-53749940D02*
X95250000Y-52508832D01*
X95250000Y-52508832D02*
X95250000Y-52489200D01*
X95250000Y-52489200D02*
X95250000Y-52070000D01*
X93284000Y-60960000D02*
X93284000Y-60056000D01*
X90932000Y-62722000D02*
X91938300Y-62722000D01*
X77861200Y-59049900D02*
X83360300Y-59049900D01*
X93055400Y-60960000D02*
X93284000Y-60960000D01*
X93055400Y-61604900D02*
X93055400Y-60960000D01*
X91938300Y-62722000D02*
X93055400Y-61604900D01*
X90932000Y-62722000D02*
X90932000Y-64278000D01*
X91965772Y-60722000D02*
X91999568Y-60755796D01*
X90932000Y-60722000D02*
X91965772Y-60722000D01*
X89925700Y-60735600D02*
X89211300Y-61450000D01*
X89925700Y-60722000D02*
X89925700Y-60735600D01*
X87630000Y-61450000D02*
X89211300Y-61450000D01*
X90932000Y-60722000D02*
X89925700Y-60722000D01*
X89534704Y-63534229D02*
X89534704Y-63067256D01*
X89534704Y-65226596D02*
X89534704Y-63534229D01*
X89211300Y-65550000D02*
X89534704Y-65226596D01*
X89925700Y-66264400D02*
X89211300Y-65550000D01*
X89925700Y-66278000D02*
X89925700Y-66264400D01*
X90932000Y-66278000D02*
X89925700Y-66278000D01*
X87630000Y-65550000D02*
X89084200Y-65550000D01*
X89084200Y-65550000D02*
X89211300Y-65550000D01*
X95184000Y-63500000D02*
X96118069Y-63500000D01*
X95218000Y-69340000D02*
X95218000Y-69215000D01*
X85550260Y-65739153D02*
X85550260Y-66702546D01*
X84911307Y-65100200D02*
X85550260Y-65739153D01*
X83459300Y-65100200D02*
X84911307Y-65100200D01*
X85550260Y-66702546D02*
X89879946Y-71032232D01*
X89879946Y-71032232D02*
X93954600Y-71032232D01*
X93954600Y-71032232D02*
X94905968Y-71032232D01*
X95218000Y-70720200D02*
X95218000Y-69215000D01*
X94905968Y-71032232D02*
X95218000Y-70720200D01*
X93954600Y-73634600D02*
X93954600Y-71032232D01*
X95250000Y-74930000D02*
X93954600Y-73634600D01*
X91795988Y-57785000D02*
X90830678Y-56819690D01*
X90830678Y-56819690D02*
X90500479Y-56489491D01*
X93218000Y-57785000D02*
X91795988Y-57785000D01*
X95250000Y-66040000D02*
X95250000Y-66944000D01*
X95250000Y-66944000D02*
X95920800Y-67614800D01*
X95920800Y-67614800D02*
X96266000Y-67614800D01*
X96266000Y-67614800D02*
X96848916Y-68197716D01*
X96848916Y-68197716D02*
X96848916Y-68325323D01*
X95184000Y-60660000D02*
X97197499Y-58646501D01*
X95184000Y-60960000D02*
X95184000Y-60660000D01*
X97210482Y-58646501D02*
X97677455Y-58646501D01*
X97197499Y-58646501D02*
X97210482Y-58646501D01*
X86178595Y-59797254D02*
X86508794Y-59467055D01*
X85794999Y-60180850D02*
X86178595Y-59797254D01*
X85794999Y-63496301D02*
X85794999Y-60180850D01*
X83459300Y-64300100D02*
X84991200Y-64300100D01*
X84991200Y-64300100D02*
X85794999Y-63496301D01*
X83459300Y-63500000D02*
X84991200Y-63500000D01*
X84991200Y-63500000D02*
X85267800Y-63223400D01*
X85267800Y-63223400D02*
X85267800Y-59405138D01*
X85267800Y-59405138D02*
X85292565Y-59380373D01*
X85292565Y-59380373D02*
X85622764Y-59050174D01*
X85545377Y-68309990D02*
X85545377Y-67843017D01*
X85545377Y-69295613D02*
X85545377Y-68309990D01*
X84879717Y-69961273D02*
X85545377Y-69295613D01*
X82878625Y-69961273D02*
X84879717Y-69961273D01*
X81280000Y-71559898D02*
X82878625Y-69961273D01*
X81280000Y-73660000D02*
X81280000Y-71559898D01*
X80010000Y-74930000D02*
X81280000Y-73660000D01*
X100330000Y-72390000D02*
X100330000Y-66421000D01*
X100330000Y-66421000D02*
X98856800Y-64947800D01*
X99034600Y-62728227D02*
X99034600Y-63195200D01*
X99034600Y-58394600D02*
X99034600Y-62728227D01*
X95250000Y-54610000D02*
X99034600Y-58394600D01*
X83820000Y-55220576D02*
X84581371Y-55981947D01*
X83820000Y-53340000D02*
X83820000Y-55220576D01*
X82550000Y-52070000D02*
X83820000Y-53340000D01*
X84581371Y-55981947D02*
X84911570Y-56312146D01*
X93312937Y-66981063D02*
X93141082Y-66981063D01*
X93350000Y-66944000D02*
X93312937Y-66981063D01*
X93350000Y-66040000D02*
X93350000Y-66944000D01*
X97536000Y-67005200D02*
X97536000Y-63032344D01*
X96733656Y-62230000D02*
X94056200Y-62230000D01*
X97536000Y-63032344D02*
X96733656Y-62230000D01*
X94056200Y-62230000D02*
X93284000Y-63002200D01*
X93284000Y-63002200D02*
X93284000Y-63500000D01*
X92760800Y-64516000D02*
X92760800Y-64023200D01*
X92760800Y-64023200D02*
X93284000Y-63500000D01*
M02*
