G04 #@! TF.FileFunction,Copper,L1,Top,Signal*
%FSLAX46Y46*%
G04 Gerber Fmt 4.6, Leading zero omitted, Abs format (unit mm)*
G04 Created by KiCad (PCBNEW 4.0.2+dfsg1-2~bpo8+1-stable) date jue 22 dic 2016 23:09:18 COT*
%MOMM*%
G01*
G04 APERTURE LIST*
%ADD10C,0.100000*%
%ADD11R,1.000000X1.600000*%
%ADD12R,1.600200X3.599180*%
%ADD13R,2.301240X0.500380*%
%ADD14R,2.499360X1.998980*%
%ADD15R,2.235200X2.235200*%
%ADD16R,0.900000X1.700000*%
%ADD17R,2.400000X2.000000*%
G04 APERTURE END LIST*
D10*
D11*
X83500000Y-55000000D03*
X80500000Y-55000000D03*
X80500000Y-65000000D03*
X83500000Y-65000000D03*
X110500000Y-70000000D03*
X107500000Y-70000000D03*
X95500000Y-70000000D03*
X92500000Y-70000000D03*
D12*
X91000000Y-57249180D03*
X91000000Y-62750820D03*
D13*
X72449320Y-58399800D03*
X72449320Y-59199900D03*
X72449320Y-60000000D03*
X72449320Y-60800100D03*
X72449320Y-61600200D03*
D14*
X72350260Y-55549920D03*
X66851160Y-55549920D03*
X72350260Y-64450080D03*
X66851160Y-64450080D03*
D15*
X200333334Y-63149999D03*
X210543334Y-61739999D03*
X200333334Y-71349999D03*
X200333334Y-79549999D03*
X228703334Y-46149999D03*
X210543334Y-69939999D03*
X93000000Y-44000000D03*
X220753334Y-54349999D03*
X97000000Y-44000000D03*
X230963334Y-54349999D03*
X220753334Y-62549999D03*
X238913334Y-46149999D03*
X210543334Y-78139999D03*
X249123334Y-46149999D03*
X230963334Y-62549999D03*
X220753334Y-70749999D03*
X241173334Y-54349999D03*
X210543334Y-86339999D03*
X230963334Y-70749999D03*
X220753334Y-78949999D03*
X259333334Y-46149999D03*
X241173334Y-62549999D03*
X251383334Y-54349999D03*
X230963334Y-78949999D03*
X220753334Y-87149999D03*
X241173334Y-70749999D03*
X269543334Y-46149999D03*
X251383334Y-62549999D03*
X261593334Y-54349999D03*
X230963334Y-87149999D03*
X206443334Y-53539999D03*
X241173334Y-78949999D03*
X251383334Y-70749999D03*
X261593334Y-62549999D03*
X241173334Y-87149999D03*
X251383334Y-78949999D03*
D16*
X107550000Y-53000000D03*
X110450000Y-53000000D03*
X107550000Y-63000000D03*
X110450000Y-63000000D03*
X115550000Y-71000000D03*
X118450000Y-71000000D03*
D17*
X82000000Y-62050000D03*
X82000000Y-57950000D03*
M02*
