G04 #@! TF.FileFunction,Copper,L2,Bot,Signal*
%FSLAX46Y46*%
G04 Gerber Fmt 4.6, Leading zero omitted, Abs format (unit mm)*
G04 Created by KiCad (PCBNEW 4.0.2+dfsg1-2~bpo8+1-stable) date jue 22 dic 2016 23:09:18 COT*
%MOMM*%
G01*
G04 APERTURE LIST*
%ADD10C,0.100000*%
%ADD11R,1.597660X1.800860*%
%ADD12R,2.235200X2.235200*%
%ADD13R,2.000000X2.500000*%
%ADD14R,1.500000X0.550000*%
%ADD15R,0.550000X1.500000*%
G04 APERTURE END LIST*
D10*
D11*
X110419860Y-59000000D03*
X107580140Y-59000000D03*
X110419860Y-67000000D03*
X107580140Y-67000000D03*
D12*
X200333334Y-63149999D03*
X210543334Y-61739999D03*
X200333334Y-71349999D03*
X200333334Y-79549999D03*
X228703334Y-46149999D03*
X210543334Y-69939999D03*
X93000000Y-44000000D03*
X220753334Y-54349999D03*
X97000000Y-44000000D03*
X230963334Y-54349999D03*
X220753334Y-62549999D03*
X238913334Y-46149999D03*
X210543334Y-78139999D03*
X249123334Y-46149999D03*
X230963334Y-62549999D03*
X220753334Y-70749999D03*
X241173334Y-54349999D03*
X210543334Y-86339999D03*
X230963334Y-70749999D03*
X220753334Y-78949999D03*
X259333334Y-46149999D03*
X241173334Y-62549999D03*
X251383334Y-54349999D03*
X230963334Y-78949999D03*
X220753334Y-87149999D03*
X241173334Y-70749999D03*
X269543334Y-46149999D03*
X251383334Y-62549999D03*
X261593334Y-54349999D03*
X230963334Y-87149999D03*
X206443334Y-53539999D03*
X241173334Y-78949999D03*
X251383334Y-70749999D03*
X261593334Y-62549999D03*
X241173334Y-87149999D03*
X251383334Y-78949999D03*
D13*
X116000000Y-56725000D03*
X116000000Y-65275000D03*
D14*
X85300000Y-64000000D03*
X85300000Y-63200000D03*
X85300000Y-62400000D03*
X85300000Y-61600000D03*
X85300000Y-60800000D03*
X85300000Y-60000000D03*
X85300000Y-59200000D03*
X85300000Y-58400000D03*
X85300000Y-57600000D03*
X85300000Y-56800000D03*
X85300000Y-56000000D03*
D15*
X87000000Y-54300000D03*
X87800000Y-54300000D03*
X88600000Y-54300000D03*
X89400000Y-54300000D03*
X90200000Y-54300000D03*
X91000000Y-54300000D03*
X91800000Y-54300000D03*
X92600000Y-54300000D03*
X93400000Y-54300000D03*
X94200000Y-54300000D03*
X95000000Y-54300000D03*
D14*
X96700000Y-56000000D03*
X96700000Y-56800000D03*
X96700000Y-57600000D03*
X96700000Y-58400000D03*
X96700000Y-59200000D03*
X96700000Y-60000000D03*
X96700000Y-60800000D03*
X96700000Y-61600000D03*
X96700000Y-62400000D03*
X96700000Y-63200000D03*
X96700000Y-64000000D03*
D15*
X95000000Y-65700000D03*
X94200000Y-65700000D03*
X93400000Y-65700000D03*
X92600000Y-65700000D03*
X91800000Y-65700000D03*
X91000000Y-65700000D03*
X90200000Y-65700000D03*
X89400000Y-65700000D03*
X88600000Y-65700000D03*
X87800000Y-65700000D03*
X87000000Y-65700000D03*
M02*
