G04 #@! TF.FileFunction,Legend,Top*
%FSLAX46Y46*%
G04 Gerber Fmt 4.6, Leading zero omitted, Abs format (unit mm)*
G04 Created by KiCad (PCBNEW 4.0.4+dfsg1-stable) date Wed Feb 22 14:06:43 2017*
%MOMM*%
%LPD*%
G01*
G04 APERTURE LIST*
%ADD10C,0.100000*%
%ADD11C,0.150000*%
%ADD12C,0.120000*%
%ADD13C,0.127000*%
G04 APERTURE END LIST*
D10*
D11*
X100310000Y-60250000D02*
X100810000Y-60250000D01*
X100810000Y-60250000D02*
X100810000Y-66750000D01*
X100810000Y-66750000D02*
X100310000Y-66750000D01*
X97810000Y-66750000D02*
X97310000Y-66750000D01*
X97310000Y-66750000D02*
X97310000Y-60250000D01*
X97310000Y-60250000D02*
X97810000Y-60250000D01*
X84236918Y-58663082D02*
G75*
G03X84236918Y-58663082I-176918J0D01*
G01*
X83725000Y-58325000D02*
X83725000Y-59000000D01*
X94075000Y-58325000D02*
X94075000Y-59000000D01*
X94075000Y-68675000D02*
X94075000Y-68000000D01*
X83725000Y-68675000D02*
X83725000Y-68000000D01*
X83725000Y-58325000D02*
X84400000Y-58325000D01*
X83725000Y-68675000D02*
X84400000Y-68675000D01*
X94075000Y-68675000D02*
X93400000Y-68675000D01*
X94075000Y-58325000D02*
X93400000Y-58325000D01*
X83725000Y-59000000D02*
X82450000Y-59000000D01*
D12*
X76582000Y-66300000D02*
X76582000Y-61750000D01*
X79882000Y-66300000D02*
X79882000Y-61750000D01*
X76582000Y-66300000D02*
X79882000Y-66300000D01*
D11*
X97935000Y-70346000D02*
X100635000Y-70346000D01*
X97935000Y-68846000D02*
X100635000Y-68846000D01*
X99435000Y-69746000D02*
X99435000Y-69496000D01*
X99435000Y-69496000D02*
X99285000Y-69646000D01*
X99185000Y-69246000D02*
X99185000Y-69946000D01*
X99535000Y-69596000D02*
X99885000Y-69596000D01*
X99185000Y-69596000D02*
X99535000Y-69246000D01*
X99535000Y-69246000D02*
X99535000Y-69946000D01*
X99535000Y-69946000D02*
X99185000Y-69596000D01*
X97935000Y-58154000D02*
X100635000Y-58154000D01*
X97935000Y-56654000D02*
X100635000Y-56654000D01*
X99435000Y-57554000D02*
X99435000Y-57304000D01*
X99435000Y-57304000D02*
X99285000Y-57454000D01*
X99185000Y-57054000D02*
X99185000Y-57754000D01*
X99535000Y-57404000D02*
X99885000Y-57404000D01*
X99185000Y-57404000D02*
X99535000Y-57054000D01*
X99535000Y-57054000D02*
X99535000Y-57754000D01*
X99535000Y-57754000D02*
X99185000Y-57404000D01*
D13*
X100432229Y-64510899D02*
X100468514Y-64402042D01*
X100468514Y-64220613D01*
X100432229Y-64148042D01*
X100395943Y-64111756D01*
X100323371Y-64075471D01*
X100250800Y-64075471D01*
X100178229Y-64111756D01*
X100141943Y-64148042D01*
X100105657Y-64220613D01*
X100069371Y-64365756D01*
X100033086Y-64438328D01*
X99996800Y-64474613D01*
X99924229Y-64510899D01*
X99851657Y-64510899D01*
X99779086Y-64474613D01*
X99742800Y-64438328D01*
X99706514Y-64365756D01*
X99706514Y-64184328D01*
X99742800Y-64075471D01*
X99706514Y-63821471D02*
X100468514Y-63640042D01*
X99924229Y-63494899D01*
X100468514Y-63349757D01*
X99706514Y-63168328D01*
X100468514Y-62478900D02*
X100468514Y-62914328D01*
X100468514Y-62696614D02*
X99706514Y-62696614D01*
X99815371Y-62769185D01*
X99887943Y-62841757D01*
X99924229Y-62914328D01*
D11*
X75439143Y-63666666D02*
X75486762Y-63714285D01*
X75534381Y-63857142D01*
X75534381Y-63952380D01*
X75486762Y-64095238D01*
X75391524Y-64190476D01*
X75296286Y-64238095D01*
X75105810Y-64285714D01*
X74962952Y-64285714D01*
X74772476Y-64238095D01*
X74677238Y-64190476D01*
X74582000Y-64095238D01*
X74534381Y-63952380D01*
X74534381Y-63857142D01*
X74582000Y-63714285D01*
X74629619Y-63666666D01*
X74534381Y-62761904D02*
X74534381Y-63238095D01*
X75010571Y-63285714D01*
X74962952Y-63238095D01*
X74915333Y-63142857D01*
X74915333Y-62904761D01*
X74962952Y-62809523D01*
X75010571Y-62761904D01*
X75105810Y-62714285D01*
X75343905Y-62714285D01*
X75439143Y-62761904D01*
X75486762Y-62809523D01*
X75534381Y-62904761D01*
X75534381Y-63142857D01*
X75486762Y-63238095D01*
X75439143Y-63285714D01*
X98796905Y-68298381D02*
X98796905Y-67298381D01*
X99035000Y-67298381D01*
X99177858Y-67346000D01*
X99273096Y-67441238D01*
X99320715Y-67536476D01*
X99368334Y-67726952D01*
X99368334Y-67869810D01*
X99320715Y-68060286D01*
X99273096Y-68155524D01*
X99177858Y-68250762D01*
X99035000Y-68298381D01*
X98796905Y-68298381D01*
X100320715Y-68298381D02*
X99749286Y-68298381D01*
X100035000Y-68298381D02*
X100035000Y-67298381D01*
X99939762Y-67441238D01*
X99844524Y-67536476D01*
X99749286Y-67584095D01*
X98796905Y-56106381D02*
X98796905Y-55106381D01*
X99035000Y-55106381D01*
X99177858Y-55154000D01*
X99273096Y-55249238D01*
X99320715Y-55344476D01*
X99368334Y-55534952D01*
X99368334Y-55677810D01*
X99320715Y-55868286D01*
X99273096Y-55963524D01*
X99177858Y-56058762D01*
X99035000Y-56106381D01*
X98796905Y-56106381D01*
X99749286Y-55201619D02*
X99796905Y-55154000D01*
X99892143Y-55106381D01*
X100130239Y-55106381D01*
X100225477Y-55154000D01*
X100273096Y-55201619D01*
X100320715Y-55296857D01*
X100320715Y-55392095D01*
X100273096Y-55534952D01*
X99701667Y-56106381D01*
X100320715Y-56106381D01*
M02*
