G04 #@! TF.FileFunction,Soldermask,Bot*
%FSLAX46Y46*%
G04 Gerber Fmt 4.6, Leading zero omitted, Abs format (unit mm)*
G04 Created by KiCad (PCBNEW 4.0.2+dfsg1-2~bpo8+1-stable) date mar 03 ene 2017 00:11:09 COT*
%MOMM*%
G01*
G04 APERTURE LIST*
%ADD10C,0.100000*%
%ADD11C,2.600000*%
%ADD12R,1.900000X0.950000*%
%ADD13R,0.950000X1.900000*%
%ADD14C,2.127200*%
%ADD15R,1.400000X2.000000*%
%ADD16R,1.997660X2.200860*%
%ADD17C,1.299160*%
%ADD18R,2.432000X2.127200*%
%ADD19R,2.127200X2.127200*%
%ADD20R,1.300000X2.100000*%
%ADD21R,2.400000X2.900000*%
%ADD22R,2.800000X2.400000*%
G04 APERTURE END LIST*
D10*
D11*
X66802000Y-67411600D03*
D12*
X85300000Y-64000000D03*
X85300000Y-63200000D03*
X85300000Y-62400000D03*
X85300000Y-61600000D03*
X85300000Y-60800000D03*
X85300000Y-60000000D03*
X85300000Y-59200000D03*
X85300000Y-58400000D03*
X85300000Y-57600000D03*
X85300000Y-56800000D03*
X85300000Y-56000000D03*
D13*
X87000000Y-54300000D03*
X87800000Y-54300000D03*
X88600000Y-54300000D03*
X89400000Y-54300000D03*
X90200000Y-54300000D03*
X91000000Y-54300000D03*
X91800000Y-54300000D03*
X92600000Y-54300000D03*
X93400000Y-54300000D03*
X94200000Y-54300000D03*
X95000000Y-54300000D03*
D12*
X96700000Y-56000000D03*
X96700000Y-56800000D03*
X96700000Y-57600000D03*
X96700000Y-58400000D03*
X96700000Y-59200000D03*
X96700000Y-60000000D03*
X96700000Y-60800000D03*
X96700000Y-61600000D03*
X96700000Y-62400000D03*
X96700000Y-63200000D03*
X96700000Y-64000000D03*
D13*
X95000000Y-65700000D03*
X94200000Y-65700000D03*
X93400000Y-65700000D03*
X92600000Y-65700000D03*
X91800000Y-65700000D03*
X91000000Y-65700000D03*
X90200000Y-65700000D03*
X89400000Y-65700000D03*
X88600000Y-65700000D03*
X87800000Y-65700000D03*
X87000000Y-65700000D03*
D14*
X78994000Y-70485000D03*
D15*
X72009000Y-61374800D03*
X75009000Y-61374800D03*
X72009000Y-58580800D03*
X75009000Y-58580800D03*
X72009000Y-64168800D03*
X75009000Y-64168800D03*
X75009000Y-55786800D03*
X72009000Y-55786800D03*
D16*
X105443140Y-54251900D03*
X108282860Y-54251900D03*
X105443140Y-65935900D03*
X108282860Y-65935900D03*
D17*
X69850900Y-57800360D03*
X69850900Y-62199640D03*
D18*
X101854000Y-57404000D03*
D19*
X101854000Y-62484000D03*
D18*
X101854000Y-59944000D03*
D19*
X101854000Y-65024000D03*
D14*
X68834000Y-49403000D03*
X96774000Y-49403000D03*
X71374000Y-49403000D03*
X99314000Y-49403000D03*
X73914000Y-49403000D03*
X101854000Y-49403000D03*
X81534000Y-49403000D03*
X101854000Y-52324000D03*
X84074000Y-49403000D03*
X101854000Y-54864000D03*
X86614000Y-49403000D03*
X101854000Y-70485000D03*
X89154000Y-49403000D03*
X89154000Y-70485000D03*
X86614000Y-70485000D03*
X76454000Y-70485000D03*
X84074000Y-70485000D03*
X99314000Y-70485000D03*
X81534000Y-70485000D03*
X94234000Y-70485000D03*
X73914000Y-70485000D03*
X91694000Y-70485000D03*
X71374000Y-70485000D03*
X91694000Y-49403000D03*
X68834000Y-70485000D03*
X94234000Y-49403000D03*
X66294000Y-70485000D03*
X96774000Y-70485000D03*
X78994000Y-49403000D03*
X76454000Y-49403000D03*
D20*
X105383000Y-57299900D03*
X108283000Y-57299900D03*
X105383000Y-60093900D03*
X108283000Y-60093900D03*
X108283000Y-62887900D03*
X105383000Y-62887900D03*
D21*
X112011000Y-55724900D03*
X112011000Y-64274900D03*
D22*
X78063000Y-57871800D03*
X78063000Y-61971800D03*
D14*
X66294000Y-49403000D03*
D19*
X101854000Y-67564000D03*
D11*
X112268000Y-50292000D03*
X112268000Y-69723000D03*
X66802000Y-52501800D03*
M02*
