G04 #@! TF.FileFunction,Legend,Top*
%FSLAX46Y46*%
G04 Gerber Fmt 4.6, Leading zero omitted, Abs format (unit mm)*
G04 Created by KiCad (PCBNEW 4.0.2+dfsg1-2~bpo8+1-stable) date jue 29 dic 2016 12:28:54 COT*
%MOMM*%
G01*
G04 APERTURE LIST*
%ADD10C,0.100000*%
%ADD11C,0.150000*%
G04 APERTURE END LIST*
D10*
D11*
X80264000Y-71755000D02*
X80264000Y-69215000D01*
X77444000Y-68935000D02*
X78994000Y-68935000D01*
X77444000Y-68935000D02*
X77444000Y-72035000D01*
X77444000Y-72035000D02*
X78994000Y-72035000D01*
X65400820Y-56149360D02*
X65400820Y-63850640D01*
X64400060Y-56149360D02*
X64400060Y-63850640D01*
X64400060Y-63850640D02*
X73599940Y-63850640D01*
X73599940Y-63850640D02*
X73599940Y-56149360D01*
X73599940Y-56149360D02*
X64400060Y-56149360D01*
X103124000Y-56134000D02*
X100584000Y-56134000D01*
X100304000Y-58954000D02*
X100304000Y-57404000D01*
X100304000Y-58954000D02*
X103404000Y-58954000D01*
X103404000Y-58954000D02*
X103404000Y-57404000D01*
X103124000Y-63754000D02*
X103124000Y-61214000D01*
X100304000Y-60934000D02*
X101854000Y-60934000D01*
X100304000Y-60934000D02*
X100304000Y-64034000D01*
X100304000Y-64034000D02*
X101854000Y-64034000D01*
X100584000Y-61214000D02*
X103124000Y-61214000D01*
X103404000Y-58394000D02*
X103404000Y-59944000D01*
X103404000Y-58394000D02*
X100304000Y-58394000D01*
X100304000Y-58394000D02*
X100304000Y-59944000D01*
X103124000Y-66294000D02*
X103124000Y-63754000D01*
X100304000Y-63474000D02*
X101854000Y-63474000D01*
X100304000Y-63474000D02*
X100304000Y-66574000D01*
X100304000Y-66574000D02*
X101854000Y-66574000D01*
X70104000Y-50673000D02*
X70104000Y-48133000D01*
X67284000Y-47853000D02*
X68834000Y-47853000D01*
X67284000Y-47853000D02*
X67284000Y-50953000D01*
X67284000Y-50953000D02*
X68834000Y-50953000D01*
X98044000Y-50673000D02*
X98044000Y-48133000D01*
X95224000Y-47853000D02*
X96774000Y-47853000D01*
X95224000Y-47853000D02*
X95224000Y-50953000D01*
X95224000Y-50953000D02*
X96774000Y-50953000D01*
X72644000Y-50673000D02*
X72644000Y-48133000D01*
X69824000Y-47853000D02*
X71374000Y-47853000D01*
X69824000Y-47853000D02*
X69824000Y-50953000D01*
X69824000Y-50953000D02*
X71374000Y-50953000D01*
X100584000Y-50673000D02*
X100584000Y-48133000D01*
X97764000Y-47853000D02*
X99314000Y-47853000D01*
X97764000Y-47853000D02*
X97764000Y-50953000D01*
X97764000Y-50953000D02*
X99314000Y-50953000D01*
X75184000Y-50673000D02*
X75184000Y-48133000D01*
X72364000Y-47853000D02*
X73914000Y-47853000D01*
X72364000Y-47853000D02*
X72364000Y-50953000D01*
X72364000Y-50953000D02*
X73914000Y-50953000D01*
X103124000Y-50673000D02*
X103124000Y-48133000D01*
X100304000Y-47853000D02*
X101854000Y-47853000D01*
X100304000Y-47853000D02*
X100304000Y-50953000D01*
X100304000Y-50953000D02*
X101854000Y-50953000D01*
X82804000Y-50673000D02*
X82804000Y-48133000D01*
X79984000Y-47853000D02*
X81534000Y-47853000D01*
X79984000Y-47853000D02*
X79984000Y-50953000D01*
X79984000Y-50953000D02*
X81534000Y-50953000D01*
X103124000Y-51054000D02*
X100584000Y-51054000D01*
X100304000Y-53874000D02*
X100304000Y-52324000D01*
X100304000Y-53874000D02*
X103404000Y-53874000D01*
X103404000Y-53874000D02*
X103404000Y-52324000D01*
X85344000Y-50673000D02*
X85344000Y-48133000D01*
X82524000Y-47853000D02*
X84074000Y-47853000D01*
X82524000Y-47853000D02*
X82524000Y-50953000D01*
X82524000Y-50953000D02*
X84074000Y-50953000D01*
X103124000Y-53594000D02*
X100584000Y-53594000D01*
X100304000Y-56414000D02*
X100304000Y-54864000D01*
X100304000Y-56414000D02*
X103404000Y-56414000D01*
X103404000Y-56414000D02*
X103404000Y-54864000D01*
X87884000Y-50673000D02*
X87884000Y-48133000D01*
X85064000Y-47853000D02*
X86614000Y-47853000D01*
X85064000Y-47853000D02*
X85064000Y-50953000D01*
X85064000Y-50953000D02*
X86614000Y-50953000D01*
X103124000Y-71755000D02*
X103124000Y-69215000D01*
X100304000Y-68935000D02*
X101854000Y-68935000D01*
X100304000Y-68935000D02*
X100304000Y-72035000D01*
X100304000Y-72035000D02*
X101854000Y-72035000D01*
X90424000Y-50673000D02*
X90424000Y-48133000D01*
X87604000Y-47853000D02*
X89154000Y-47853000D01*
X87604000Y-47853000D02*
X87604000Y-50953000D01*
X87604000Y-50953000D02*
X89154000Y-50953000D01*
X90424000Y-71755000D02*
X90424000Y-69215000D01*
X87604000Y-68935000D02*
X89154000Y-68935000D01*
X87604000Y-68935000D02*
X87604000Y-72035000D01*
X87604000Y-72035000D02*
X89154000Y-72035000D01*
X87884000Y-71755000D02*
X87884000Y-69215000D01*
X85064000Y-68935000D02*
X86614000Y-68935000D01*
X85064000Y-68935000D02*
X85064000Y-72035000D01*
X85064000Y-72035000D02*
X86614000Y-72035000D01*
X77724000Y-71755000D02*
X77724000Y-69215000D01*
X74904000Y-68935000D02*
X76454000Y-68935000D01*
X74904000Y-68935000D02*
X74904000Y-72035000D01*
X74904000Y-72035000D02*
X76454000Y-72035000D01*
X85344000Y-71755000D02*
X85344000Y-69215000D01*
X82524000Y-68935000D02*
X84074000Y-68935000D01*
X82524000Y-68935000D02*
X82524000Y-72035000D01*
X82524000Y-72035000D02*
X84074000Y-72035000D01*
X100584000Y-71755000D02*
X100584000Y-69215000D01*
X97764000Y-68935000D02*
X99314000Y-68935000D01*
X97764000Y-68935000D02*
X97764000Y-72035000D01*
X97764000Y-72035000D02*
X99314000Y-72035000D01*
X82804000Y-71755000D02*
X82804000Y-69215000D01*
X79984000Y-68935000D02*
X81534000Y-68935000D01*
X79984000Y-68935000D02*
X79984000Y-72035000D01*
X79984000Y-72035000D02*
X81534000Y-72035000D01*
X95504000Y-71755000D02*
X95504000Y-69215000D01*
X92684000Y-68935000D02*
X94234000Y-68935000D01*
X92684000Y-68935000D02*
X92684000Y-72035000D01*
X92684000Y-72035000D02*
X94234000Y-72035000D01*
X75184000Y-71755000D02*
X75184000Y-69215000D01*
X72364000Y-68935000D02*
X73914000Y-68935000D01*
X72364000Y-68935000D02*
X72364000Y-72035000D01*
X72364000Y-72035000D02*
X73914000Y-72035000D01*
X92964000Y-71755000D02*
X92964000Y-69215000D01*
X90144000Y-68935000D02*
X91694000Y-68935000D01*
X90144000Y-68935000D02*
X90144000Y-72035000D01*
X90144000Y-72035000D02*
X91694000Y-72035000D01*
X72644000Y-71755000D02*
X72644000Y-69215000D01*
X69824000Y-68935000D02*
X71374000Y-68935000D01*
X69824000Y-68935000D02*
X69824000Y-72035000D01*
X69824000Y-72035000D02*
X71374000Y-72035000D01*
X92964000Y-50673000D02*
X92964000Y-48133000D01*
X90144000Y-47853000D02*
X91694000Y-47853000D01*
X90144000Y-47853000D02*
X90144000Y-50953000D01*
X90144000Y-50953000D02*
X91694000Y-50953000D01*
X70104000Y-71755000D02*
X70104000Y-69215000D01*
X67284000Y-68935000D02*
X68834000Y-68935000D01*
X67284000Y-68935000D02*
X67284000Y-72035000D01*
X67284000Y-72035000D02*
X68834000Y-72035000D01*
X95504000Y-50673000D02*
X95504000Y-48133000D01*
X92684000Y-47853000D02*
X94234000Y-47853000D01*
X92684000Y-47853000D02*
X92684000Y-50953000D01*
X92684000Y-50953000D02*
X94234000Y-50953000D01*
X67564000Y-71755000D02*
X67564000Y-69215000D01*
X64744000Y-68935000D02*
X66294000Y-68935000D01*
X64744000Y-68935000D02*
X64744000Y-72035000D01*
X64744000Y-72035000D02*
X66294000Y-72035000D01*
X98044000Y-71755000D02*
X98044000Y-69215000D01*
X95224000Y-68935000D02*
X96774000Y-68935000D01*
X95224000Y-68935000D02*
X95224000Y-72035000D01*
X95224000Y-72035000D02*
X96774000Y-72035000D01*
X80264000Y-50673000D02*
X80264000Y-48133000D01*
X77444000Y-47853000D02*
X78994000Y-47853000D01*
X77444000Y-47853000D02*
X77444000Y-50953000D01*
X77444000Y-50953000D02*
X78994000Y-50953000D01*
X77724000Y-50673000D02*
X77724000Y-48133000D01*
X74904000Y-47853000D02*
X76454000Y-47853000D01*
X74904000Y-47853000D02*
X74904000Y-50953000D01*
X74904000Y-50953000D02*
X76454000Y-50953000D01*
X67564000Y-50673000D02*
X67564000Y-48133000D01*
X64744000Y-47853000D02*
X66294000Y-47853000D01*
X64744000Y-47853000D02*
X64744000Y-50953000D01*
X64744000Y-50953000D02*
X66294000Y-50953000D01*
X103124000Y-68834000D02*
X103124000Y-66294000D01*
X100304000Y-66014000D02*
X101854000Y-66014000D01*
X100304000Y-66014000D02*
X100304000Y-69114000D01*
X100304000Y-69114000D02*
X101854000Y-69114000D01*
X76078080Y-63144400D02*
X79877920Y-63144400D01*
X76078080Y-57444640D02*
X76078080Y-62443360D01*
X79877920Y-57447180D02*
X79877920Y-62445900D01*
X74975720Y-63746380D02*
X76075540Y-63746380D01*
X75476100Y-64345820D02*
X75476100Y-63146940D01*
X79605143Y-60547666D02*
X79652762Y-60595285D01*
X79700381Y-60738142D01*
X79700381Y-60833380D01*
X79652762Y-60976238D01*
X79557524Y-61071476D01*
X79462286Y-61119095D01*
X79271810Y-61166714D01*
X79128952Y-61166714D01*
X78938476Y-61119095D01*
X78843238Y-61071476D01*
X78748000Y-60976238D01*
X78700381Y-60833380D01*
X78700381Y-60738142D01*
X78748000Y-60595285D01*
X78795619Y-60547666D01*
X78700381Y-59642904D02*
X78700381Y-60119095D01*
X79176571Y-60166714D01*
X79128952Y-60119095D01*
X79081333Y-60023857D01*
X79081333Y-59785761D01*
X79128952Y-59690523D01*
X79176571Y-59642904D01*
X79271810Y-59595285D01*
X79509905Y-59595285D01*
X79605143Y-59642904D01*
X79652762Y-59690523D01*
X79700381Y-59785761D01*
X79700381Y-60023857D01*
X79652762Y-60119095D01*
X79605143Y-60166714D01*
X75550069Y-64124792D02*
X75550069Y-63362887D01*
X75931021Y-63743839D02*
X75169116Y-63743839D01*
M02*
