G04 #@! TF.FileFunction,Copper,L1,Top,Signal*
%FSLAX46Y46*%
G04 Gerber Fmt 4.6, Leading zero omitted, Abs format (unit mm)*
G04 Created by KiCad (PCBNEW 4.0.4+dfsg1-stable) date Wed Feb 22 14:06:43 2017*
%MOMM*%
%LPD*%
G01*
G04 APERTURE LIST*
%ADD10C,0.100000*%
%ADD11R,2.000000X1.500000*%
%ADD12R,0.914400X0.914400*%
%ADD13C,0.914400*%
%ADD14O,0.914400X0.914400*%
%ADD15R,1.500000X0.550000*%
%ADD16R,0.550000X1.500000*%
%ADD17R,2.500000X1.950000*%
%ADD18R,1.198880X1.198880*%
%ADD19C,0.660400*%
%ADD20C,0.254000*%
G04 APERTURE END LIST*
D10*
D11*
X99060000Y-60000000D03*
X99060000Y-67000000D03*
D12*
X100330000Y-52070000D03*
X100330000Y-54610000D03*
D13*
X92710000Y-54610000D03*
D12*
X97790000Y-52070000D03*
D13*
X95250000Y-54610000D03*
D12*
X95250000Y-52070000D03*
D13*
X92710000Y-52070000D03*
X97790000Y-54610000D03*
X90170000Y-54610000D03*
X90170000Y-52070000D03*
X87630000Y-52070000D03*
X87630000Y-54610000D03*
X85090000Y-54610000D03*
X85090000Y-52070000D03*
X82550000Y-54610000D03*
X82550000Y-52070000D03*
X80010000Y-54610000D03*
X80010000Y-52070000D03*
X77470000Y-52070000D03*
X77470000Y-54610000D03*
D14*
X95250000Y-74930000D03*
D13*
X97790000Y-72390000D03*
D14*
X100330000Y-74930000D03*
X97790000Y-74930000D03*
D13*
X95250000Y-72390000D03*
X92710000Y-72390000D03*
X100330000Y-72390000D03*
X90170000Y-72390000D03*
X92710000Y-74930000D03*
X87630000Y-72390000D03*
X90170000Y-74930000D03*
X85090000Y-72390000D03*
X87630000Y-74930000D03*
X80010000Y-72390000D03*
X77470000Y-72390000D03*
X85090000Y-74930000D03*
X82550000Y-74930000D03*
X77470000Y-74930000D03*
X82550000Y-72390000D03*
X80010000Y-74930000D03*
D15*
X83200000Y-59500000D03*
X83200000Y-60300000D03*
X83200000Y-61100000D03*
X83200000Y-61900000D03*
X83200000Y-62700000D03*
X83200000Y-63500000D03*
X83200000Y-64300000D03*
X83200000Y-65100000D03*
X83200000Y-65900000D03*
X83200000Y-66700000D03*
X83200000Y-67500000D03*
D16*
X84900000Y-69200000D03*
X85700000Y-69200000D03*
X86500000Y-69200000D03*
X87300000Y-69200000D03*
X88100000Y-69200000D03*
X88900000Y-69200000D03*
X89700000Y-69200000D03*
X90500000Y-69200000D03*
X91300000Y-69200000D03*
X92100000Y-69200000D03*
X92900000Y-69200000D03*
D15*
X94600000Y-67500000D03*
X94600000Y-66700000D03*
X94600000Y-65900000D03*
X94600000Y-65100000D03*
X94600000Y-64300000D03*
X94600000Y-63500000D03*
X94600000Y-62700000D03*
X94600000Y-61900000D03*
X94600000Y-61100000D03*
X94600000Y-60300000D03*
X94600000Y-59500000D03*
D16*
X92900000Y-57800000D03*
X92100000Y-57800000D03*
X91300000Y-57800000D03*
X90500000Y-57800000D03*
X89700000Y-57800000D03*
X88900000Y-57800000D03*
X88100000Y-57800000D03*
X87300000Y-57800000D03*
X86500000Y-57800000D03*
X85700000Y-57800000D03*
X84900000Y-57800000D03*
D17*
X78232000Y-65025000D03*
X78232000Y-61975000D03*
D18*
X100584020Y-69596000D03*
X98485980Y-69596000D03*
X100584020Y-57404000D03*
X98485980Y-57404000D03*
D19*
X92244700Y-61179600D03*
X89603500Y-63021200D03*
X90574000Y-56454600D03*
X96648800Y-68236300D03*
X98193300Y-58626700D03*
X85726300Y-59665500D03*
X86125900Y-56459700D03*
X85224100Y-66344300D03*
X96757100Y-64300000D03*
X93264000Y-67283500D03*
X96993800Y-67000000D03*
X89772900Y-70571700D03*
D20*
X97790000Y-52070000D02*
X100330000Y-52070000D01*
X78400700Y-63500000D02*
X78232000Y-63331300D01*
X83200000Y-63500000D02*
X78400700Y-63500000D01*
X78232000Y-61975000D02*
X78232000Y-63331300D01*
X97474400Y-59795700D02*
X97678700Y-60000000D01*
X97474400Y-56627100D02*
X97474400Y-59795700D01*
X99491500Y-54610000D02*
X97474400Y-56627100D01*
X100330000Y-54610000D02*
X99491500Y-54610000D01*
X99060000Y-60000000D02*
X97678700Y-60000000D01*
X92230500Y-62700000D02*
X94600000Y-62700000D01*
X91176400Y-63754100D02*
X92230500Y-62700000D01*
X89330300Y-63754100D02*
X91176400Y-63754100D01*
X89076200Y-63500000D02*
X89330300Y-63754100D01*
X83200000Y-63500000D02*
X89076200Y-63500000D01*
X95731300Y-61947400D02*
X97678700Y-60000000D01*
X95731300Y-62700000D02*
X95731300Y-61947400D01*
X94600000Y-62700000D02*
X95731300Y-62700000D01*
X93389100Y-61179600D02*
X93468700Y-61100000D01*
X92244700Y-61179600D02*
X93389100Y-61179600D01*
X94600000Y-61100000D02*
X93468700Y-61100000D01*
X90724700Y-61900000D02*
X94600000Y-61900000D01*
X89603500Y-63021200D02*
X90724700Y-61900000D01*
X97790000Y-74930000D02*
X95250000Y-74930000D01*
X100584000Y-69596000D02*
X100584000Y-68615300D01*
X100584000Y-60960400D02*
X98307800Y-63236600D01*
X100584000Y-57404000D02*
X100584000Y-60960400D01*
X101028800Y-65957600D02*
X98307800Y-63236600D01*
X101028800Y-68170500D02*
X101028800Y-65957600D01*
X100584000Y-68615300D02*
X101028800Y-68170500D01*
X98044400Y-63500000D02*
X94600000Y-63500000D01*
X98307800Y-63236600D02*
X98044400Y-63500000D01*
X80588300Y-64300000D02*
X79863300Y-65025000D01*
X83200000Y-64300000D02*
X80588300Y-64300000D01*
X78232000Y-65025000D02*
X79863300Y-65025000D01*
X92149400Y-63500000D02*
X94600000Y-63500000D01*
X91349400Y-64300000D02*
X92149400Y-63500000D01*
X83200000Y-64300000D02*
X91349400Y-64300000D01*
X100584000Y-69596000D02*
X100584000Y-70576700D01*
X100330000Y-74930000D02*
X97790000Y-74930000D01*
X101208600Y-71201300D02*
X100584000Y-70576700D01*
X101208600Y-73212900D02*
X101208600Y-71201300D01*
X100330000Y-74091500D02*
X101208600Y-73212900D01*
X100330000Y-74930000D02*
X100330000Y-74091500D01*
X90500000Y-56528600D02*
X90500000Y-57800000D01*
X90574000Y-56454600D02*
X90500000Y-56528600D01*
X98486000Y-69596000D02*
X97505300Y-69596000D01*
X97505300Y-69092800D02*
X96648800Y-68236300D01*
X97505300Y-69596000D02*
X97505300Y-69092800D01*
X98435300Y-58384700D02*
X98486000Y-58384700D01*
X98193300Y-58626700D02*
X98435300Y-58384700D01*
X98486000Y-57404000D02*
X98486000Y-58384700D01*
X86460500Y-58931300D02*
X85726300Y-59665500D01*
X86500000Y-58931300D02*
X86460500Y-58931300D01*
X86500000Y-57800000D02*
X86500000Y-58931300D01*
X85700000Y-57800000D02*
X85700000Y-56668700D01*
X85916900Y-56668700D02*
X85700000Y-56668700D01*
X86125900Y-56459700D02*
X85916900Y-56668700D01*
X85224100Y-65992800D02*
X85224100Y-66344300D01*
X84331300Y-65100000D02*
X85224100Y-65992800D01*
X83200000Y-65100000D02*
X84331300Y-65100000D01*
X78708800Y-74930000D02*
X77470000Y-74930000D01*
X81280000Y-72358800D02*
X78708800Y-74930000D01*
X81280000Y-71008300D02*
X81280000Y-72358800D01*
X84331300Y-67957000D02*
X81280000Y-71008300D01*
X84331300Y-65900000D02*
X84331300Y-67957000D01*
X83200000Y-65900000D02*
X84331300Y-65900000D01*
X92100000Y-71780000D02*
X92710000Y-72390000D01*
X92100000Y-69200000D02*
X92100000Y-71780000D01*
X77470000Y-71298700D02*
X82068700Y-66700000D01*
X77470000Y-72390000D02*
X77470000Y-71298700D01*
X83200000Y-66700000D02*
X82068700Y-66700000D01*
X93556300Y-74083700D02*
X92710000Y-74930000D01*
X93556300Y-70987600D02*
X93556300Y-74083700D01*
X92900000Y-70331300D02*
X93556300Y-70987600D01*
X92900000Y-69200000D02*
X92900000Y-70331300D01*
X80010000Y-69558700D02*
X80010000Y-72390000D01*
X82068700Y-67500000D02*
X80010000Y-69558700D01*
X83200000Y-67500000D02*
X82068700Y-67500000D01*
X94600000Y-69200000D02*
X97790000Y-72390000D01*
X94600000Y-67500000D02*
X94600000Y-69200000D01*
X86500000Y-70980000D02*
X85090000Y-72390000D01*
X86500000Y-69200000D02*
X86500000Y-70980000D01*
X99506000Y-72390000D02*
X100330000Y-72390000D01*
X95731300Y-68615300D02*
X99506000Y-72390000D01*
X95731300Y-65900000D02*
X95731300Y-68615300D01*
X94600000Y-65900000D02*
X95731300Y-65900000D01*
X85090000Y-73575900D02*
X85090000Y-74930000D01*
X87300000Y-71365900D02*
X85090000Y-73575900D01*
X87300000Y-69200000D02*
X87300000Y-71365900D01*
X94064700Y-71204700D02*
X95250000Y-72390000D01*
X94064700Y-68777100D02*
X94064700Y-71204700D01*
X93347500Y-68059900D02*
X94064700Y-68777100D01*
X93010400Y-68059900D02*
X93347500Y-68059900D01*
X92536000Y-67585500D02*
X93010400Y-68059900D01*
X92536000Y-66032700D02*
X92536000Y-67585500D01*
X93468700Y-65100000D02*
X92536000Y-66032700D01*
X94600000Y-65100000D02*
X93468700Y-65100000D01*
X88100000Y-71920000D02*
X87630000Y-72390000D01*
X88100000Y-69200000D02*
X88100000Y-71920000D01*
X94600000Y-64300000D02*
X96757100Y-64300000D01*
X88900000Y-73660000D02*
X87630000Y-74930000D01*
X88900000Y-69200000D02*
X88900000Y-73660000D01*
X87630000Y-53424100D02*
X87630000Y-52070000D01*
X89700000Y-55494100D02*
X87630000Y-53424100D01*
X89700000Y-57800000D02*
X89700000Y-55494100D01*
X84243700Y-53763700D02*
X82550000Y-52070000D01*
X84243700Y-56012400D02*
X84243700Y-53763700D01*
X84900000Y-56668700D02*
X84243700Y-56012400D01*
X84900000Y-57800000D02*
X84900000Y-56668700D01*
X88900000Y-55880000D02*
X87630000Y-54610000D01*
X88900000Y-57800000D02*
X88900000Y-55880000D01*
X82550000Y-58850000D02*
X82550000Y-54610000D01*
X83200000Y-59500000D02*
X82550000Y-58850000D01*
X85090000Y-53424100D02*
X85090000Y-52070000D01*
X88100000Y-56434100D02*
X85090000Y-53424100D01*
X88100000Y-57800000D02*
X88100000Y-56434100D01*
X95731300Y-56668700D02*
X97790000Y-54610000D01*
X95731300Y-60300000D02*
X95731300Y-56668700D01*
X94600000Y-60300000D02*
X95731300Y-60300000D01*
X87300000Y-57800000D02*
X87300000Y-56668700D01*
X85331500Y-54610000D02*
X85090000Y-54610000D01*
X87300000Y-56578500D02*
X85331500Y-54610000D01*
X87300000Y-56668700D02*
X87300000Y-56578500D01*
X90170000Y-53424100D02*
X90170000Y-52070000D01*
X92100000Y-55354100D02*
X90170000Y-53424100D01*
X92100000Y-57800000D02*
X92100000Y-55354100D01*
X82435800Y-60300000D02*
X83200000Y-60300000D01*
X80010000Y-57874200D02*
X82435800Y-60300000D01*
X80010000Y-54610000D02*
X80010000Y-57874200D01*
X91300000Y-55740000D02*
X90170000Y-54610000D01*
X91300000Y-57800000D02*
X91300000Y-55740000D01*
X84331300Y-58931300D02*
X84331300Y-61100000D01*
X83517000Y-58117000D02*
X84331300Y-58931300D01*
X83517000Y-54374200D02*
X83517000Y-58117000D01*
X81212800Y-52070000D02*
X83517000Y-54374200D01*
X80010000Y-52070000D02*
X81212800Y-52070000D01*
X83200000Y-61100000D02*
X84331300Y-61100000D01*
X90500000Y-72060000D02*
X90170000Y-72390000D01*
X90500000Y-69200000D02*
X90500000Y-72060000D01*
X83200000Y-61900000D02*
X82068700Y-61900000D01*
X82068700Y-60651700D02*
X82068700Y-61900000D01*
X78317200Y-56900200D02*
X82068700Y-60651700D01*
X78317200Y-52917200D02*
X78317200Y-56900200D01*
X77470000Y-52070000D02*
X78317200Y-52917200D01*
X91300000Y-73800000D02*
X90170000Y-74930000D01*
X91300000Y-69200000D02*
X91300000Y-73800000D01*
X77470000Y-58346200D02*
X77470000Y-54610000D01*
X79946700Y-60822900D02*
X77470000Y-58346200D01*
X79946700Y-61630700D02*
X79946700Y-60822900D01*
X81016000Y-62700000D02*
X79946700Y-61630700D01*
X83200000Y-62700000D02*
X81016000Y-62700000D01*
X93596500Y-52956500D02*
X92710000Y-52070000D01*
X93596500Y-58843800D02*
X93596500Y-52956500D01*
X93468700Y-58971600D02*
X93596500Y-58843800D01*
X93468700Y-59500000D02*
X93468700Y-58971600D01*
X94600000Y-59500000D02*
X93468700Y-59500000D01*
X82550000Y-73575900D02*
X82550000Y-74930000D01*
X85700000Y-70425900D02*
X82550000Y-73575900D01*
X85700000Y-69200000D02*
X85700000Y-70425900D01*
X84608700Y-70331300D02*
X82550000Y-72390000D01*
X84900000Y-70331300D02*
X84608700Y-70331300D01*
X84900000Y-69200000D02*
X84900000Y-70331300D01*
X94600000Y-66700000D02*
X93468700Y-66700000D01*
X93264000Y-66904700D02*
X93468700Y-66700000D01*
X93264000Y-67283500D02*
X93264000Y-66904700D01*
X99060000Y-67000000D02*
X97678700Y-67000000D01*
X97678700Y-67000000D02*
X96993800Y-67000000D01*
X89700000Y-70498800D02*
X89772900Y-70571700D01*
X89700000Y-69200000D02*
X89700000Y-70498800D01*
X92900000Y-54800000D02*
X92710000Y-54610000D01*
X92900000Y-57800000D02*
X92900000Y-54800000D01*
M02*
