G04 #@! TF.FileFunction,Copper,L2,Bot,Signal*
%FSLAX46Y46*%
G04 Gerber Fmt 4.6, Leading zero omitted, Abs format (unit mm)*
G04 Created by KiCad (PCBNEW 4.0.4+dfsg1-stable) date Wed Feb 22 14:06:43 2017*
%MOMM*%
%LPD*%
G01*
G04 APERTURE LIST*
%ADD10C,0.100000*%
%ADD11R,2.301240X0.500380*%
%ADD12R,2.499360X1.998980*%
%ADD13R,0.914400X0.914400*%
%ADD14C,0.914400*%
%ADD15O,0.914400X0.914400*%
%ADD16R,2.400000X2.000000*%
%ADD17R,1.250000X1.000000*%
%ADD18R,1.000000X1.250000*%
%ADD19R,0.700000X1.300000*%
%ADD20C,0.660400*%
%ADD21C,0.254000*%
G04 APERTURE END LIST*
D10*
D11*
X83459320Y-65100200D03*
X83459320Y-64300100D03*
X83459320Y-63500000D03*
X83459320Y-62699900D03*
X83459320Y-61899800D03*
D12*
X83360260Y-67950080D03*
X77861160Y-67950080D03*
X83360260Y-59049920D03*
X77861160Y-59049920D03*
D13*
X100330000Y-52070000D03*
X100330000Y-54610000D03*
D14*
X92710000Y-54610000D03*
D13*
X97790000Y-52070000D03*
D14*
X95250000Y-54610000D03*
D13*
X95250000Y-52070000D03*
D14*
X92710000Y-52070000D03*
X97790000Y-54610000D03*
X90170000Y-54610000D03*
X90170000Y-52070000D03*
X87630000Y-52070000D03*
X87630000Y-54610000D03*
X85090000Y-54610000D03*
X85090000Y-52070000D03*
X82550000Y-54610000D03*
X82550000Y-52070000D03*
X80010000Y-54610000D03*
X80010000Y-52070000D03*
X77470000Y-52070000D03*
X77470000Y-54610000D03*
D15*
X95250000Y-74930000D03*
D14*
X97790000Y-72390000D03*
D15*
X100330000Y-74930000D03*
X97790000Y-74930000D03*
D14*
X95250000Y-72390000D03*
X92710000Y-72390000D03*
X100330000Y-72390000D03*
X90170000Y-72390000D03*
X92710000Y-74930000D03*
X87630000Y-72390000D03*
X90170000Y-74930000D03*
X85090000Y-72390000D03*
X87630000Y-74930000D03*
X80010000Y-72390000D03*
X77470000Y-72390000D03*
X85090000Y-74930000D03*
X82550000Y-74930000D03*
X77470000Y-74930000D03*
X82550000Y-72390000D03*
X80010000Y-74930000D03*
D16*
X87630000Y-65550000D03*
X87630000Y-61450000D03*
D17*
X90932000Y-62722000D03*
X90932000Y-60722000D03*
X90932000Y-64278000D03*
X90932000Y-66278000D03*
D18*
X93218000Y-69215000D03*
X95218000Y-69215000D03*
X95218000Y-57785000D03*
X93218000Y-57785000D03*
D19*
X93350000Y-66040000D03*
X95250000Y-66040000D03*
X93284000Y-63500000D03*
X95184000Y-63500000D03*
X95184000Y-60960000D03*
X93284000Y-60960000D03*
D20*
X92244700Y-61179600D03*
X89603500Y-63021200D03*
X90574000Y-56454600D03*
X96648800Y-68236300D03*
X98193300Y-58626700D03*
X85726300Y-59665500D03*
X86125900Y-56459700D03*
X85224100Y-66344300D03*
X96757100Y-64300000D03*
X93264000Y-67283500D03*
X96993800Y-67000000D03*
X89772900Y-70571700D03*
D21*
X100330000Y-54610000D02*
X100330000Y-52070000D01*
X95218000Y-57785000D02*
X94336700Y-57785000D01*
X85297100Y-55732300D02*
X94336700Y-55732300D01*
X83360300Y-57669100D02*
X85297100Y-55732300D01*
X94336700Y-53821800D02*
X95250000Y-52908500D01*
X94336700Y-55732300D02*
X94336700Y-53821800D01*
X93218000Y-69215000D02*
X92336700Y-69215000D01*
X90932000Y-62722000D02*
X90932000Y-64278000D01*
X92336700Y-66013200D02*
X92336700Y-69215000D01*
X91482800Y-65159300D02*
X92336700Y-66013200D01*
X90932000Y-65159300D02*
X91482800Y-65159300D01*
X90932000Y-64278000D02*
X90932000Y-65159300D01*
X92669000Y-61991300D02*
X91938300Y-62722000D01*
X93284000Y-61991300D02*
X92669000Y-61991300D01*
X93284000Y-60960000D02*
X93284000Y-61991300D01*
X90932000Y-62722000D02*
X91938300Y-62722000D01*
X94336700Y-55732300D02*
X94336700Y-57785000D01*
X94336700Y-60638600D02*
X94015300Y-60960000D01*
X94336700Y-57785000D02*
X94336700Y-60638600D01*
X93284000Y-60960000D02*
X94015300Y-60960000D01*
X95250000Y-52070000D02*
X95250000Y-52489200D01*
X95250000Y-52489200D02*
X95250000Y-52908500D01*
X96532300Y-52489200D02*
X96951500Y-52070000D01*
X95250000Y-52489200D02*
X96532300Y-52489200D01*
X97790000Y-52070000D02*
X96951500Y-52070000D01*
X83360300Y-67950100D02*
X83360300Y-66569300D01*
X79790700Y-67950100D02*
X82050200Y-65690600D01*
X77861200Y-67950100D02*
X79790700Y-67950100D01*
X81918700Y-65559200D02*
X82050200Y-65690600D01*
X81918700Y-62035600D02*
X81918700Y-65559200D01*
X82054500Y-61899800D02*
X81918700Y-62035600D01*
X82928800Y-66569300D02*
X83360300Y-66569300D01*
X82050200Y-65690600D02*
X82928800Y-66569300D01*
X83360300Y-59049900D02*
X83360300Y-58359500D01*
X83360300Y-58359500D02*
X83360300Y-57669100D01*
X83459300Y-61899800D02*
X83267300Y-61899800D01*
X83267300Y-61899800D02*
X82054500Y-61899800D01*
X77861200Y-59049900D02*
X79492200Y-59049900D01*
X79492200Y-59049900D02*
X83267300Y-59049900D01*
X83267300Y-58452500D02*
X83267300Y-59049900D01*
X83360300Y-58359500D02*
X83267300Y-58452500D01*
X83267300Y-59049900D02*
X83267300Y-61899800D01*
X91938300Y-60873200D02*
X92244700Y-61179600D01*
X91938300Y-60722000D02*
X91938300Y-60873200D01*
X91435200Y-60722000D02*
X91938300Y-60722000D01*
X91435200Y-60722000D02*
X90932000Y-60722000D01*
X89925700Y-60735600D02*
X89211300Y-61450000D01*
X89925700Y-60722000D02*
X89925700Y-60735600D01*
X87630000Y-61450000D02*
X89211300Y-61450000D01*
X90932000Y-60722000D02*
X89925700Y-60722000D01*
X90932000Y-66278000D02*
X89925700Y-66278000D01*
X87630000Y-65550000D02*
X89084200Y-65550000D01*
X89084200Y-65550000D02*
X89211200Y-65550000D01*
X89925700Y-66264500D02*
X89925700Y-66278000D01*
X89211200Y-65550000D02*
X89925700Y-66264500D01*
X89603500Y-65157700D02*
X89603500Y-63021200D01*
X89211200Y-65550000D02*
X89603500Y-65157700D01*
X95250000Y-74930000D02*
X95250000Y-74091500D01*
X83459300Y-65100200D02*
X84991200Y-65100200D01*
X94411500Y-67402200D02*
X95218000Y-68208700D01*
X94411500Y-63896200D02*
X94411500Y-67402200D01*
X94015300Y-63500000D02*
X94411500Y-63896200D01*
X93284000Y-63500000D02*
X94015300Y-63500000D01*
X95218000Y-69215000D02*
X95218000Y-68208700D01*
X94336700Y-70096300D02*
X94336700Y-69215000D01*
X94183000Y-70250000D02*
X94336700Y-70096300D01*
X94183000Y-73024500D02*
X95250000Y-74091500D01*
X94183000Y-70250000D02*
X94183000Y-73024500D01*
X95218000Y-69215000D02*
X94336700Y-69215000D01*
X85935600Y-66044600D02*
X84991200Y-65100200D01*
X85935600Y-66597200D02*
X85935600Y-66044600D01*
X86382200Y-67043800D02*
X85935600Y-66597200D01*
X88030700Y-67043800D02*
X86382200Y-67043800D01*
X91236900Y-70250000D02*
X88030700Y-67043800D01*
X94183000Y-70250000D02*
X91236900Y-70250000D01*
X91904400Y-57785000D02*
X90574000Y-56454600D01*
X93218000Y-57785000D02*
X91904400Y-57785000D01*
X95250000Y-66040000D02*
X95250000Y-67071300D01*
X95483800Y-67071300D02*
X96648800Y-68236300D01*
X95250000Y-67071300D02*
X95483800Y-67071300D01*
X95915300Y-60904700D02*
X98193300Y-58626700D01*
X95915300Y-60960000D02*
X95915300Y-60904700D01*
X95184000Y-60960000D02*
X95915300Y-60960000D01*
X83459300Y-64300100D02*
X84991200Y-64300100D01*
X85726300Y-63565000D02*
X85726300Y-59665500D01*
X84991200Y-64300100D02*
X85726300Y-63565000D01*
X84991400Y-57594200D02*
X86125900Y-56459700D01*
X84991400Y-63499800D02*
X84991400Y-57594200D01*
X84991200Y-63500000D02*
X84991400Y-63499800D01*
X83459300Y-63500000D02*
X84991200Y-63500000D01*
X80010000Y-73634300D02*
X80010000Y-74930000D01*
X84313300Y-69331000D02*
X80010000Y-73634300D01*
X84781900Y-69331000D02*
X84313300Y-69331000D01*
X85224100Y-68888800D02*
X84781900Y-69331000D01*
X85224100Y-66344300D02*
X85224100Y-68888800D01*
X98924400Y-62132700D02*
X96757100Y-64300000D01*
X98924400Y-58284400D02*
X98924400Y-62132700D01*
X95250000Y-54610000D02*
X98924400Y-58284400D01*
X93350000Y-66040000D02*
X93350000Y-67071300D01*
X93264000Y-67157300D02*
X93264000Y-67283500D01*
X93350000Y-67071300D02*
X93264000Y-67157300D01*
X95184000Y-63500000D02*
X95184000Y-64531300D01*
X96993800Y-66182600D02*
X96993800Y-67000000D01*
X95342500Y-64531300D02*
X96993800Y-66182600D01*
X95184000Y-64531300D02*
X95342500Y-64531300D01*
X97362200Y-67368400D02*
X96993800Y-67000000D01*
X97362200Y-68583600D02*
X97362200Y-67368400D01*
X96520000Y-69425800D02*
X97362200Y-68583600D01*
X96520000Y-74869200D02*
X96520000Y-69425800D01*
X95616100Y-75773100D02*
X96520000Y-74869200D01*
X94901400Y-75773100D02*
X95616100Y-75773100D01*
X89772900Y-70644600D02*
X94901400Y-75773100D01*
X89772900Y-70571700D02*
X89772900Y-70644600D01*
M02*
