G04 #@! TF.FileFunction,Copper,L1,Top,Signal*
%FSLAX46Y46*%
G04 Gerber Fmt 4.6, Leading zero omitted, Abs format (unit mm)*
G04 Created by KiCad (PCBNEW 4.0.4+dfsg1-stable) date Tue Feb 21 23:54:19 2017*
%MOMM*%
%LPD*%
G01*
G04 APERTURE LIST*
%ADD10C,0.100000*%
%ADD11C,0.914400*%
%ADD12R,1.500000X0.550000*%
%ADD13R,0.550000X1.500000*%
%ADD14R,2.000000X2.500000*%
%ADD15R,2.500000X1.950000*%
%ADD16C,0.203200*%
G04 APERTURE END LIST*
D10*
D11*
X100330000Y-54755376D03*
X100330000Y-57295376D03*
X97790000Y-57295376D03*
X97790000Y-54755376D03*
X95250000Y-57295376D03*
X95250000Y-54755376D03*
X92710000Y-57295376D03*
X92710000Y-54755376D03*
X90170000Y-57295376D03*
X90170000Y-54755376D03*
X87630000Y-57295376D03*
X87630000Y-54755376D03*
X85090000Y-57295376D03*
X85090000Y-54755376D03*
X82550000Y-57295376D03*
X82550000Y-54755376D03*
X80010000Y-57295376D03*
X80010000Y-54755376D03*
X77470000Y-57295376D03*
X77470000Y-54755376D03*
X100320000Y-75083376D03*
X97790000Y-75075376D03*
X100320000Y-77623376D03*
X97780000Y-77623376D03*
X95250000Y-75083376D03*
X95250000Y-77615376D03*
X92700000Y-75083376D03*
X92710000Y-77615376D03*
X90170000Y-75075376D03*
X90170000Y-77615376D03*
X87630000Y-75075376D03*
X87630000Y-77615376D03*
X85090000Y-75075376D03*
X85090000Y-77615376D03*
X82550000Y-77615376D03*
X82550000Y-75075376D03*
X80010000Y-75075376D03*
X80010000Y-77615376D03*
X77470000Y-75075376D03*
X77470000Y-77615376D03*
D12*
X83378000Y-62073376D03*
X83378000Y-62873376D03*
X83378000Y-63673376D03*
X83378000Y-64473376D03*
X83378000Y-65273376D03*
X83378000Y-66073376D03*
X83378000Y-66873376D03*
X83378000Y-67673376D03*
X83378000Y-68473376D03*
X83378000Y-69273376D03*
X83378000Y-70073376D03*
D13*
X85078000Y-71773376D03*
X85878000Y-71773376D03*
X86678000Y-71773376D03*
X87478000Y-71773376D03*
X88278000Y-71773376D03*
X89078000Y-71773376D03*
X89878000Y-71773376D03*
X90678000Y-71773376D03*
X91478000Y-71773376D03*
X92278000Y-71773376D03*
X93078000Y-71773376D03*
D12*
X94778000Y-70073376D03*
X94778000Y-69273376D03*
X94778000Y-68473376D03*
X94778000Y-67673376D03*
X94778000Y-66873376D03*
X94778000Y-66073376D03*
X94778000Y-65273376D03*
X94778000Y-64473376D03*
X94778000Y-63673376D03*
X94778000Y-62873376D03*
X94778000Y-62073376D03*
D13*
X93078000Y-60373376D03*
X92278000Y-60373376D03*
X91478000Y-60373376D03*
X90678000Y-60373376D03*
X89878000Y-60373376D03*
X89078000Y-60373376D03*
X88278000Y-60373376D03*
X87478000Y-60373376D03*
X86678000Y-60373376D03*
X85878000Y-60373376D03*
X85078000Y-60373376D03*
D14*
X99060000Y-70460376D03*
X99060000Y-61910376D03*
D15*
X78232000Y-67329376D03*
X78232000Y-64279376D03*
D16*
X86028000Y-72027376D02*
X86085399Y-71969977D01*
M02*
