G04 #@! TF.FileFunction,Copper,L1,Top,Signal*
%FSLAX46Y46*%
G04 Gerber Fmt 4.6, Leading zero omitted, Abs format (unit mm)*
G04 Created by KiCad (PCBNEW 4.0.4+dfsg1-stable) date Wed Feb 22 14:16:40 2017*
%MOMM*%
%LPD*%
G01*
G04 APERTURE LIST*
%ADD10C,0.100000*%
%ADD11R,2.000000X1.500000*%
%ADD12R,0.914400X0.914400*%
%ADD13C,0.914400*%
%ADD14O,0.914400X0.914400*%
%ADD15R,1.500000X0.550000*%
%ADD16R,0.550000X1.500000*%
%ADD17R,2.500000X1.950000*%
%ADD18R,1.198880X1.198880*%
%ADD19C,0.660400*%
%ADD20C,0.254000*%
G04 APERTURE END LIST*
D10*
D11*
X99060000Y-60000000D03*
X99060000Y-67000000D03*
D12*
X100330000Y-52070000D03*
X100330000Y-54610000D03*
D13*
X92710000Y-54610000D03*
D12*
X97790000Y-52070000D03*
D13*
X95250000Y-54610000D03*
D12*
X95250000Y-52070000D03*
D13*
X92710000Y-52070000D03*
X97790000Y-54610000D03*
X90170000Y-54610000D03*
X90170000Y-52070000D03*
X87630000Y-52070000D03*
X87630000Y-54610000D03*
X85090000Y-54610000D03*
X85090000Y-52070000D03*
X82550000Y-54610000D03*
X82550000Y-52070000D03*
X80010000Y-54610000D03*
X80010000Y-52070000D03*
X77470000Y-52070000D03*
X77470000Y-54610000D03*
D14*
X95250000Y-74930000D03*
D13*
X97790000Y-72390000D03*
D14*
X100330000Y-74930000D03*
X97790000Y-74930000D03*
D13*
X95250000Y-72390000D03*
X92710000Y-72390000D03*
X100330000Y-72390000D03*
X90170000Y-72390000D03*
X92710000Y-74930000D03*
X87630000Y-72390000D03*
X90170000Y-74930000D03*
X85090000Y-72390000D03*
X87630000Y-74930000D03*
X80010000Y-72390000D03*
X77470000Y-72390000D03*
X85090000Y-74930000D03*
X82550000Y-74930000D03*
X77470000Y-74930000D03*
X82550000Y-72390000D03*
X80010000Y-74930000D03*
D15*
X83200000Y-59500000D03*
X83200000Y-60300000D03*
X83200000Y-61100000D03*
X83200000Y-61900000D03*
X83200000Y-62700000D03*
X83200000Y-63500000D03*
X83200000Y-64300000D03*
X83200000Y-65100000D03*
X83200000Y-65900000D03*
X83200000Y-66700000D03*
X83200000Y-67500000D03*
D16*
X84900000Y-69200000D03*
X85700000Y-69200000D03*
X86500000Y-69200000D03*
X87300000Y-69200000D03*
X88100000Y-69200000D03*
X88900000Y-69200000D03*
X89700000Y-69200000D03*
X90500000Y-69200000D03*
X91300000Y-69200000D03*
X92100000Y-69200000D03*
X92900000Y-69200000D03*
D15*
X94600000Y-67500000D03*
X94600000Y-66700000D03*
X94600000Y-65900000D03*
X94600000Y-65100000D03*
X94600000Y-64300000D03*
X94600000Y-63500000D03*
X94600000Y-62700000D03*
X94600000Y-61900000D03*
X94600000Y-61100000D03*
X94600000Y-60300000D03*
X94600000Y-59500000D03*
D16*
X92900000Y-57800000D03*
X92100000Y-57800000D03*
X91300000Y-57800000D03*
X90500000Y-57800000D03*
X89700000Y-57800000D03*
X88900000Y-57800000D03*
X88100000Y-57800000D03*
X87300000Y-57800000D03*
X86500000Y-57800000D03*
X85700000Y-57800000D03*
X84900000Y-57800000D03*
D17*
X78232000Y-65025000D03*
X78232000Y-61975000D03*
D18*
X100584020Y-69596000D03*
X98485980Y-69596000D03*
X100584020Y-57404000D03*
X98485980Y-57404000D03*
D19*
X92150200Y-61100000D03*
X89603500Y-63068200D03*
X90578500Y-56463300D03*
X96461900Y-68884800D03*
X98193300Y-58626700D03*
X85901000Y-59434200D03*
X85079200Y-60419100D03*
X85224100Y-66344300D03*
X98024900Y-63184200D03*
X93264400Y-67283400D03*
X97084200Y-67000000D03*
X92747100Y-64812600D03*
D20*
X78232000Y-61975000D02*
X78232000Y-63331300D01*
X97790000Y-52070000D02*
X100330000Y-52070000D01*
X78400700Y-63500000D02*
X78232000Y-63331300D01*
X83200000Y-63500000D02*
X78400700Y-63500000D01*
X83200000Y-63500000D02*
X84331300Y-63500000D01*
X97474400Y-59795700D02*
X97678700Y-60000000D01*
X97474400Y-56627100D02*
X97474400Y-59795700D01*
X99491500Y-54610000D02*
X97474400Y-56627100D01*
X100330000Y-54610000D02*
X99491500Y-54610000D01*
X99060000Y-60000000D02*
X97678700Y-60000000D01*
X95731300Y-61947400D02*
X97678700Y-60000000D01*
X95731300Y-62700000D02*
X95731300Y-61947400D01*
X94600000Y-62700000D02*
X95731300Y-62700000D01*
X92062900Y-62700000D02*
X94600000Y-62700000D01*
X90983200Y-63779700D02*
X92062900Y-62700000D01*
X84611000Y-63779700D02*
X90983200Y-63779700D01*
X84331300Y-63500000D02*
X84611000Y-63779700D01*
X94600000Y-61100000D02*
X92150200Y-61100000D01*
X90771700Y-61900000D02*
X94600000Y-61900000D01*
X89603500Y-63068200D02*
X90771700Y-61900000D01*
X80588300Y-64300000D02*
X79863300Y-65025000D01*
X83200000Y-64300000D02*
X80588300Y-64300000D01*
X78232000Y-65025000D02*
X79863300Y-65025000D01*
X94600000Y-63500000D02*
X93468700Y-63500000D01*
X83200000Y-64300000D02*
X84331300Y-64300000D01*
X100584000Y-69596000D02*
X100584000Y-68615300D01*
X91804600Y-64300000D02*
X84331300Y-64300000D01*
X92604600Y-63500000D02*
X91804600Y-64300000D01*
X93468700Y-63500000D02*
X92604600Y-63500000D01*
X100584000Y-69596000D02*
X100584000Y-70576700D01*
X100330000Y-74930000D02*
X97790000Y-74930000D01*
X101208600Y-71201300D02*
X100584000Y-70576700D01*
X101208600Y-73212900D02*
X101208600Y-71201300D01*
X100330000Y-74091500D02*
X101208600Y-73212900D01*
X100330000Y-74930000D02*
X100330000Y-74091500D01*
X100584000Y-64113000D02*
X98943700Y-62472700D01*
X100584000Y-68615300D02*
X100584000Y-64113000D01*
X100584000Y-60832400D02*
X98943700Y-62472700D01*
X100584000Y-57404000D02*
X100584000Y-60832400D01*
X96703100Y-63500000D02*
X94600000Y-63500000D01*
X97730400Y-62472700D02*
X96703100Y-63500000D01*
X98943700Y-62472700D02*
X97730400Y-62472700D01*
X90500000Y-56541800D02*
X90578500Y-56463300D01*
X90500000Y-57800000D02*
X90500000Y-56541800D01*
X96794100Y-68884800D02*
X97505300Y-69596000D01*
X96461900Y-68884800D02*
X96794100Y-68884800D01*
X98486000Y-69596000D02*
X97505300Y-69596000D01*
X98435300Y-58384700D02*
X98486000Y-58384700D01*
X98193300Y-58626700D02*
X98435300Y-58384700D01*
X98486000Y-57404000D02*
X98486000Y-58384700D01*
X86403900Y-58931300D02*
X85901000Y-59434200D01*
X86500000Y-58931300D02*
X86403900Y-58931300D01*
X86500000Y-57800000D02*
X86500000Y-58931300D01*
X85079200Y-59249900D02*
X85079200Y-60419100D01*
X85700000Y-58629100D02*
X85079200Y-59249900D01*
X85700000Y-57800000D02*
X85700000Y-58629100D01*
X85224100Y-65992800D02*
X85224100Y-66344300D01*
X84331300Y-65100000D02*
X85224100Y-65992800D01*
X83200000Y-65100000D02*
X84331300Y-65100000D01*
X78708800Y-74930000D02*
X77470000Y-74930000D01*
X81280000Y-72358800D02*
X78708800Y-74930000D01*
X81280000Y-71008300D02*
X81280000Y-72358800D01*
X84331300Y-67957000D02*
X81280000Y-71008300D01*
X84331300Y-65900000D02*
X84331300Y-67957000D01*
X83200000Y-65900000D02*
X84331300Y-65900000D01*
X92100000Y-71780000D02*
X92710000Y-72390000D01*
X92100000Y-69200000D02*
X92100000Y-71780000D01*
X77470000Y-71298700D02*
X82068700Y-66700000D01*
X77470000Y-72390000D02*
X77470000Y-71298700D01*
X83200000Y-66700000D02*
X82068700Y-66700000D01*
X93549500Y-74090500D02*
X92710000Y-74930000D01*
X93549500Y-70980800D02*
X93549500Y-74090500D01*
X92900000Y-70331300D02*
X93549500Y-70980800D01*
X92900000Y-69200000D02*
X92900000Y-70331300D01*
X83200000Y-67500000D02*
X82068700Y-67500000D01*
X80010000Y-69558700D02*
X80010000Y-72390000D01*
X82068700Y-67500000D02*
X80010000Y-69558700D01*
X94600000Y-67500000D02*
X95731300Y-67500000D01*
X97790000Y-71219000D02*
X97790000Y-72390000D01*
X95731300Y-69160300D02*
X97790000Y-71219000D01*
X95731300Y-67500000D02*
X95731300Y-69160300D01*
X86500000Y-70980000D02*
X85090000Y-72390000D01*
X86500000Y-69200000D02*
X86500000Y-70980000D01*
X99466800Y-71526800D02*
X100330000Y-72390000D01*
X99466800Y-68816100D02*
X99466800Y-71526800D01*
X98782100Y-68131400D02*
X99466800Y-68816100D01*
X97183800Y-68131400D02*
X98782100Y-68131400D01*
X95731300Y-66678900D02*
X97183800Y-68131400D01*
X95731300Y-65900000D02*
X95731300Y-66678900D01*
X94600000Y-65900000D02*
X95731300Y-65900000D01*
X85090000Y-73575900D02*
X85090000Y-74930000D01*
X87300000Y-71365900D02*
X85090000Y-73575900D01*
X87300000Y-69200000D02*
X87300000Y-71365900D01*
X95250000Y-69982500D02*
X95250000Y-72390000D01*
X93327400Y-68059900D02*
X95250000Y-69982500D01*
X93029300Y-68059900D02*
X93327400Y-68059900D01*
X92549200Y-67579800D02*
X93029300Y-68059900D01*
X92549200Y-66019500D02*
X92549200Y-67579800D01*
X93468700Y-65100000D02*
X92549200Y-66019500D01*
X94600000Y-65100000D02*
X93468700Y-65100000D01*
X88100000Y-71920000D02*
X87630000Y-72390000D01*
X88100000Y-69200000D02*
X88100000Y-71920000D01*
X96909100Y-64300000D02*
X98024900Y-63184200D01*
X94600000Y-64300000D02*
X96909100Y-64300000D01*
X88900000Y-73660000D02*
X87630000Y-74930000D01*
X88900000Y-69200000D02*
X88900000Y-73660000D01*
X87630000Y-53424100D02*
X87630000Y-52070000D01*
X89700000Y-55494100D02*
X87630000Y-53424100D01*
X89700000Y-57800000D02*
X89700000Y-55494100D01*
X84243700Y-53763700D02*
X82550000Y-52070000D01*
X84243700Y-56012400D02*
X84243700Y-53763700D01*
X84900000Y-56668700D02*
X84243700Y-56012400D01*
X84900000Y-57800000D02*
X84900000Y-56668700D01*
X88900000Y-55880000D02*
X87630000Y-54610000D01*
X88900000Y-57800000D02*
X88900000Y-55880000D01*
X83200000Y-55260000D02*
X82550000Y-54610000D01*
X83200000Y-59500000D02*
X83200000Y-55260000D01*
X85090000Y-53424100D02*
X85090000Y-52070000D01*
X88100000Y-56434100D02*
X85090000Y-53424100D01*
X88100000Y-57800000D02*
X88100000Y-56434100D01*
X95731300Y-56668700D02*
X97790000Y-54610000D01*
X95731300Y-60300000D02*
X95731300Y-56668700D01*
X94600000Y-60300000D02*
X95731300Y-60300000D01*
X87148700Y-56668700D02*
X85090000Y-54610000D01*
X87300000Y-56668700D02*
X87148700Y-56668700D01*
X87300000Y-57800000D02*
X87300000Y-56668700D01*
X90170000Y-53424100D02*
X90170000Y-52070000D01*
X92100000Y-55354100D02*
X90170000Y-53424100D01*
X92100000Y-57800000D02*
X92100000Y-55354100D01*
X82068700Y-56668700D02*
X80010000Y-54610000D01*
X82068700Y-60300000D02*
X82068700Y-56668700D01*
X83200000Y-60300000D02*
X82068700Y-60300000D01*
X91300000Y-55740000D02*
X90170000Y-54610000D01*
X91300000Y-57800000D02*
X91300000Y-55740000D01*
X79167600Y-52912400D02*
X80010000Y-52070000D01*
X79167600Y-58198900D02*
X79167600Y-52912400D01*
X82068700Y-61100000D02*
X79167600Y-58198900D01*
X83200000Y-61100000D02*
X82068700Y-61100000D01*
X90500000Y-72060000D02*
X90170000Y-72390000D01*
X90500000Y-69200000D02*
X90500000Y-72060000D01*
X78330200Y-51209800D02*
X77470000Y-52070000D01*
X80335700Y-51209800D02*
X78330200Y-51209800D01*
X83735300Y-54609400D02*
X80335700Y-51209800D01*
X83735300Y-58199500D02*
X83735300Y-54609400D01*
X84331300Y-58795500D02*
X83735300Y-58199500D01*
X84331300Y-61900000D02*
X84331300Y-58795500D01*
X83200000Y-61900000D02*
X84331300Y-61900000D01*
X91300000Y-73800000D02*
X90170000Y-74930000D01*
X91300000Y-69200000D02*
X91300000Y-73800000D01*
X77470000Y-58438100D02*
X77470000Y-54610000D01*
X79946700Y-60914800D02*
X77470000Y-58438100D01*
X79946700Y-61619700D02*
X79946700Y-60914800D01*
X81027000Y-62700000D02*
X79946700Y-61619700D01*
X83200000Y-62700000D02*
X81027000Y-62700000D01*
X93596500Y-52956500D02*
X92710000Y-52070000D01*
X93596500Y-58843800D02*
X93596500Y-52956500D01*
X93468700Y-58971600D02*
X93596500Y-58843800D01*
X93468700Y-59500000D02*
X93468700Y-58971600D01*
X94600000Y-59500000D02*
X93468700Y-59500000D01*
X82550000Y-73575900D02*
X82550000Y-74930000D01*
X85700000Y-70425900D02*
X82550000Y-73575900D01*
X85700000Y-69200000D02*
X85700000Y-70425900D01*
X84608700Y-70331300D02*
X82550000Y-72390000D01*
X84900000Y-70331300D02*
X84608700Y-70331300D01*
X84900000Y-69200000D02*
X84900000Y-70331300D01*
X94600000Y-66700000D02*
X93468700Y-66700000D01*
X93264400Y-66904300D02*
X93468700Y-66700000D01*
X93264400Y-67283400D02*
X93264400Y-66904300D01*
X99060000Y-67000000D02*
X97678700Y-67000000D01*
X97678700Y-67000000D02*
X97084200Y-67000000D01*
X89700000Y-67859700D02*
X92747100Y-64812600D01*
X89700000Y-69200000D02*
X89700000Y-67859700D01*
X92900000Y-54800000D02*
X92710000Y-54610000D01*
X92900000Y-57800000D02*
X92900000Y-54800000D01*
M02*
