G04 #@! TF.FileFunction,Copper,L2,Bot,Signal*
%FSLAX46Y46*%
G04 Gerber Fmt 4.6, Leading zero omitted, Abs format (unit mm)*
G04 Created by KiCad (PCBNEW 4.0.2+dfsg1-2~bpo8+1-stable) date jue 29 dic 2016 12:28:54 COT*
%MOMM*%
G01*
G04 APERTURE LIST*
%ADD10C,0.100000*%
%ADD11C,1.727200*%
%ADD12R,1.000000X1.600000*%
%ADD13R,1.597660X1.800860*%
%ADD14R,2.032000X1.727200*%
%ADD15R,1.727200X1.727200*%
%ADD16R,0.900000X1.700000*%
%ADD17R,2.000000X2.500000*%
%ADD18R,1.500000X0.550000*%
%ADD19R,0.550000X1.500000*%
%ADD20R,2.400000X2.000000*%
%ADD21C,0.889000*%
%ADD22C,0.304800*%
G04 APERTURE END LIST*
D10*
D11*
X78994000Y-70485000D03*
D12*
X72009000Y-61374800D03*
X75009000Y-61374800D03*
X72009000Y-58580800D03*
X75009000Y-58580800D03*
X72009000Y-64168800D03*
X75009000Y-64168800D03*
X75009000Y-55786800D03*
X72009000Y-55786800D03*
D13*
X105443140Y-54251900D03*
X108282860Y-54251900D03*
X105443140Y-65935900D03*
X108282860Y-65935900D03*
D14*
X101854000Y-57404000D03*
D15*
X101854000Y-62484000D03*
D14*
X101854000Y-59944000D03*
D15*
X101854000Y-65024000D03*
D11*
X68834000Y-49403000D03*
X96774000Y-49403000D03*
X71374000Y-49403000D03*
X99314000Y-49403000D03*
X73914000Y-49403000D03*
X101854000Y-49403000D03*
X81534000Y-49403000D03*
X101854000Y-52324000D03*
X84074000Y-49403000D03*
X101854000Y-54864000D03*
X86614000Y-49403000D03*
X101854000Y-70485000D03*
X89154000Y-49403000D03*
X89154000Y-70485000D03*
X86614000Y-70485000D03*
X76454000Y-70485000D03*
X84074000Y-70485000D03*
X99314000Y-70485000D03*
X81534000Y-70485000D03*
X94234000Y-70485000D03*
X73914000Y-70485000D03*
X91694000Y-70485000D03*
X71374000Y-70485000D03*
X91694000Y-49403000D03*
X68834000Y-70485000D03*
X94234000Y-49403000D03*
X66294000Y-70485000D03*
X96774000Y-70485000D03*
X78994000Y-49403000D03*
X76454000Y-49403000D03*
D16*
X105383000Y-57299900D03*
X108283000Y-57299900D03*
X105383000Y-60093900D03*
X108283000Y-60093900D03*
X108283000Y-62887900D03*
X105383000Y-62887900D03*
D17*
X112011000Y-55724900D03*
X112011000Y-64274900D03*
D18*
X85300000Y-64000000D03*
X85300000Y-63200000D03*
X85300000Y-62400000D03*
X85300000Y-61600000D03*
X85300000Y-60800000D03*
X85300000Y-60000000D03*
X85300000Y-59200000D03*
X85300000Y-58400000D03*
X85300000Y-57600000D03*
X85300000Y-56800000D03*
X85300000Y-56000000D03*
D19*
X87000000Y-54300000D03*
X87800000Y-54300000D03*
X88600000Y-54300000D03*
X89400000Y-54300000D03*
X90200000Y-54300000D03*
X91000000Y-54300000D03*
X91800000Y-54300000D03*
X92600000Y-54300000D03*
X93400000Y-54300000D03*
X94200000Y-54300000D03*
X95000000Y-54300000D03*
D18*
X96700000Y-56000000D03*
X96700000Y-56800000D03*
X96700000Y-57600000D03*
X96700000Y-58400000D03*
X96700000Y-59200000D03*
X96700000Y-60000000D03*
X96700000Y-60800000D03*
X96700000Y-61600000D03*
X96700000Y-62400000D03*
X96700000Y-63200000D03*
X96700000Y-64000000D03*
D19*
X95000000Y-65700000D03*
X94200000Y-65700000D03*
X93400000Y-65700000D03*
X92600000Y-65700000D03*
X91800000Y-65700000D03*
X91000000Y-65700000D03*
X90200000Y-65700000D03*
X89400000Y-65700000D03*
X88600000Y-65700000D03*
X87800000Y-65700000D03*
X87000000Y-65700000D03*
D20*
X78063000Y-57871800D03*
X78063000Y-61971800D03*
D11*
X66294000Y-49403000D03*
D15*
X101854000Y-67564000D03*
D21*
X80102900Y-59302500D03*
X98201500Y-62104600D03*
X81710800Y-59894700D03*
X95107100Y-62059400D03*
X78649600Y-63793400D03*
X87483500Y-62155000D03*
X73448500Y-57349500D03*
X86815000Y-63842900D03*
X86299400Y-67109800D03*
X87978000Y-55800800D03*
X95190500Y-56718200D03*
X95184000Y-58726000D03*
X90920300Y-67612500D03*
X92398200Y-55800000D03*
X109854300Y-60494400D03*
D22*
X75009000Y-55786800D02*
X74051500Y-55786800D01*
X72009000Y-58580800D02*
X71051500Y-58580800D01*
X72009000Y-58580800D02*
X72009000Y-61374800D01*
X71051500Y-54741600D02*
X71051500Y-58580800D01*
X71263900Y-54529200D02*
X71051500Y-54741600D01*
X72793900Y-54529200D02*
X71263900Y-54529200D01*
X74051500Y-55786800D02*
X72793900Y-54529200D01*
X72009000Y-61374800D02*
X72009000Y-64168800D01*
X72009000Y-64168800D02*
X72966500Y-64168800D01*
X96700000Y-60800000D02*
X95492500Y-60800000D01*
X101854000Y-62484000D02*
X101854000Y-65024000D01*
X101854000Y-62484000D02*
X100532900Y-62484000D01*
X94545100Y-60800000D02*
X95492500Y-60800000D01*
X93745100Y-60000000D02*
X94545100Y-60800000D01*
X85300000Y-60000000D02*
X93745100Y-60000000D01*
X101854000Y-65024000D02*
X101854000Y-67327200D01*
X101854000Y-67327200D02*
X101854000Y-67564000D01*
X106699500Y-63296900D02*
X106290500Y-62887900D01*
X106699500Y-67045700D02*
X106699500Y-63296900D01*
X106418000Y-67327200D02*
X106699500Y-67045700D01*
X101854000Y-67327200D02*
X106418000Y-67327200D01*
X105383000Y-62887900D02*
X106290500Y-62887900D01*
X106290500Y-60130600D02*
X106290500Y-62887900D01*
X107813600Y-58607500D02*
X106290500Y-60130600D01*
X108964000Y-58607500D02*
X107813600Y-58607500D01*
X110553500Y-57018000D02*
X108964000Y-58607500D01*
X110553500Y-55724900D02*
X110553500Y-57018000D01*
X112011000Y-55724900D02*
X110553500Y-55724900D01*
X98848900Y-60800000D02*
X96700000Y-60800000D01*
X100532900Y-62484000D02*
X98848900Y-60800000D01*
X74224100Y-65426400D02*
X72966500Y-64168800D01*
X78352400Y-65426400D02*
X74224100Y-65426400D01*
X83778800Y-60000000D02*
X78352400Y-65426400D01*
X85300000Y-60000000D02*
X83778800Y-60000000D01*
X76405500Y-61813800D02*
X75966500Y-61374800D01*
X76405500Y-61971800D02*
X76405500Y-61813800D01*
X75009000Y-61374800D02*
X75966500Y-61374800D01*
X78063000Y-61971800D02*
X77234300Y-61971800D01*
X77234300Y-61971800D02*
X76405500Y-61971800D01*
X96700000Y-62400000D02*
X97907500Y-62400000D01*
X98201500Y-62106000D02*
X98201500Y-62104600D01*
X97907500Y-62400000D02*
X98201500Y-62106000D01*
X79903600Y-59302500D02*
X80102900Y-59302500D01*
X77234300Y-61971800D02*
X79903600Y-59302500D01*
X76405500Y-58141800D02*
X75966500Y-58580800D01*
X76405500Y-57871800D02*
X76405500Y-58141800D01*
X75009000Y-58580800D02*
X75966500Y-58580800D01*
X78063000Y-57871800D02*
X76405500Y-57871800D01*
X95492500Y-61674000D02*
X95492500Y-61600000D01*
X95107100Y-62059400D02*
X95492500Y-61674000D01*
X96700000Y-61600000D02*
X95492500Y-61600000D01*
X81710800Y-59625700D02*
X81710800Y-59894700D01*
X79956900Y-57871800D02*
X81710800Y-59625700D01*
X78063000Y-57871800D02*
X79956900Y-57871800D01*
X104186800Y-55071200D02*
X104186800Y-54251900D01*
X101854000Y-57404000D02*
X104186800Y-55071200D01*
X105443100Y-54251900D02*
X104186800Y-54251900D01*
X75009000Y-64168800D02*
X75966500Y-64168800D01*
X104325600Y-59944000D02*
X104475500Y-60093900D01*
X101854000Y-59944000D02*
X104325600Y-59944000D01*
X105383000Y-60093900D02*
X104628000Y-60093900D01*
X104628000Y-60093900D02*
X104475500Y-60093900D01*
X105080200Y-64578000D02*
X105443100Y-64578000D01*
X104475500Y-63973300D02*
X105080200Y-64578000D01*
X104475500Y-60093900D02*
X104475500Y-63973300D01*
X105443100Y-65935900D02*
X105443100Y-64578000D01*
X78274200Y-64168800D02*
X78649600Y-63793400D01*
X75966500Y-64168800D02*
X78274200Y-64168800D01*
X100324500Y-60000000D02*
X100380500Y-59944000D01*
X96700000Y-60000000D02*
X100324500Y-60000000D01*
X101854000Y-59944000D02*
X100380500Y-59944000D01*
X96700000Y-60000000D02*
X95492500Y-60000000D01*
X94798700Y-60000000D02*
X95492500Y-60000000D01*
X93998700Y-59200000D02*
X94798700Y-60000000D01*
X85300000Y-59200000D02*
X93998700Y-59200000D01*
X79122600Y-63793400D02*
X78649600Y-63793400D01*
X83716000Y-59200000D02*
X79122600Y-63793400D01*
X85300000Y-59200000D02*
X83716000Y-59200000D01*
X89821000Y-64492500D02*
X87483500Y-62155000D01*
X92600000Y-64492500D02*
X89821000Y-64492500D01*
X73448500Y-56268800D02*
X72966500Y-55786800D01*
X73448500Y-57349500D02*
X73448500Y-56268800D01*
X72009000Y-55786800D02*
X72966500Y-55786800D01*
X92600000Y-65700000D02*
X92600000Y-64492500D01*
X108282900Y-55992400D02*
X108282900Y-54251900D01*
X108283000Y-55992400D02*
X108282900Y-55992400D01*
X108283000Y-57299900D02*
X108283000Y-55992400D01*
X108283000Y-64578000D02*
X108282900Y-64578000D01*
X108283000Y-62887900D02*
X108283000Y-64578000D01*
X108282900Y-65935900D02*
X108282900Y-64578000D01*
X88600000Y-65700000D02*
X88600000Y-64492500D01*
X87464600Y-64492500D02*
X86815000Y-63842900D01*
X88600000Y-64492500D02*
X87464600Y-64492500D01*
X87800000Y-65700000D02*
X87800000Y-66907500D01*
X87597700Y-67109800D02*
X87800000Y-66907500D01*
X86299400Y-67109800D02*
X87597700Y-67109800D01*
X82772000Y-58400000D02*
X85300000Y-58400000D01*
X78257700Y-53885700D02*
X82772000Y-58400000D01*
X70776700Y-53885700D02*
X78257700Y-53885700D01*
X66294000Y-49403000D02*
X70776700Y-53885700D01*
X85300000Y-57600000D02*
X84092500Y-57600000D01*
X82834500Y-57600000D02*
X84092500Y-57600000D01*
X78510300Y-53275800D02*
X82834500Y-57600000D01*
X72706800Y-53275800D02*
X78510300Y-53275800D01*
X68834000Y-49403000D02*
X72706800Y-53275800D01*
X94200000Y-51977000D02*
X94200000Y-54300000D01*
X96774000Y-49403000D02*
X94200000Y-51977000D01*
X83759500Y-56800000D02*
X85300000Y-56800000D01*
X79625400Y-52665900D02*
X83759500Y-56800000D01*
X74636900Y-52665900D02*
X79625400Y-52665900D01*
X71374000Y-49403000D02*
X74636900Y-52665900D01*
X95624500Y-53092500D02*
X99314000Y-49403000D01*
X95000000Y-53092500D02*
X95624500Y-53092500D01*
X95000000Y-54300000D02*
X95000000Y-53092500D01*
X85300000Y-56000000D02*
X84092500Y-56000000D01*
X83822000Y-56000000D02*
X84092500Y-56000000D01*
X79268100Y-51446100D02*
X83822000Y-56000000D01*
X75957100Y-51446100D02*
X79268100Y-51446100D01*
X73914000Y-49403000D02*
X75957100Y-51446100D01*
X96700000Y-56000000D02*
X97907500Y-56000000D01*
X97907500Y-53349500D02*
X97907500Y-56000000D01*
X101854000Y-49403000D02*
X97907500Y-53349500D01*
X88271300Y-55507500D02*
X87978000Y-55800800D01*
X88600000Y-55507500D02*
X88271300Y-55507500D01*
X88600000Y-54300000D02*
X88600000Y-55507500D01*
X96700000Y-57600000D02*
X95492500Y-57600000D01*
X95492500Y-57020200D02*
X95190500Y-56718200D01*
X95492500Y-57600000D02*
X95492500Y-57020200D01*
X86490100Y-51819100D02*
X84074000Y-49403000D01*
X88126600Y-51819100D02*
X86490100Y-51819100D01*
X89400000Y-53092500D02*
X88126600Y-51819100D01*
X89400000Y-54300000D02*
X89400000Y-53092500D01*
X101443500Y-54864000D02*
X101854000Y-54864000D01*
X97907500Y-58400000D02*
X101443500Y-54864000D01*
X96700000Y-58400000D02*
X97907500Y-58400000D01*
X90200000Y-52989000D02*
X86614000Y-49403000D01*
X90200000Y-54300000D02*
X90200000Y-52989000D01*
X95492500Y-59034500D02*
X95184000Y-58726000D01*
X95492500Y-59200000D02*
X95492500Y-59034500D01*
X96700000Y-59200000D02*
X95492500Y-59200000D01*
X91000000Y-51249000D02*
X89154000Y-49403000D01*
X91000000Y-53092500D02*
X91000000Y-51249000D01*
X91000000Y-54300000D02*
X91000000Y-53092500D01*
X89369000Y-70485000D02*
X89154000Y-70485000D01*
X91870300Y-67983700D02*
X89369000Y-70485000D01*
X91870300Y-66977800D02*
X91870300Y-67983700D01*
X91800000Y-66907500D02*
X91870300Y-66977800D01*
X91800000Y-65700000D02*
X91800000Y-66907500D01*
X79423600Y-70485000D02*
X78994000Y-70485000D01*
X84208600Y-65700000D02*
X79423600Y-70485000D01*
X87000000Y-65700000D02*
X84208600Y-65700000D01*
X91000000Y-67532800D02*
X90920300Y-67612500D01*
X91000000Y-65700000D02*
X91000000Y-67532800D01*
X84845900Y-64000000D02*
X85300000Y-64000000D01*
X79760100Y-69085800D02*
X84845900Y-64000000D01*
X77853200Y-69085800D02*
X79760100Y-69085800D01*
X76454000Y-70485000D02*
X77853200Y-69085800D01*
X90200000Y-65700000D02*
X90200000Y-66907500D01*
X90200000Y-67001700D02*
X90200000Y-66907500D01*
X88055800Y-69145900D02*
X90200000Y-67001700D01*
X85413100Y-69145900D02*
X88055800Y-69145900D01*
X84074000Y-70485000D02*
X85413100Y-69145900D01*
X98007800Y-63200000D02*
X96700000Y-63200000D01*
X99314000Y-64506200D02*
X98007800Y-63200000D01*
X99314000Y-70485000D02*
X99314000Y-64506200D01*
X83625500Y-68393500D02*
X81534000Y-70485000D01*
X87914000Y-68393500D02*
X83625500Y-68393500D01*
X89400000Y-66907500D02*
X87914000Y-68393500D01*
X89400000Y-65700000D02*
X89400000Y-66907500D01*
X94200000Y-70451000D02*
X94234000Y-70485000D01*
X94200000Y-65700000D02*
X94200000Y-70451000D01*
X85300000Y-63200000D02*
X84092500Y-63200000D01*
X78816600Y-68475900D02*
X84092500Y-63200000D01*
X75923100Y-68475900D02*
X78816600Y-68475900D01*
X73914000Y-70485000D02*
X75923100Y-68475900D01*
X93400000Y-68779000D02*
X91694000Y-70485000D01*
X93400000Y-65700000D02*
X93400000Y-68779000D01*
X74127200Y-67731800D02*
X71374000Y-70485000D01*
X78634700Y-67731800D02*
X74127200Y-67731800D01*
X83966500Y-62400000D02*
X78634700Y-67731800D01*
X85300000Y-62400000D02*
X83966500Y-62400000D01*
X92600000Y-50309000D02*
X91694000Y-49403000D01*
X92600000Y-54300000D02*
X92600000Y-50309000D01*
X85300000Y-61600000D02*
X84092500Y-61600000D01*
X72327200Y-66991800D02*
X68834000Y-70485000D01*
X72327200Y-66991700D02*
X72327200Y-66991800D01*
X78512100Y-66991700D02*
X72327200Y-66991700D01*
X83903800Y-61600000D02*
X78512100Y-66991700D01*
X84092500Y-61600000D02*
X83903800Y-61600000D01*
X93400000Y-50237000D02*
X94234000Y-49403000D01*
X93400000Y-54300000D02*
X93400000Y-50237000D01*
X70548100Y-66230900D02*
X66294000Y-70485000D01*
X78410400Y-66230900D02*
X70548100Y-66230900D01*
X83841300Y-60800000D02*
X78410400Y-66230900D01*
X85300000Y-60800000D02*
X83841300Y-60800000D01*
X97907500Y-69351500D02*
X96774000Y-70485000D01*
X97907500Y-64000000D02*
X97907500Y-69351500D01*
X96700000Y-64000000D02*
X97907500Y-64000000D01*
X87800000Y-54300000D02*
X87800000Y-53092500D01*
X82683500Y-53092500D02*
X78994000Y-49403000D01*
X87800000Y-53092500D02*
X82683500Y-53092500D01*
X77887100Y-50836100D02*
X76454000Y-49403000D01*
X79564500Y-50836100D02*
X77887100Y-50836100D01*
X83028400Y-54300000D02*
X79564500Y-50836100D01*
X87000000Y-54300000D02*
X83028400Y-54300000D01*
X97990400Y-56800000D02*
X96700000Y-56800000D01*
X98517500Y-56272900D02*
X97990400Y-56800000D01*
X98517500Y-53751600D02*
X98517500Y-56272900D01*
X101268000Y-51001100D02*
X98517500Y-53751600D01*
X104557200Y-51001100D02*
X101268000Y-51001100D01*
X106699500Y-53143400D02*
X104557200Y-51001100D01*
X106699500Y-56890900D02*
X106699500Y-53143400D01*
X106290500Y-57299900D02*
X106699500Y-56890900D01*
X105383000Y-57299900D02*
X106290500Y-57299900D01*
X108283000Y-60093900D02*
X109190500Y-60093900D01*
X112011000Y-64274900D02*
X110553500Y-64274900D01*
X110553500Y-61193600D02*
X109854300Y-60494400D01*
X110553500Y-64274900D02*
X110553500Y-61193600D01*
X109591000Y-60494400D02*
X109854300Y-60494400D01*
X109190500Y-60093900D02*
X109591000Y-60494400D01*
X91800000Y-54300000D02*
X91800000Y-55507500D01*
X92105700Y-55507500D02*
X92398200Y-55800000D01*
X91800000Y-55507500D02*
X92105700Y-55507500D01*
M02*
