G04 #@! TF.FileFunction,Legend,Bot*
%FSLAX46Y46*%
G04 Gerber Fmt 4.6, Leading zero omitted, Abs format (unit mm)*
G04 Created by KiCad (PCBNEW 4.0.4+dfsg1-stable) date Tue Feb 21 23:54:19 2017*
%MOMM*%
%LPD*%
G01*
G04 APERTURE LIST*
%ADD10C,0.100000*%
%ADD11C,0.150000*%
%ADD12C,0.127000*%
G04 APERTURE END LIST*
D10*
D11*
X84607400Y-61984216D02*
X76200000Y-61984216D01*
X84607400Y-69705816D02*
X76200000Y-69705816D01*
X76200000Y-62009616D02*
X76200000Y-69680416D01*
X76410820Y-69695656D02*
X76410820Y-61994376D01*
X84609940Y-61994376D02*
X84609940Y-69695656D01*
X85930000Y-62950376D02*
X85930000Y-67250376D01*
X89330000Y-68200376D02*
X89330000Y-62950376D01*
X91655000Y-63145376D02*
X91655000Y-64145376D01*
X89955000Y-64145376D02*
X89955000Y-63145376D01*
X89955000Y-67955376D02*
X89955000Y-66955376D01*
X91655000Y-66955376D02*
X91655000Y-67955376D01*
X88120000Y-71055376D02*
X87120000Y-71055376D01*
X87120000Y-69355376D02*
X88120000Y-69355376D01*
X87120000Y-60045376D02*
X88120000Y-60045376D01*
X88120000Y-61745376D02*
X87120000Y-61745376D01*
X92834660Y-67233120D02*
X95534660Y-67233120D01*
X92834660Y-68733120D02*
X95534660Y-68733120D01*
X94334660Y-67833120D02*
X94334660Y-68083120D01*
X94334660Y-68083120D02*
X94184660Y-67933120D01*
X94084660Y-68333120D02*
X94084660Y-67633120D01*
X94434660Y-67983120D02*
X94784660Y-67983120D01*
X94084660Y-67983120D02*
X94434660Y-68333120D01*
X94434660Y-68333120D02*
X94434660Y-67633120D01*
X94434660Y-67633120D02*
X94084660Y-67983120D01*
X93015000Y-63530376D02*
X95715000Y-63530376D01*
X93015000Y-65030376D02*
X95715000Y-65030376D01*
X94515000Y-64130376D02*
X94515000Y-64380376D01*
X94515000Y-64380376D02*
X94365000Y-64230376D01*
X94265000Y-64630376D02*
X94265000Y-63930376D01*
X94615000Y-64280376D02*
X94965000Y-64280376D01*
X94265000Y-64280376D02*
X94615000Y-64630376D01*
X94615000Y-64630376D02*
X94615000Y-63930376D01*
X94615000Y-63930376D02*
X94265000Y-64280376D01*
X94015000Y-70870376D02*
X95215000Y-70870376D01*
X95215000Y-69120376D02*
X94015000Y-69120376D01*
X94015000Y-67060376D02*
X95215000Y-67060376D01*
X95215000Y-65310376D02*
X94015000Y-65310376D01*
X95215000Y-61500376D02*
X94015000Y-61500376D01*
X94015000Y-63250376D02*
X95215000Y-63250376D01*
D12*
X87607957Y-65114519D02*
X87970814Y-65114519D01*
X87208814Y-64860519D02*
X87607957Y-65114519D01*
X87208814Y-65368519D01*
X87970814Y-66021662D02*
X87970814Y-65586234D01*
X87970814Y-65803948D02*
X87208814Y-65803948D01*
X87317671Y-65731377D01*
X87390243Y-65658805D01*
X87426529Y-65586234D01*
D11*
X93262143Y-63478710D02*
X93309762Y-63431091D01*
X93357381Y-63288234D01*
X93357381Y-63192996D01*
X93309762Y-63050138D01*
X93214524Y-62954900D01*
X93119286Y-62907281D01*
X92928810Y-62859662D01*
X92785952Y-62859662D01*
X92595476Y-62907281D01*
X92500238Y-62954900D01*
X92405000Y-63050138D01*
X92357381Y-63192996D01*
X92357381Y-63288234D01*
X92405000Y-63431091D01*
X92452619Y-63478710D01*
X93357381Y-64431091D02*
X93357381Y-63859662D01*
X93357381Y-64145376D02*
X92357381Y-64145376D01*
X92500238Y-64050138D01*
X92595476Y-63954900D01*
X92643095Y-63859662D01*
X89062143Y-67288710D02*
X89109762Y-67241091D01*
X89157381Y-67098234D01*
X89157381Y-67002996D01*
X89109762Y-66860138D01*
X89014524Y-66764900D01*
X88919286Y-66717281D01*
X88728810Y-66669662D01*
X88585952Y-66669662D01*
X88395476Y-66717281D01*
X88300238Y-66764900D01*
X88205000Y-66860138D01*
X88157381Y-67002996D01*
X88157381Y-67098234D01*
X88205000Y-67241091D01*
X88252619Y-67288710D01*
X88252619Y-67669662D02*
X88205000Y-67717281D01*
X88157381Y-67812519D01*
X88157381Y-68050615D01*
X88205000Y-68145853D01*
X88252619Y-68193472D01*
X88347857Y-68241091D01*
X88443095Y-68241091D01*
X88585952Y-68193472D01*
X89157381Y-67622043D01*
X89157381Y-68241091D01*
X87786666Y-72662519D02*
X87834285Y-72710138D01*
X87977142Y-72757757D01*
X88072380Y-72757757D01*
X88215238Y-72710138D01*
X88310476Y-72614900D01*
X88358095Y-72519662D01*
X88405714Y-72329186D01*
X88405714Y-72186328D01*
X88358095Y-71995852D01*
X88310476Y-71900614D01*
X88215238Y-71805376D01*
X88072380Y-71757757D01*
X87977142Y-71757757D01*
X87834285Y-71805376D01*
X87786666Y-71852995D01*
X87453333Y-71757757D02*
X86834285Y-71757757D01*
X87167619Y-72138709D01*
X87024761Y-72138709D01*
X86929523Y-72186328D01*
X86881904Y-72233947D01*
X86834285Y-72329186D01*
X86834285Y-72567281D01*
X86881904Y-72662519D01*
X86929523Y-72710138D01*
X87024761Y-72757757D01*
X87310476Y-72757757D01*
X87405714Y-72710138D01*
X87453333Y-72662519D01*
X87786666Y-59152519D02*
X87834285Y-59200138D01*
X87977142Y-59247757D01*
X88072380Y-59247757D01*
X88215238Y-59200138D01*
X88310476Y-59104900D01*
X88358095Y-59009662D01*
X88405714Y-58819186D01*
X88405714Y-58676328D01*
X88358095Y-58485852D01*
X88310476Y-58390614D01*
X88215238Y-58295376D01*
X88072380Y-58247757D01*
X87977142Y-58247757D01*
X87834285Y-58295376D01*
X87786666Y-58342995D01*
X86929523Y-58581090D02*
X86929523Y-59247757D01*
X87167619Y-58200138D02*
X87405714Y-58914424D01*
X86786666Y-58914424D01*
X95172755Y-70185501D02*
X95172755Y-69185501D01*
X94934660Y-69185501D01*
X94791802Y-69233120D01*
X94696564Y-69328358D01*
X94648945Y-69423596D01*
X94601326Y-69614072D01*
X94601326Y-69756930D01*
X94648945Y-69947406D01*
X94696564Y-70042644D01*
X94791802Y-70137882D01*
X94934660Y-70185501D01*
X95172755Y-70185501D01*
X93648945Y-70185501D02*
X94220374Y-70185501D01*
X93934660Y-70185501D02*
X93934660Y-69185501D01*
X94029898Y-69328358D01*
X94125136Y-69423596D01*
X94220374Y-69471215D01*
X95353095Y-66482757D02*
X95353095Y-65482757D01*
X95115000Y-65482757D01*
X94972142Y-65530376D01*
X94876904Y-65625614D01*
X94829285Y-65720852D01*
X94781666Y-65911328D01*
X94781666Y-66054186D01*
X94829285Y-66244662D01*
X94876904Y-66339900D01*
X94972142Y-66435138D01*
X95115000Y-66482757D01*
X95353095Y-66482757D01*
X94400714Y-65577995D02*
X94353095Y-65530376D01*
X94257857Y-65482757D01*
X94019761Y-65482757D01*
X93924523Y-65530376D01*
X93876904Y-65577995D01*
X93829285Y-65673233D01*
X93829285Y-65768471D01*
X93876904Y-65911328D01*
X94448333Y-66482757D01*
X93829285Y-66482757D01*
X94781666Y-68347757D02*
X95115000Y-67871566D01*
X95353095Y-68347757D02*
X95353095Y-67347757D01*
X94972142Y-67347757D01*
X94876904Y-67395376D01*
X94829285Y-67442995D01*
X94781666Y-67538233D01*
X94781666Y-67681090D01*
X94829285Y-67776328D01*
X94876904Y-67823947D01*
X94972142Y-67871566D01*
X95353095Y-67871566D01*
X93829285Y-68347757D02*
X94400714Y-68347757D01*
X94115000Y-68347757D02*
X94115000Y-67347757D01*
X94210238Y-67490614D01*
X94305476Y-67585852D01*
X94400714Y-67633471D01*
X94781666Y-64537757D02*
X95115000Y-64061566D01*
X95353095Y-64537757D02*
X95353095Y-63537757D01*
X94972142Y-63537757D01*
X94876904Y-63585376D01*
X94829285Y-63632995D01*
X94781666Y-63728233D01*
X94781666Y-63871090D01*
X94829285Y-63966328D01*
X94876904Y-64013947D01*
X94972142Y-64061566D01*
X95353095Y-64061566D01*
X94400714Y-63632995D02*
X94353095Y-63585376D01*
X94257857Y-63537757D01*
X94019761Y-63537757D01*
X93924523Y-63585376D01*
X93876904Y-63632995D01*
X93829285Y-63728233D01*
X93829285Y-63823471D01*
X93876904Y-63966328D01*
X94448333Y-64537757D01*
X93829285Y-64537757D01*
X94781666Y-64927757D02*
X95115000Y-64451566D01*
X95353095Y-64927757D02*
X95353095Y-63927757D01*
X94972142Y-63927757D01*
X94876904Y-63975376D01*
X94829285Y-64022995D01*
X94781666Y-64118233D01*
X94781666Y-64261090D01*
X94829285Y-64356328D01*
X94876904Y-64403947D01*
X94972142Y-64451566D01*
X95353095Y-64451566D01*
X94448333Y-63927757D02*
X93829285Y-63927757D01*
X94162619Y-64308709D01*
X94019761Y-64308709D01*
X93924523Y-64356328D01*
X93876904Y-64403947D01*
X93829285Y-64499186D01*
X93829285Y-64737281D01*
X93876904Y-64832519D01*
X93924523Y-64880138D01*
X94019761Y-64927757D01*
X94305476Y-64927757D01*
X94400714Y-64880138D01*
X94448333Y-64832519D01*
M02*
