G04 #@! TF.FileFunction,Soldermask,Bot*
%FSLAX46Y46*%
G04 Gerber Fmt 4.6, Leading zero omitted, Abs format (unit mm)*
G04 Created by KiCad (PCBNEW 4.0.4+dfsg1-stable) date Wed Feb 22 14:06:43 2017*
%MOMM*%
%LPD*%
G01*
G04 APERTURE LIST*
%ADD10C,0.100000*%
%ADD11R,2.701240X0.900380*%
%ADD12R,2.899360X2.398980*%
%ADD13C,1.299160*%
%ADD14R,1.314400X1.314400*%
%ADD15C,1.314400*%
%ADD16O,1.314400X1.314400*%
%ADD17R,2.800000X2.400000*%
%ADD18R,1.650000X1.400000*%
%ADD19R,1.400000X1.650000*%
%ADD20R,1.100000X1.700000*%
G04 APERTURE END LIST*
D10*
D11*
X83459320Y-65100200D03*
X83459320Y-64300100D03*
X83459320Y-63500000D03*
X83459320Y-62699900D03*
X83459320Y-61899800D03*
D12*
X83360260Y-67950080D03*
X77861160Y-67950080D03*
X83360260Y-59049920D03*
X77861160Y-59049920D03*
D13*
X80860900Y-65699640D03*
X80860900Y-61300360D03*
D14*
X100330000Y-52070000D03*
X100330000Y-54610000D03*
D15*
X92710000Y-54610000D03*
D14*
X97790000Y-52070000D03*
D15*
X95250000Y-54610000D03*
D14*
X95250000Y-52070000D03*
D15*
X92710000Y-52070000D03*
X97790000Y-54610000D03*
X90170000Y-54610000D03*
X90170000Y-52070000D03*
X87630000Y-52070000D03*
X87630000Y-54610000D03*
X85090000Y-54610000D03*
X85090000Y-52070000D03*
X82550000Y-54610000D03*
X82550000Y-52070000D03*
X80010000Y-54610000D03*
X80010000Y-52070000D03*
X77470000Y-52070000D03*
X77470000Y-54610000D03*
D16*
X95250000Y-74930000D03*
D15*
X97790000Y-72390000D03*
D16*
X100330000Y-74930000D03*
X97790000Y-74930000D03*
D15*
X95250000Y-72390000D03*
X92710000Y-72390000D03*
X100330000Y-72390000D03*
X90170000Y-72390000D03*
X92710000Y-74930000D03*
X87630000Y-72390000D03*
X90170000Y-74930000D03*
X85090000Y-72390000D03*
X87630000Y-74930000D03*
X80010000Y-72390000D03*
X77470000Y-72390000D03*
X85090000Y-74930000D03*
X82550000Y-74930000D03*
X77470000Y-74930000D03*
X82550000Y-72390000D03*
X80010000Y-74930000D03*
D17*
X87630000Y-65550000D03*
X87630000Y-61450000D03*
D18*
X90932000Y-62722000D03*
X90932000Y-60722000D03*
X90932000Y-64278000D03*
X90932000Y-66278000D03*
D19*
X93218000Y-69215000D03*
X95218000Y-69215000D03*
X95218000Y-57785000D03*
X93218000Y-57785000D03*
D20*
X93350000Y-66040000D03*
X95250000Y-66040000D03*
X93284000Y-63500000D03*
X95184000Y-63500000D03*
X95184000Y-60960000D03*
X93284000Y-60960000D03*
M02*
