G04 #@! TF.FileFunction,Copper,L1,Top,Signal*
%FSLAX46Y46*%
G04 Gerber Fmt 4.6, Leading zero omitted, Abs format (unit mm)*
G04 Created by KiCad (PCBNEW 4.0.2+dfsg1-2~bpo8+1-stable) date jue 29 dic 2016 12:28:54 COT*
%MOMM*%
G01*
G04 APERTURE LIST*
%ADD10C,0.100000*%
%ADD11C,1.727200*%
%ADD12R,2.301240X0.500380*%
%ADD13R,2.499360X1.998980*%
%ADD14R,2.032000X1.727200*%
%ADD15R,1.727200X1.727200*%
%ADD16R,1.800860X2.148840*%
%ADD17C,0.889000*%
%ADD18C,0.304800*%
G04 APERTURE END LIST*
D10*
D11*
X78994000Y-70485000D03*
D12*
X72449320Y-58399800D03*
X72449320Y-59199900D03*
X72449320Y-60000000D03*
X72449320Y-60800100D03*
X72449320Y-61600200D03*
D13*
X72350260Y-55549920D03*
X66851160Y-55549920D03*
X72350260Y-64450080D03*
X66851160Y-64450080D03*
D14*
X101854000Y-57404000D03*
D15*
X101854000Y-62484000D03*
D14*
X101854000Y-59944000D03*
D15*
X101854000Y-65024000D03*
D11*
X68834000Y-49403000D03*
X96774000Y-49403000D03*
X71374000Y-49403000D03*
X99314000Y-49403000D03*
X73914000Y-49403000D03*
X101854000Y-49403000D03*
X81534000Y-49403000D03*
X101854000Y-52324000D03*
X84074000Y-49403000D03*
X101854000Y-54864000D03*
X86614000Y-49403000D03*
X101854000Y-70485000D03*
X89154000Y-49403000D03*
X89154000Y-70485000D03*
X86614000Y-70485000D03*
X76454000Y-70485000D03*
X84074000Y-70485000D03*
X99314000Y-70485000D03*
X81534000Y-70485000D03*
X94234000Y-70485000D03*
X73914000Y-70485000D03*
X91694000Y-70485000D03*
X71374000Y-70485000D03*
X91694000Y-49403000D03*
X68834000Y-70485000D03*
X94234000Y-49403000D03*
X66294000Y-70485000D03*
X96774000Y-70485000D03*
X78994000Y-49403000D03*
X76454000Y-49403000D03*
X66294000Y-49403000D03*
D15*
X101854000Y-67564000D03*
D16*
X77978000Y-58318400D03*
X77978000Y-61569600D03*
D17*
X80102900Y-59302500D03*
X98201500Y-62104600D03*
X81710800Y-59894700D03*
X95107100Y-62059400D03*
X78649600Y-63793400D03*
X87483500Y-62155000D03*
X73448500Y-57349500D03*
X86815000Y-63842900D03*
X86299400Y-67109800D03*
X87978000Y-55800800D03*
X95190500Y-56718200D03*
X95184000Y-58726000D03*
X90920300Y-67612500D03*
X92398200Y-55800000D03*
X109854300Y-60494400D03*
D18*
X66851200Y-55549900D02*
X66851200Y-56151200D01*
X72350300Y-55549900D02*
X70643100Y-55549900D01*
X72449300Y-61600200D02*
X70841200Y-61600200D01*
X70841200Y-56950600D02*
X70841200Y-61600200D01*
X70041800Y-56151200D02*
X70841200Y-56950600D01*
X66851200Y-56151200D02*
X70041800Y-56151200D01*
X70041800Y-56151200D02*
X70643100Y-55549900D01*
X66851200Y-64450100D02*
X68558400Y-64450100D01*
X70841200Y-64450100D02*
X70841200Y-61600200D01*
X72350300Y-64450100D02*
X70841200Y-64450100D01*
X70841200Y-64450100D02*
X68558400Y-64450100D01*
X74057500Y-55755800D02*
X74057500Y-55549900D01*
X76620100Y-58318400D02*
X74057500Y-55755800D01*
X77978000Y-58318400D02*
X76620100Y-58318400D01*
X72350300Y-55549900D02*
X74057500Y-55549900D01*
X101854000Y-62484000D02*
X100532900Y-62484000D01*
X77978000Y-58318400D02*
X79335900Y-58318400D01*
X79869600Y-57784700D02*
X79335900Y-58318400D01*
X96076100Y-57784700D02*
X79869600Y-57784700D01*
X100532900Y-62241500D02*
X96076100Y-57784700D01*
X100532900Y-62484000D02*
X100532900Y-62241500D01*
X80427800Y-58977600D02*
X80102900Y-59302500D01*
X93776300Y-58977600D02*
X80427800Y-58977600D01*
X96903300Y-62104600D02*
X93776300Y-58977600D01*
X98201500Y-62104600D02*
X96903300Y-62104600D01*
X92942400Y-59894700D02*
X81710800Y-59894700D01*
X95107100Y-62059400D02*
X92942400Y-59894700D01*
X72449300Y-58399800D02*
X74057400Y-58399800D01*
X77978000Y-61569600D02*
X77299100Y-61569600D01*
X77299100Y-61569600D02*
X76620100Y-61569600D01*
X77299100Y-62442900D02*
X77299100Y-61569600D01*
X78649600Y-63793400D02*
X77299100Y-62442900D01*
X101854000Y-59944000D02*
X101854000Y-57404000D01*
X76620100Y-60962500D02*
X74057400Y-58399800D01*
X76620100Y-61569600D02*
X76620100Y-60962500D01*
X81679800Y-62155000D02*
X87483500Y-62155000D01*
X79562400Y-60037600D02*
X81679800Y-62155000D01*
X77002700Y-60037600D02*
X79562400Y-60037600D01*
X74314600Y-57349500D02*
X77002700Y-60037600D01*
X73448500Y-57349500D02*
X74314600Y-57349500D01*
X85957400Y-64700500D02*
X86815000Y-63842900D01*
X78244600Y-64700500D02*
X85957400Y-64700500D01*
X75306900Y-61762800D02*
X78244600Y-64700500D01*
X75306900Y-60651800D02*
X75306900Y-61762800D01*
X73855000Y-59199900D02*
X75306900Y-60651800D01*
X72449300Y-59199900D02*
X73855000Y-59199900D01*
X79757700Y-67109800D02*
X86299400Y-67109800D01*
X74392100Y-61744200D02*
X79757700Y-67109800D01*
X74392100Y-60684600D02*
X74392100Y-61744200D01*
X73707500Y-60000000D02*
X74392100Y-60684600D01*
X72449300Y-60000000D02*
X73707500Y-60000000D01*
X87931800Y-55800800D02*
X87978000Y-55800800D01*
X81534000Y-49403000D02*
X87931800Y-55800800D01*
X97459800Y-56718200D02*
X101854000Y-52324000D01*
X95190500Y-56718200D02*
X97459800Y-56718200D01*
X99343200Y-67974200D02*
X101854000Y-70485000D01*
X99343200Y-61941100D02*
X99343200Y-67974200D01*
X96128100Y-58726000D02*
X99343200Y-61941100D01*
X95184000Y-58726000D02*
X96128100Y-58726000D01*
X89486500Y-67612500D02*
X86614000Y-70485000D01*
X90920300Y-67612500D02*
X89486500Y-67612500D01*
X97195400Y-51002800D02*
X92398200Y-55800000D01*
X102487200Y-51002800D02*
X97195400Y-51002800D01*
X109854300Y-58369900D02*
X102487200Y-51002800D01*
X109854300Y-60494400D02*
X109854300Y-58369900D01*
M02*
